999
Dxf file generated by netDxf https://netdxf.codeplex.com, Copyright(C) 2009-2016 Daniel Carvajal, Licensed under LGPL
0
SECTION
2
HEADER
9
$ACADVER
1
AC1027
9
$DWGCODEPAGE
3
ANSI_1252
9
$LASTSAVEDBY
1
User
9
$HANDSEED
5
36
9
$ANGBASE
50
0.0
9
$ANGDIR
70
0
9
$ATTMODE
70
1
9
$AUNITS
70
0
9
$AUPREC
70
0
9
$CECOLOR
62
256
9
$CELTSCALE
40
1.0
9
$CELTYPE
6
ByLayer
9
$CELWEIGHT
370
-1
9
$CLAYER
8
0
9
$CMLJUST
70
0
9
$CMLSCALE
40
20.0
9
$CMLSTYLE
2
Standard
9
$DIMSTYLE
2
Standard
9
$TEXTSIZE
40
2.5
9
$TEXTSTYLE
7
Standard
9
$LUNITS
70
2
9
$LUPREC
70
4
9
$EXTNAMES
290
1
9
$INSBASE
10
0.0
20
0.0
30
0.0
9
$INSUNITS
70
0
9
$LTSCALE
40
1.0
9
$LWDISPLAY
290
0
9
$PDMODE
70
0
9
$PDSIZE
40
0.0
9
$PLINEGEN
70
0
9
$PSLTSCALE
70
1
9
$TDCREATE
40
2457802.04837009
9
$TDUCREATE
40
2457802.00670351
9
$TDUPDATE
40
2457802.04837017
9
$TDUUPDATE
40
2457802.00670351
9
$TDINDWG
40
0.0
9
$DIMADEC
70
0
9
$DIMAUNIT
70
0
9
$DIMASZ
40
0.18
9
$DIMAZIN
70
0
9
$DIMSAH
70
0
9
$DIMBLK
1

9
$DIMLDRBLK
1

9
$DIMCEN
40
0.09
9
$DIMCLRD
70
0
9
$DIMCLRE
70
0
9
$DIMCLRT
70
0
9
$DIMDEC
70
2
9
$DIMDLE
40
0.0
9
$DIMDLI
40
0.38
9
$DIMDSEP
70
46
9
$DIMEXE
40
0.18
9
$DIMEXO
40
0.0625
9
$DIMGAP
40
0.09
9
$DIMJUST
70
0
9
$DIMLFAC
40
1.0
9
$DIMLUNIT
70
2
9
$DIMLWD
70
-2
9
$DIMLWE
70
-2
9
$DIMPOST
1
<>
9
$DIMRND
40
0.0
9
$DIMSCALE
40
1.0
9
$DIMSE1
70
0
9
$DIMSE2
70
0
9
$DIMTAD
70
1
9
$DIMTIH
70
0
9
$DIMTOH
70
0
9
$DIMTXT
40
0.18
9
$DIMZIN
70
0
9
$DIMFRAC
70
0
9
$DIMLTYPE
6
ByBlock
9
$DIMLTEX1
6
ByBlock
9
$DIMLTEX2
6
ByBlock
0
ENDSEC
0
SECTION
2
CLASSES
0
CLASS
1
RASTERVARIABLES
2
AcDbRasterVariables
3
ISM
90
0
91
1
280
0
281
0
0
ENDSEC
0
SECTION
2
TABLES
0
TABLE
2
APPID
5
4
330
0
100
AcDbSymbolTable
70
4
0
APPID
5
17
330
4
100
AcDbSymbolTableRecord
100
AcDbRegAppTableRecord
2
ACAD
70
0
0
APPID
5
2B
330
4
100
AcDbSymbolTableRecord
100
AcDbRegAppTableRecord
2
AcCmTransparency
70
0
0
APPID
5
2C
330
4
100
AcDbSymbolTableRecord
100
AcDbRegAppTableRecord
2
GradientColor1ACI
70
0
0
APPID
5
2D
330
4
100
AcDbSymbolTableRecord
100
AcDbRegAppTableRecord
2
GradientColor2ACI
70
0
0
ENDTAB
0
TABLE
2
VPORT
5
1
330
0
100
AcDbSymbolTable
70
1
0
VPORT
5
2
330
1
100
AcDbSymbolTableRecord
100
AcDbViewportTableRecord
2
*Active
70
0
10
0.0
20
0.0
11
1.0
21
1.0
12
0.0
22
0.0
13
0.0
23
0.0
14
0.5
24
0.5
15
10.0
25
10.0
16
0.0
26
0.0
36
1.0
17
0.0
27
0.0
37
0.0
40
10.0
41
1.0
75
0
76
1
0
ENDTAB
0
TABLE
2
LTYPE
5
6
330
0
100
AcDbSymbolTable
70
3
0
LTYPE
5
13
330
6
100
AcDbSymbolTableRecord
100
AcDbLinetypeTableRecord
70
0
2
Continuous
3
Solid line
72
65
73
0
40
0.0
0
LTYPE
5
14
330
6
100
AcDbSymbolTableRecord
100
AcDbLinetypeTableRecord
70
0
2
ByLayer
3

72
65
73
0
40
0.0
0
LTYPE
5
15
330
6
100
AcDbSymbolTableRecord
100
AcDbLinetypeTableRecord
70
0
2
ByBlock
3

72
65
73
0
40
0.0
0
ENDTAB
0
TABLE
2
LAYER
5
5
330
0
100
AcDbSymbolTable
70
1
0
LAYER
5
12
330
5
100
AcDbSymbolTableRecord
100
AcDbLayerTableRecord
2
0
70
0
62
7
6
Continuous
290
1
370
-3
390
0
0
ENDTAB
0
TABLE
2
STYLE
5
7
330
0
100
AcDbSymbolTable
70
1
0
STYLE
5
16
330
7
100
AcDbSymbolTableRecord
100
AcDbTextStyleTableRecord
2
Standard
3
simplex.shx
70
0
71
0
40
0.0
41
1.0
42
0.0
50
0.0
0
ENDTAB
0
TABLE
2
DIMSTYLE
5
8
330
0
100
AcDbSymbolTable
70
1
100
AcDbDimStyleTable
0
DIMSTYLE
105
18
330
8
100
AcDbSymbolTableRecord
100
AcDbDimStyleTableRecord
2
Standard
70
0
3
<>
40
1.0
41
0.18
42
0.0625
43
0.38
44
0.18
45
0.0
46
0.0
73
0
74
0
75
0
76
0
77
1
78
0
79
0
140
0.18
141
0.09
144
1.0
147
0.09
176
0
177
0
178
0
179
0
271
2
275
0
276
0
277
2
278
46
280
0
340
16
173
0
345
15
346
15
347
15
371
-2
372
-2
0
ENDTAB
0
TABLE
2
VIEW
5
3
330
0
100
AcDbSymbolTable
70
0
0
ENDTAB
0
TABLE
2
UCS
5
A
330
0
100
AcDbSymbolTable
70
0
0
ENDTAB
0
TABLE
2
BLOCK_RECORD
5
B
330
0
100
AcDbSymbolTable
70
2
0
BLOCK_RECORD
5
1A
330
B
100
AcDbSymbolTableRecord
100
AcDbBlockTableRecord
2
*Model_Space
340
1E
0
BLOCK_RECORD
5
25
330
B
100
AcDbSymbolTableRecord
100
AcDbBlockTableRecord
2
*Paper_Space
340
2A
0
ENDTAB
0
ENDSEC
0
SECTION
2
BLOCKS
0
BLOCK
5
1C
330
1A
100
AcDbEntity
8
0
100
AcDbBlockBegin
2
*Model_Space
70
0
10
0.0
20
0.0
30
0.0
3
*Model_Space
0
ENDBLK
5
1B
330
1A
100
AcDbEntity
8
0
100
AcDbBlockEnd
0
BLOCK
5
27
330
25
100
AcDbEntity
8
0
100
AcDbBlockBegin
2
*Paper_Space
70
0
10
0.0
20
0.0
30
0.0
3
*Paper_Space
0
ENDBLK
5
26
330
25
100
AcDbEntity
8
0
100
AcDbBlockEnd
0
ENDSEC
0
SECTION
2
ENTITIES
0
LWPOLYLINE
5
20
330
1A
100
AcDbEntity
67
0
8
0
62
256
6
ByLayer
370
-1
48
1.0
60
0
100
AcDbPolyline
90
1332
70
0
38
0.0
39
0.0
10
131.561452778477
20
3.25
40
0.0
41
0.0
42
0.0
10
131.523660207605
20
3.6442125
40
0.0
41
0.0
42
0.0
10
131.543318115517
20
4.3412
40
0.0
41
0.0
42
0.0
10
131.602899058354
20
5.2312375
40
0.0
41
0.0
42
0.0
10
131.684875592254
20
6.2046
40
0.0
41
0.0
42
0.0
10
131.771720273358
20
7.1515625
40
0.0
41
0.0
42
0.0
10
131.845905657805
20
7.9624
40
0.0
41
0.0
42
0.0
10
131.889904301736
20
8.5273875
40
0.0
41
0.0
42
0.0
10
131.886188761289
20
8.7368
40
0.0
41
0.0
42
0.0
10
131.817231592604
20
8.4809125
40
0.0
41
0.0
42
0.0
10
131.665505351822
20
7.65
40
0.0
41
0.0
42
0.0
10
132.328682878882
20
11.5
40
0.0
41
0.0
42
0.0
10
133.53446020081
20
18.5
40
0.0
41
0.0
42
0.0
10
133.53446020081
20
18.5
40
0.0
41
0.0
42
0.0
10
137.478493936491
20
19.32911513366
40
0.0
41
0.0
42
0.0
10
137.478493936491
20
19.32911513366
40
0.0
41
0.0
42
0.0
10
138.986774307689
20
19.9406568384373
40
0.0
41
0.0
42
0.0
10
140.217287168877
20
20.9627853893738
40
0.0
41
0.0
42
0.0
10
141.205633778252
20
22.2230410222016
40
0.0
41
0.0
42
0.0
10
141.987415394011
20
23.5489639726529
40
0.0
41
0.0
42
0.0
10
142.59823327435
20
24.7680944764598
40
0.0
41
0.0
42
0.0
10
143.073688677467
20
25.7079727693546
40
0.0
41
0.0
42
0.0
10
143.449382861556
20
26.1961390870694
40
0.0
41
0.0
42
0.0
10
143.760917084816
20
26.0601336653364
40
0.0
41
0.0
42
0.0
10
144.043892605442
20
25.1274967398878
40
0.0
41
0.0
42
0.0
10
144.333910681632
20
23.2257685464558
40
0.0
41
0.0
42
0.0
10
143.315889214844
20
31.3716365981659
40
0.0
41
0.0
42
0.0
10
143.288279504912
20
31.8724702857799
40
0.0
41
0.0
42
0.0
10
143.313085780095
20
32.4096984830311
40
0.0
41
0.0
42
0.0
10
143.374115634434
20
32.9568720076259
40
0.0
41
0.0
42
0.0
10
143.455176661972
20
33.4875416772704
40
0.0
41
0.0
42
0.0
10
143.540076456749
20
33.975258309671
40
0.0
41
0.0
42
0.0
10
143.612622612806
20
34.3935727225338
40
0.0
41
0.0
42
0.0
10
143.656622724184
20
34.7160357335651
40
0.0
41
0.0
42
0.0
10
143.655884384926
20
34.9161981604711
40
0.0
41
0.0
42
0.0
10
143.594215189071
20
34.9676108209581
40
0.0
41
0.0
42
0.0
10
143.455422730662
20
34.8438245327323
40
0.0
41
0.0
42
0.0
10
144.064594591793
20
35.577831721666
40
0.0
41
0.0
42
0.0
10
144.317262315747
20
36.0147085871893
40
0.0
41
0.0
42
0.0
10
144.40603387039
20
36.4726901569021
40
0.0
41
0.0
42
0.0
10
144.375400598082
20
36.9359738302591
40
0.0
41
0.0
42
0.0
10
144.269853841182
20
37.3887570067151
40
0.0
41
0.0
42
0.0
10
144.13388494205
20
37.8152370857249
40
0.0
41
0.0
42
0.0
10
144.011985243046
20
38.1996114667434
40
0.0
41
0.0
42
0.0
10
143.948646086531
20
38.5260775492254
40
0.0
41
0.0
42
0.0
10
143.988358814863
20
38.7788327326256
40
0.0
41
0.0
42
0.0
10
144.175614770402
20
38.9420744163989
40
0.0
41
0.0
42
0.0
10
144.554905295509
20
39.0
40
0.0
41
0.0
42
0.0
10
142.921111104363
20
39.0
40
0.0
41
0.0
42
0.0
10
142.653551753816
20
39.0708522057997
40
0.0
41
0.0
42
0.0
10
142.211006627768
20
39.2570812276011
40
0.0
41
0.0
42
0.0
10
141.658051935702
20
39.5191956720077
40
0.0
41
0.0
42
0.0
10
141.059263887101
20
39.8177041456228
40
0.0
41
0.0
42
0.0
10
140.479218691447
20
40.11311525505
40
0.0
41
0.0
42
0.0
10
139.982492558224
20
40.3659376068927
40
0.0
41
0.0
42
0.0
10
139.633661696915
20
40.5366798077543
40
0.0
41
0.0
42
0.0
10
139.497302317001
20
40.5858504642382
40
0.0
41
0.0
42
0.0
10
139.637990627966
20
40.473958182948
40
0.0
41
0.0
42
0.0
10
140.120302839292
20
40.161511570487
40
0.0
41
0.0
42
0.0
10
137.871470957066
20
41.5811368233044
40
0.0
41
0.0
42
0.0
10
137.016572462275
20
42.0631702669295
40
0.0
41
0.0
42
0.0
10
136.143743323507
20
42.4638543864044
40
0.0
41
0.0
42
0.0
10
135.290487894024
20
42.7934319199861
40
0.0
41
0.0
42
0.0
10
134.494310527089
20
43.0621456059317
40
0.0
41
0.0
42
0.0
10
133.792715575962
20
43.2802381824983
40
0.0
41
0.0
42
0.0
10
133.223207393905
20
43.4579523879428
40
0.0
41
0.0
42
0.0
10
132.82329033418
20
43.6055309605224
40
0.0
41
0.0
42
0.0
10
132.630468750048
20
43.7332166384941
40
0.0
41
0.0
42
0.0
10
132.682246994771
20
43.8512521601148
40
0.0
41
0.0
42
0.0
10
133.016129421611
20
43.9698802636417
40
0.0
41
0.0
42
0.0
10
131.391342858328
20
43.5620847950895
40
0.0
41
0.0
42
0.0
10
131.004782285279
20
43.4920820889489
40
0.0
41
0.0
42
0.0
10
130.637591589383
20
43.4709371467616
40
0.0
41
0.0
42
0.0
10
130.294792590642
20
43.484851251377
40
0.0
41
0.0
42
0.0
10
129.981407109058
20
43.5200256856448
40
0.0
41
0.0
42
0.0
10
129.702456964634
20
43.5626617324146
40
0.0
41
0.0
42
0.0
10
129.462963977372
20
43.598960674536
40
0.0
41
0.0
42
0.0
10
129.267949967276
20
43.6151237948586
40
0.0
41
0.0
42
0.0
10
129.122436754346
20
43.5973523762319
40
0.0
41
0.0
42
0.0
10
129.031446158587
20
43.5318477015055
40
0.0
41
0.0
42
0.0
10
129.0
20
43.4048110535291
40
0.0
41
0.0
42
0.0
10
129.0
20
43.9461517434789
40
0.0
41
0.0
42
0.0
10
128.909138603861
20
44.1816993500012
40
0.0
41
0.0
42
0.0
10
128.670317120019
20
44.5337548759495
40
0.0
41
0.0
42
0.0
10
128.33417960534
20
44.9576440018509
40
0.0
41
0.0
42
0.0
10
127.951370116688
20
45.4086924082325
40
0.0
41
0.0
42
0.0
10
127.572532710927
20
45.8422257756215
40
0.0
41
0.0
42
0.0
10
127.248311444921
20
46.213569784545
40
0.0
41
0.0
42
0.0
10
127.029350375537
20
46.47805011553
40
0.0
41
0.0
42
0.0
10
126.966293559637
20
46.5909924491037
40
0.0
41
0.0
42
0.0
10
127.109785054086
20
46.5077224657931
40
0.0
41
0.0
42
0.0
10
127.510468915749
20
46.1835658461254
40
0.0
41
0.0
42
0.0
10
125.689930923888
20
47.7152037716938
40
0.0
41
0.0
42
0.0
10
124.678434301973
20
48.7879019366019
40
0.0
41
0.0
42
0.0
10
123.691772488373
20
50.2022674782477
40
0.0
41
0.0
42
0.0
10
122.749174390763
20
51.8208186797039
40
0.0
41
0.0
42
0.0
10
121.86986891682
20
53.5060738240432
40
0.0
41
0.0
42
0.0
10
121.073084974218
20
55.1205511943382
40
0.0
41
0.0
42
0.0
10
120.378051470635
20
56.5267690736616
40
0.0
41
0.0
42
0.0
10
119.803997313746
20
57.5872457450859
40
0.0
41
0.0
42
0.0
10
119.370151411227
20
58.1644994916839
40
0.0
41
0.0
42
0.0
10
119.095742670753
20
58.1210485965282
40
0.0
41
0.0
42
0.0
10
119.0
20
57.3194113426914
40
0.0
41
0.0
42
0.0
10
119.0
20
61.4079369165351
40
0.0
41
0.0
42
0.0
10
118.874668003517
20
62.6363160189786
40
0.0
41
0.0
42
0.0
10
118.545317658212
20
63.9385820054191
40
0.0
41
0.0
42
0.0
10
118.081917430298
20
65.254553166829
40
0.0
41
0.0
42
0.0
10
117.55443578599
20
66.5240477941811
40
0.0
41
0.0
42
0.0
10
117.032841191503
20
67.686884178448
40
0.0
41
0.0
42
0.0
10
116.587102113051
20
68.6828806106024
40
0.0
41
0.0
42
0.0
10
116.287187016848
20
69.451855381617
40
0.0
41
0.0
42
0.0
10
116.203064369109
20
69.9336267824643
40
0.0
41
0.0
42
0.0
10
116.404702636048
20
70.0680131041171
40
0.0
41
0.0
42
0.0
10
116.96207028388
20
69.794832637548
40
0.0
41
0.0
42
0.0
10
114.433553082715
20
71.4515807387342
40
0.0
41
0.0
42
0.0
10
113.895101954382
20
71.9081887991378
40
0.0
41
0.0
42
0.0
10
113.462831710219
20
72.4597062218287
40
0.0
41
0.0
42
0.0
10
113.122322758592
20
73.0508997181791
40
0.0
41
0.0
42
0.0
10
112.859155507866
20
73.6265359995615
40
0.0
41
0.0
42
0.0
10
112.658910366406
20
74.1313817773482
40
0.0
41
0.0
42
0.0
10
112.507167742578
20
74.5102037629117
40
0.0
41
0.0
42
0.0
10
112.389508044747
20
74.7077686676241
40
0.0
41
0.0
42
0.0
10
112.291511681279
20
74.6688432028579
40
0.0
41
0.0
42
0.0
10
112.198759060539
20
74.3381940799854
40
0.0
41
0.0
42
0.0
10
112.096830590893
20
73.6605880103791
40
0.0
41
0.0
42
0.0
10
112.467907006374
20
76.5589068076542
40
0.0
41
0.0
42
0.0
10
112.529409863831
20
78.0488113269985
40
0.0
41
0.0
42
0.0
10
112.362474064596
20
79.393445108588
40
0.0
41
0.0
42
0.0
10
112.04029913235
20
80.5943905643622
40
0.0
41
0.0
42
0.0
10
111.63608459077
20
81.6532301062608
40
0.0
41
0.0
42
0.0
10
111.223029963536
20
82.5715461462232
40
0.0
41
0.0
42
0.0
10
110.874334774327
20
83.3509210961888
40
0.0
41
0.0
42
0.0
10
110.663198546821
20
83.9929373680974
40
0.0
41
0.0
42
0.0
10
110.662820804699
20
84.4991773738883
40
0.0
41
0.0
42
0.0
10
110.946401071637
20
84.8712235255011
40
0.0
41
0.0
42
0.0
10
111.587138871317
20
85.1106582348753
40
0.0
41
0.0
42
0.0
10
108.774750847064
20
84.5318033718705
40
0.0
41
0.0
42
0.0
10
107.869096551651
20
84.5757275072132
40
0.0
41
0.0
42
0.0
10
107.047554937139
20
85.011262784613
40
0.0
41
0.0
42
0.0
10
106.310154532534
20
85.7088767138556
40
0.0
41
0.0
42
0.0
10
105.656923866841
20
86.5390368047266
40
0.0
41
0.0
42
0.0
10
105.087891469064
20
87.3722105670117
40
0.0
41
0.0
42
0.0
10
104.60308586821
20
88.0788655104965
40
0.0
41
0.0
42
0.0
10
104.202535593284
20
88.5294691449667
40
0.0
41
0.0
42
0.0
10
103.886269173291
20
88.5944889802079
40
0.0
41
0.0
42
0.0
10
103.654315137236
20
88.1443925260057
40
0.0
41
0.0
42
0.0
10
103.506702014126
20
87.0496472921457
40
0.0
41
0.0
42
0.0
10
103.858145870695
20
91.9171376935688
40
0.0
41
0.0
42
0.0
10
103.868832083883
20
92.652843502058
40
0.0
41
0.0
42
0.0
10
103.810823191234
20
93.3871553508519
40
0.0
41
0.0
42
0.0
10
103.706782490829
20
94.0959013874192
40
0.0
41
0.0
42
0.0
10
103.579373280751
20
94.7549097592283
40
0.0
41
0.0
42
0.0
10
103.451258859081
20
95.3400086137478
40
0.0
41
0.0
42
0.0
10
103.345102523901
20
95.8270260984463
40
0.0
41
0.0
42
0.0
10
103.283567573295
20
96.1917903607922
40
0.0
41
0.0
42
0.0
10
103.289317305345
20
96.4101295482541
40
0.0
41
0.0
42
0.0
10
103.385015018131
20
96.4578718083006
40
0.0
41
0.0
42
0.0
10
103.593324009738
20
96.3108452884001
40
0.0
41
0.0
42
0.0
10
102.68609379737
20
97.152405935237
40
0.0
41
0.0
42
0.0
10
102.428723184245
20
97.4612644233849
40
0.0
41
0.0
42
0.0
10
102.146426091135
20
97.9074256097638
40
0.0
41
0.0
42
0.0
10
101.854812905198
20
98.4373271393349
40
0.0
41
0.0
42
0.0
10
101.569494013591
20
98.9974066570593
40
0.0
41
0.0
42
0.0
10
101.306079803474
20
99.5341018078978
40
0.0
41
0.0
42
0.0
10
101.080180662003
20
99.9938502368117
40
0.0
41
0.0
42
0.0
10
100.907406976335
20
100.323089588762
40
0.0
41
0.0
42
0.0
10
100.80336913363
20
100.468257508709
40
0.0
41
0.0
42
0.0
10
100.783677521045
20
100.375791641615
40
0.0
41
0.0
42
0.0
10
100.863942525737
20
99.9921296324403
40
0.0
41
0.0
42
0.0
10
100.412453273348
20
101.815843627645
40
0.0
41
0.0
42
0.0
10
100.160428049835
20
102.541534338798
40
0.0
41
0.0
42
0.0
10
99.8118414959402
20
103.191405827315
40
0.0
41
0.0
42
0.0
10
99.4116256858745
20
103.762136062064
40
0.0
41
0.0
42
0.0
10
99.0047126938497
20
104.250403011913
40
0.0
41
0.0
42
0.0
10
98.6360345940774
20
104.65288464573
40
0.0
41
0.0
42
0.0
10
98.3505234607693
20
104.966258932383
40
0.0
41
0.0
42
0.0
10
98.1931113681371
20
105.18720384074
40
0.0
41
0.0
42
0.0
10
98.2087303903924
20
105.31239733967
40
0.0
41
0.0
42
0.0
10
98.4423126017469
20
105.338517398039
40
0.0
41
0.0
42
0.0
10
98.9387900764123
20
105.262241984718
40
0.0
41
0.0
42
0.0
10
96.7957818617744
20
105.690843627645
40
0.0
41
0.0
42
0.0
10
96.3438437238186
20
105.805929415988
40
0.0
41
0.0
42
0.0
10
95.9145514189431
20
105.956704900579
40
0.0
41
0.0
42
0.0
10
95.5137760890577
20
106.128229665075
40
0.0
41
0.0
42
0.0
10
95.1473888760722
20
106.305563293135
40
0.0
41
0.0
42
0.0
10
94.8212609218962
20
106.473765368417
40
0.0
41
0.0
42
0.0
10
94.5412633684395
20
106.617895474578
40
0.0
41
0.0
42
0.0
10
94.3132673576118
20
106.723013195277
40
0.0
41
0.0
42
0.0
10
94.1431440313229
20
106.774178114171
40
0.0
41
0.0
42
0.0
10
94.0367645314823
20
106.756449814919
40
0.0
41
0.0
42
0.0
10
94.0
20
106.654887881179
40
0.0
41
0.0
42
0.0
10
94.0
20
107.149750847064
40
0.0
41
0.0
42
0.0
10
93.9354451677327
20
107.319739274974
40
0.0
41
0.0
42
0.0
10
93.7657682588771
20
107.522407063306
40
0.0
41
0.0
42
0.0
10
93.5269506553527
20
107.742184638257
40
0.0
41
0.0
42
0.0
10
93.2549737390789
20
107.963502426027
40
0.0
41
0.0
42
0.0
10
92.9858188919753
20
108.170790852813
40
0.0
41
0.0
42
0.0
10
92.7554674959614
20
108.348480344813
40
0.0
41
0.0
42
0.0
10
92.5999009329565
20
108.481001328225
40
0.0
41
0.0
42
0.0
10
92.5551005848803
20
108.552784229249
40
0.0
41
0.0
42
0.0
10
92.6570478336522
20
108.548259474081
40
0.0
41
0.0
42
0.0
10
92.9417240611916
20
108.451857488921
40
0.0
41
0.0
42
0.0
10
91.648275691537
20
108.943625682557
40
0.0
41
0.0
42
0.0
10
91.0888946182421
20
109.301969882292
40
0.0
41
0.0
42
0.0
10
90.592463202171
20
109.866878205158
40
0.0
41
0.0
42
0.0
10
90.1616065557343
20
110.546095211218
40
0.0
41
0.0
42
0.0
10
89.7989497913423
20
111.247365460536
40
0.0
41
0.0
42
0.0
10
89.5071180214053
20
111.878433513176
40
0.0
41
0.0
42
0.0
10
89.2887363583337
20
112.347043929201
40
0.0
41
0.0
42
0.0
10
89.1464299145379
20
112.560941268674
40
0.0
41
0.0
42
0.0
10
89.0828238024283
20
112.42787009166
40
0.0
41
0.0
42
0.0
10
89.1005431344152
20
111.855574958222
40
0.0
41
0.0
42
0.0
10
89.202213022909
20
110.751800428423
40
0.0
41
0.0
42
0.0
10
88.7204790088509
20
115.419353899394
40
0.0
41
0.0
42
0.0
10
88.5618478690407
20
116.478613260594
40
0.0
41
0.0
42
0.0
10
88.3197088224529
20
117.57381607172
40
0.0
41
0.0
42
0.0
10
88.0271054384867
20
118.658230955513
40
0.0
41
0.0
42
0.0
10
87.7170812865414
20
119.685126534715
40
0.0
41
0.0
42
0.0
10
87.4226799360162
20
120.607771432066
40
0.0
41
0.0
42
0.0
10
87.1769449563105
20
121.379434270307
40
0.0
41
0.0
42
0.0
10
87.0129199168234
20
121.953383672181
40
0.0
41
0.0
42
0.0
10
86.9636483869543
20
122.282888260428
40
0.0
41
0.0
42
0.0
10
87.0621739361024
20
122.321216657788
40
0.0
41
0.0
42
0.0
10
87.341540133667
20
122.021637487005
40
0.0
41
0.0
42
0.0
10
86.0722033173139
20
123.635337755702
40
0.0
41
0.0
42
0.0
10
85.7372316510701
20
124.139833351462
40
0.0
41
0.0
42
0.0
10
85.4190448316966
20
124.751062288713
40
0.0
41
0.0
42
0.0
10
85.1219944861596
20
125.41965570822
40
0.0
41
0.0
42
0.0
10
84.8504322414256
20
126.096244750749
40
0.0
41
0.0
42
0.0
10
84.608709724461
20
126.731460557067
40
0.0
41
0.0
42
0.0
10
84.401178562232
20
127.275934267939
40
0.0
41
0.0
42
0.0
10
84.232190381705
20
127.680297024132
40
0.0
41
0.0
42
0.0
10
84.1060968098465
20
127.895179966411
40
0.0
41
0.0
42
0.0
10
84.0272494736227
20
127.871214235542
40
0.0
41
0.0
42
0.0
10
84.0
20
127.559030972292
40
0.0
41
0.0
42
0.0
10
84.0
20
129.134858691801
40
0.0
41
0.0
42
0.0
10
83.97255
20
129.598008784271
40
0.0
41
0.0
42
0.0
10
83.9004
20
130.037951232145
40
0.0
41
0.0
42
0.0
10
83.79885
20
130.448669238676
40
0.0
41
0.0
42
0.0
10
83.6832
20
130.824146007115
40
0.0
41
0.0
42
0.0
10
83.56875
20
131.158364740717
40
0.0
41
0.0
42
0.0
10
83.4708
20
131.445308642733
40
0.0
41
0.0
42
0.0
10
83.40465
20
131.678960916416
40
0.0
41
0.0
42
0.0
10
83.3856
20
131.85330476502
40
0.0
41
0.0
42
0.0
10
83.42895
20
131.962323391797
40
0.0
41
0.0
42
0.0
10
83.55
20
132.0
40
0.0
41
0.0
42
0.0
10
83.0
20
132.0
40
0.0
41
0.0
42
0.0
10
82.8194828560362
20
131.999245293514
40
0.0
41
0.0
42
0.0
10
82.616342166164
20
131.99726161144
40
0.0
41
0.0
42
0.0
10
82.4031940434124
20
131.994469609851
40
0.0
41
0.0
42
0.0
10
82.1926546008106
20
131.991289944821
40
0.0
41
0.0
42
0.0
10
81.9973399513876
20
131.988143272424
40
0.0
41
0.0
42
0.0
10
81.8298662081723
20
131.985450248735
40
0.0
41
0.0
42
0.0
10
81.7028494841938
20
131.983631529827
40
0.0
41
0.0
42
0.0
10
81.6289058924812
20
131.983107771774
40
0.0
41
0.0
42
0.0
10
81.6206515460635
20
131.98429963065
40
0.0
41
0.0
42
0.0
10
81.6907025579696
20
131.98762776253
40
0.0
41
0.0
42
0.0
10
81.3126723510437
20
131.972506138955
40
0.0
41
0.0
42
0.0
10
80.911070338598
20
132.11801481085
40
0.0
41
0.0
42
0.0
10
80.5181715267054
20
132.527105640068
40
0.0
41
0.0
42
0.0
10
80.1427922294764
20
133.110262737709
40
0.0
41
0.0
42
0.0
10
79.7937487610212
20
133.777970214872
40
0.0
41
0.0
42
0.0
10
79.4798574354503
20
134.440712182659
40
0.0
41
0.0
42
0.0
10
79.2099345668739
20
135.008972752169
40
0.0
41
0.0
42
0.0
10
78.9927964694024
20
135.393236034502
40
0.0
41
0.0
42
0.0
10
78.8372594571461
20
135.503986140759
40
0.0
41
0.0
42
0.0
10
78.7521398442153
20
135.25170718204
40
0.0
41
0.0
42
0.0
10
78.7462539447205
20
134.546883269444
40
0.0
41
0.0
42
0.0
10
78.6240215160764
20
137.75
40
0.0
41
0.0
42
0.0
10
78.5881708580359
20
138.2890875
40
0.0
41
0.0
42
0.0
10
78.5275916112694
20
138.8242
40
0.0
41
0.0
42
0.0
10
78.4513522163522
20
139.3408625
40
0.0
41
0.0
42
0.0
10
78.3685211138593
20
139.8246
40
0.0
41
0.0
42
0.0
10
78.2881667443659
20
140.2609375
40
0.0
41
0.0
42
0.0
10
78.2193575484471
20
140.6354
40
0.0
41
0.0
42
0.0
10
78.1711619666778
20
140.9335125
40
0.0
41
0.0
42
0.0
10
78.1526484396334
20
141.1408
40
0.0
41
0.0
42
0.0
10
78.1728854078888
20
141.2427875
40
0.0
41
0.0
42
0.0
10
78.2409413120193
20
141.225
40
0.0
41
0.0
42
0.0
10
77.9243140267095
20
141.5
40
0.0
41
0.0
42
0.0
10
77.0541142461602
20
142.336191440627
40
0.0
41
0.0
42
0.0
10
76.28397331314
20
143.215914985165
40
0.0
41
0.0
42
0.0
10
75.6082082763196
20
144.098567706673
40
0.0
41
0.0
42
0.0
10
75.0211361843696
20
144.943546678211
40
0.0
41
0.0
42
0.0
10
74.5170740859606
20
145.710248972838
40
0.0
41
0.0
42
0.0
10
74.0903390297634
20
146.358071663614
40
0.0
41
0.0
42
0.0
10
73.7352480644485
20
146.846411823599
40
0.0
41
0.0
42
0.0
10
73.4461182386867
20
147.134666525852
40
0.0
41
0.0
42
0.0
10
73.2172666011485
20
147.182232843433
40
0.0
41
0.0
42
0.0
10
73.0430102005047
20
146.948507849401
40
0.0
41
0.0
42
0.0
10
73.5391871981929
20
148.241524378796
40
0.0
41
0.0
42
0.0
10
73.5553312231187
20
148.933432259727
40
0.0
41
0.0
42
0.0
10
73.1816012713686
20
149.69830744324
40
0.0
41
0.0
42
0.0
10
72.5279663763691
20
150.506656857356
40
0.0
41
0.0
42
0.0
10
71.7043955715473
20
151.328987430097
40
0.0
41
0.0
42
0.0
10
70.8208578903297
20
152.135806089486
40
0.0
41
0.0
42
0.0
10
69.9873223661432
20
152.897619763544
40
0.0
41
0.0
42
0.0
10
69.3137580324147
20
153.584935380293
40
0.0
41
0.0
42
0.0
10
68.9101339225707
20
154.168259867755
40
0.0
41
0.0
42
0.0
10
68.8864190700382
20
154.618100153952
40
0.0
41
0.0
42
0.0
10
69.3525825082439
20
154.904963166906
40
0.0
41
0.0
42
0.0
10
66.860052748076
20
154.253151992441
40
0.0
41
0.0
42
0.0
10
66.5215906190011
20
154.12037458546
40
0.0
41
0.0
42
0.0
10
66.1538507494649
20
153.907854885866
40
0.0
41
0.0
42
0.0
10
65.7762260533073
20
153.645337983181
40
0.0
41
0.0
42
0.0
10
65.4081094443682
20
153.362568966928
40
0.0
41
0.0
42
0.0
10
65.0688938364874
20
153.089292926632
40
0.0
41
0.0
42
0.0
10
64.7779721435049
20
152.855254951815
40
0.0
41
0.0
42
0.0
10
64.5547372792604
20
152.690200132001
40
0.0
41
0.0
42
0.0
10
64.4185821575939
20
152.623873556712
40
0.0
41
0.0
42
0.0
10
64.3888996923453
20
152.686020315473
40
0.0
41
0.0
42
0.0
10
64.4850827973545
20
152.906385497805
40
0.0
41
0.0
42
0.0
10
63.9331488148501
20
151.875087417939
40
0.0
41
0.0
42
0.0
10
63.7203573014198
20
151.571979536829
40
0.0
41
0.0
42
0.0
10
63.433340263062
20
151.284059863805
40
0.0
41
0.0
42
0.0
10
63.1023933684223
20
151.015266082443
40
0.0
41
0.0
42
0.0
10
62.7578122861465
20
150.769535876322
40
0.0
41
0.0
42
0.0
10
62.4298926848803
20
150.55080692902
40
0.0
41
0.0
42
0.0
10
62.1489302332694
20
150.363016924113
40
0.0
41
0.0
42
0.0
10
61.9452205999595
20
150.21010354518
40
0.0
41
0.0
42
0.0
10
61.8490594535962
20
150.096004475799
40
0.0
41
0.0
42
0.0
10
61.8907424628254
20
150.024657399546
40
0.0
41
0.0
42
0.0
10
62.1005652962926
20
150.0
40
0.0
41
0.0
42
0.0
10
61.0872609569542
20
150.0
40
0.0
41
0.0
42
0.0
10
60.4553882426471
20
149.892497619904
40
0.0
41
0.0
42
0.0
10
59.8647656267115
20
149.606689842015
40
0.0
41
0.0
42
0.0
10
59.3149244531695
20
149.197625709932
40
0.0
41
0.0
42
0.0
10
58.8053960660435
20
148.720354267254
40
0.0
41
0.0
42
0.0
10
58.3357118093557
20
148.229924557578
40
0.0
41
0.0
42
0.0
10
57.9054030271282
20
147.781385624503
40
0.0
41
0.0
42
0.0
10
57.5140010633833
20
147.429786511629
40
0.0
41
0.0
42
0.0
10
57.1610372621432
20
147.230176262553
40
0.0
41
0.0
42
0.0
10
56.8460429674302
20
147.237603920875
40
0.0
41
0.0
42
0.0
10
56.5685495232664
20
147.507118530192
40
0.0
41
0.0
42
0.0
10
57.4315469817611
20
146.110759310143
40
0.0
41
0.0
42
0.0
10
57.4463052827186
20
145.903920110252
40
0.0
41
0.0
42
0.0
10
57.3212850283165
20
145.625312879334
40
0.0
41
0.0
42
0.0
10
57.1013882365697
20
145.304262201308
40
0.0
41
0.0
42
0.0
10
56.8315169254935
20
144.970092660093
40
0.0
41
0.0
42
0.0
10
56.5565731131029
20
144.652128839607
40
0.0
41
0.0
42
0.0
10
56.3214588174131
20
144.379695323769
40
0.0
41
0.0
42
0.0
10
56.171076056439
20
144.182116696497
40
0.0
41
0.0
42
0.0
10
56.150326848196
20
144.08871754171
40
0.0
41
0.0
42
0.0
10
56.304113210699
20
144.128822443327
40
0.0
41
0.0
42
0.0
10
56.6773371619632
20
144.331755985267
40
0.0
41
0.0
42
0.0
10
55.017636878686
20
143.351346907243
40
0.0
41
0.0
42
0.0
10
54.5298358772464
20
143.041664193002
40
0.0
41
0.0
42
0.0
10
54.0664777345242
20
142.711357887067
40
0.0
41
0.0
42
0.0
10
53.6338994879645
20
142.376172574401
40
0.0
41
0.0
42
0.0
10
53.2384381750127
20
142.051852839965
40
0.0
41
0.0
42
0.0
10
52.886430833114
20
141.754143268723
40
0.0
41
0.0
42
0.0
10
52.5842144997136
20
141.498788445635
40
0.0
41
0.0
42
0.0
10
52.3381262122568
20
141.301532955665
40
0.0
41
0.0
42
0.0
10
52.1545030081887
20
141.178121383775
40
0.0
41
0.0
42
0.0
10
52.0396819249547
20
141.144298314925
40
0.0
41
0.0
42
0.0
10
52.0
20
141.21580833408
40
0.0
41
0.0
42
0.0
10
52.0
20
140.7843924736
40
0.0
41
0.0
42
0.0
10
51.97255
20
140.657595430243
40
0.0
41
0.0
42
0.0
10
51.9004
20
140.537151965921
40
0.0
41
0.0
42
0.0
10
51.79885
20
140.424709304831
40
0.0
41
0.0
42
0.0
10
51.6832
20
140.321914671166
40
0.0
41
0.0
42
0.0
10
51.56875
20
140.23041528912
40
0.0
41
0.0
42
0.0
10
51.4708
20
140.151858382889
40
0.0
41
0.0
42
0.0
10
51.40465
20
140.087891176667
40
0.0
41
0.0
42
0.0
10
51.3856
20
140.040160894648
40
0.0
41
0.0
42
0.0
10
51.42895
20
140.010314761028
40
0.0
41
0.0
42
0.0
10
51.55
20
140.0
40
0.0
41
0.0
42
0.0
10
51.0
20
140.0
40
0.0
41
0.0
42
0.0
10
50.83835
20
140.068625
40
0.0
41
0.0
42
0.0
10
50.6848
20
140.249
40
0.0
41
0.0
42
0.0
10
50.54145
20
140.502875
40
0.0
41
0.0
42
0.0
10
50.4104
20
140.792
40
0.0
41
0.0
42
0.0
10
50.29375
20
141.078125
40
0.0
41
0.0
42
0.0
10
50.1936
20
141.323
40
0.0
41
0.0
42
0.0
10
50.11205
20
141.488375
40
0.0
41
0.0
42
0.0
10
50.0512
20
141.536
40
0.0
41
0.0
42
0.0
10
50.01315
20
141.427625
40
0.0
41
0.0
42
0.0
10
50.0
20
141.125
40
0.0
41
0.0
42
0.0
10
50.0
20
142.5
40
0.0
41
0.0
42
0.0
10
49.9476694758111
20
143.006865939882
40
0.0
41
0.0
42
0.0
10
49.8115413103008
20
143.450356053148
40
0.0
41
0.0
42
0.0
10
49.6229106140536
20
143.832830779787
40
0.0
41
0.0
42
0.0
10
49.4130724976538
20
144.156650559791
40
0.0
41
0.0
42
0.0
10
49.2133220716861
20
144.424175833152
40
0.0
41
0.0
42
0.0
10
49.0549544467349
20
144.637767039861
40
0.0
41
0.0
42
0.0
10
48.9692647333846
20
144.799784619909
40
0.0
41
0.0
42
0.0
10
48.9875480422198
20
144.912589013287
40
0.0
41
0.0
42
0.0
10
49.1410994838249
20
144.978540659987
40
0.0
41
0.0
42
0.0
10
49.4612141687843
20
145.0
40
0.0
41
0.0
42
0.0
10
48.0817874682349
20
145.0
40
0.0
41
0.0
42
0.0
10
47.7284651088949
20
145.016594012569
40
0.0
41
0.0
42
0.0
10
47.320262213866
20
145.060209969102
40
0.0
41
0.0
42
0.0
10
46.8853098544114
20
145.12159874784
40
0.0
41
0.0
42
0.0
10
46.451739101794
20
145.191511227024
40
0.0
41
0.0
42
0.0
10
46.0476810272769
20
145.260698284893
40
0.0
41
0.0
42
0.0
10
45.7012667021231
20
145.319910799688
40
0.0
41
0.0
42
0.0
10
45.4406271975956
20
145.359899649649
40
0.0
41
0.0
42
0.0
10
45.2938935849575
20
145.371415713016
40
0.0
41
0.0
42
0.0
10
45.2891969354717
20
145.34520986803
40
0.0
41
0.0
42
0.0
10
45.4546683204014
20
145.272032992932
40
0.0
41
0.0
42
0.0
10
44.5882269007624
20
145.604517762071
40
0.0
41
0.0
42
0.0
10
44.2732451876027
20
145.660452029145
40
0.0
41
0.0
42
0.0
10
43.9536075922762
20
145.613496293187
40
0.0
41
0.0
42
0.0
10
43.6419541074995
20
145.496591856662
40
0.0
41
0.0
42
0.0
10
43.3509247259898
20
145.342680022039
40
0.0
41
0.0
42
0.0
10
43.093159440464
20
145.184702091783
40
0.0
41
0.0
42
0.0
10
42.8812982436388
20
145.055599368361
40
0.0
41
0.0
42
0.0
10
42.7279811282313
20
144.988313154241
40
0.0
41
0.0
42
0.0
10
42.6458480869585
20
145.015784751888
40
0.0
41
0.0
42
0.0
10
42.6475391125372
20
145.17095546377
40
0.0
41
0.0
42
0.0
10
42.7456941976843
20
145.486766592354
40
0.0
41
0.0
42
0.0
10
42.243692711561
20
144.129727355387
40
0.0
41
0.0
42
0.0
10
41.9547251279275
20
143.661556809586
40
0.0
41
0.0
42
0.0
10
41.5707271051239
20
143.424876428226
40
0.0
41
0.0
42
0.0
10
41.1442228249159
20
143.355295802412
40
0.0
41
0.0
42
0.0
10
40.7277364690693
20
143.388424523248
40
0.0
41
0.0
42
0.0
10
40.3737922193496
20
143.459872181839
40
0.0
41
0.0
42
0.0
10
40.1349142575227
20
143.505248369287
40
0.0
41
0.0
42
0.0
10
40.0636267653542
20
143.460162676698
40
0.0
41
0.0
42
0.0
10
40.2124539246098
20
143.260224695176
40
0.0
41
0.0
42
0.0
10
40.6339199170551
20
142.841044015824
40
0.0
41
0.0
42
0.0
10
41.3805489244559
20
142.138230229748
40
0.0
41
0.0
42
0.0
10
38.2914870062322
20
145.025209593317
40
0.0
41
0.0
42
0.0
10
37.7336019298665
20
145.506084462557
40
0.0
41
0.0
42
0.0
10
37.1309075642649
20
145.962863529503
40
0.0
41
0.0
42
0.0
10
36.5142505265124
20
146.389299734301
40
0.0
41
0.0
42
0.0
10
35.9144774336939
20
146.779146017097
40
0.0
41
0.0
42
0.0
10
35.3624349028945
20
147.126155318037
40
0.0
41
0.0
42
0.0
10
34.8889695511991
20
147.424080577266
40
0.0
41
0.0
42
0.0
10
34.5249279956928
20
147.666674734931
40
0.0
41
0.0
42
0.0
10
34.3011568534605
20
147.847690731178
40
0.0
41
0.0
42
0.0
10
34.2485027415873
20
147.960881506152
40
0.0
41
0.0
42
0.0
10
34.3978122771581
20
148.0
40
0.0
41
0.0
42
0.0
10
33.5292337271988
20
148.0
40
0.0
41
0.0
42
0.0
10
33.2418631491797
20
148.078128946156
40
0.0
41
0.0
42
0.0
10
32.9488558363115
20
148.282949688728
40
0.0
41
0.0
42
0.0
10
32.6611786262063
20
148.570113083868
40
0.0
41
0.0
42
0.0
10
32.3897983564765
20
148.89526998773
40
0.0
41
0.0
42
0.0
10
32.1456818647342
20
149.214071256469
40
0.0
41
0.0
42
0.0
10
31.9397959885916
20
149.482167746238
40
0.0
41
0.0
42
0.0
10
31.783107565661
20
149.65521031319
40
0.0
41
0.0
42
0.0
10
31.6865834335546
20
149.688849813479
40
0.0
41
0.0
42
0.0
10
31.6611904298846
20
149.538737103259
40
0.0
41
0.0
42
0.0
10
31.7178953922632
20
149.160523038684
40
0.0
41
0.0
42
0.0
10
31.3798635324621
20
150.85068233769
40
0.0
41
0.0
42
0.0
10
31.1705861280189
20
151.469169760774
40
0.0
41
0.0
42
0.0
10
30.8274827151614
20
152.071992076044
40
0.0
41
0.0
42
0.0
10
30.4056243302257
20
152.640300174389
40
0.0
41
0.0
42
0.0
10
29.9600820095481
20
153.155244946698
40
0.0
41
0.0
42
0.0
10
29.5459267894646
20
153.59797728386
40
0.0
41
0.0
42
0.0
10
29.2182297063112
20
153.949648076762
40
0.0
41
0.0
42
0.0
10
29.0320617964242
20
154.191408216294
40
0.0
41
0.0
42
0.0
10
29.0424940961397
20
154.304408593345
40
0.0
41
0.0
42
0.0
10
29.3045976417938
20
154.269800098802
40
0.0
41
0.0
42
0.0
10
29.8734434697225
20
154.068733623556
40
0.0
41
0.0
42
0.0
10
27.4048635324621
20
155.03732863012
40
0.0
41
0.0
42
0.0
10
26.8544673424396
20
155.290958779172
40
0.0
41
0.0
42
0.0
10
26.33165054703
20
155.595112590568
40
0.0
41
0.0
42
0.0
10
25.8435633596516
20
155.925987268262
40
0.0
41
0.0
42
0.0
10
25.3973559937224
20
156.259780016211
40
0.0
41
0.0
42
0.0
10
25.0001786626607
20
156.572688038369
40
0.0
41
0.0
42
0.0
10
24.6591815798846
20
156.840908538692
40
0.0
41
0.0
42
0.0
10
24.3815149588124
20
157.040638721134
40
0.0
41
0.0
42
0.0
10
24.1743290128621
20
157.148075789653
40
0.0
41
0.0
42
0.0
10
24.0447739554519
20
157.139416948201
40
0.0
41
0.0
42
0.0
10
24.0
20
156.990859400735
40
0.0
41
0.0
42
0.0
10
24.0
20
157.745663286805
40
0.0
41
0.0
42
0.0
10
23.9745263008264
20
157.951763398866
40
0.0
41
0.0
42
0.0
10
23.9075708401569
20
158.121110169724
40
0.0
41
0.0
42
0.0
10
23.8133320732687
20
158.259596748852
40
0.0
41
0.0
42
0.0
10
23.7060084554389
20
158.373116285728
40
0.0
41
0.0
42
0.0
10
23.5997984419446
20
158.467561929825
40
0.0
41
0.0
42
0.0
10
23.5089004880627
20
158.548826830618
40
0.0
41
0.0
42
0.0
10
23.4475130490706
20
158.622804137582
40
0.0
41
0.0
42
0.0
10
23.4298345802452
20
158.695387000192
40
0.0
41
0.0
42
0.0
10
23.4700635368636
20
158.772468567923
40
0.0
41
0.0
42
0.0
10
23.582398374203
20
158.85994199025
40
0.0
41
0.0
42
0.0
10
23.0719963871178
20
158.544496214306
40
0.0
41
0.0
42
0.0
10
22.8903932578297
20
158.48649492848
40
0.0
41
0.0
42
0.0
10
22.6648631278102
20
158.489663377496
40
0.0
41
0.0
42
0.0
10
22.4149630954505
20
158.535858822746
40
0.0
41
0.0
42
0.0
10
22.1602502591413
20
158.60693852562
40
0.0
41
0.0
42
0.0
10
21.9202817172736
20
158.68475974751
40
0.0
41
0.0
42
0.0
10
21.7146145682383
20
158.751179749807
40
0.0
41
0.0
42
0.0
10
21.5628059104264
20
158.788055793903
40
0.0
41
0.0
42
0.0
10
21.4844128422287
20
158.777245141188
40
0.0
41
0.0
42
0.0
10
21.4989924620361
20
158.700605053054
40
0.0
41
0.0
42
0.0
10
21.6261018682396
20
158.539992790893
40
0.0
41
0.0
42
0.0
10
20.9931240942445
20
159.235479219931
40
0.0
41
0.0
42
0.0
10
20.6588553767875
20
159.563414004029
40
0.0
41
0.0
42
0.0
10
20.0925274005002
20
160.082256169809
40
0.0
41
0.0
42
0.0
10
19.3791774329129
20
160.720500223632
40
0.0
41
0.0
42
0.0
10
18.6038427415561
20
161.40664067186
40
0.0
41
0.0
42
0.0
10
17.85156059396
20
162.069172020855
40
0.0
41
0.0
42
0.0
10
17.2073682576548
20
162.636588776979
40
0.0
41
0.0
42
0.0
10
16.7563030001709
20
163.037385446593
40
0.0
41
0.0
42
0.0
10
16.5834020890386
20
163.20005653606
40
0.0
41
0.0
42
0.0
10
16.7737027917882
20
163.053096551742
40
0.0
41
0.0
42
0.0
10
17.4122423759499
20
162.525
40
0.0
41
0.0
42
0.0
10
14.4422264402457
20
165.0
40
0.0
41
0.0
42
0.0
10
13.0089057836386
20
166.322023985472
40
0.0
41
0.0
42
0.0
10
11.9050484703872
20
167.568052678841
40
0.0
41
0.0
42
0.0
10
11.0815761381666
20
168.694028986088
40
0.0
41
0.0
42
0.0
10
10.489410424652
20
169.655895813197
40
0.0
41
0.0
42
0.0
10
10.0794729675186
20
170.409596066151
40
0.0
41
0.0
42
0.0
10
9.80268540444157
20
170.91107265093
40
0.0
41
0.0
42
0.0
10
9.60996937309602
20
171.116268473518
40
0.0
41
0.0
42
0.0
10
9.45224651115714
20
170.981126439897
40
0.0
41
0.0
42
0.0
10
9.2804384563001
20
170.461589456049
40
0.0
41
0.0
42
0.0
10
9.04546684620006
20
169.513600427957
40
0.0
41
0.0
42
0.0
10
9.98850965229946
20
173.436602922023
40
0.0
41
0.0
42
0.0
10
10.1145232642652
20
174.881221717055
40
0.0
41
0.0
42
0.0
10
9.95345096672208
20
176.60229659926
40
0.0
41
0.0
42
0.0
10
9.60135791404171
20
178.444298987568
40
0.0
41
0.0
42
0.0
10
9.1543092605956
20
180.251700300908
40
0.0
41
0.0
42
0.0
10
8.70837016075525
20
181.86897195821
40
0.0
41
0.0
42
0.0
10
8.3596057688922
20
183.140585378405
40
0.0
41
0.0
42
0.0
10
8.20408123937797
20
183.911011980421
40
0.0
41
0.0
42
0.0
10
8.33786172658407
20
184.024723183189
40
0.0
41
0.0
42
0.0
10
8.85701238488202
20
183.326190405638
40
0.0
41
0.0
42
0.0
10
9.85759836864336
20
181.659885066699
40
0.0
41
0.0
42
0.0
10
5.61318048658713
20
189.0
40
0.0
41
0.0
42
0.0
10
4.98384444865758
20
190.175727634792
40
0.0
41
0.0
42
0.0
10
4.42419803337327
20
191.367193792144
40
0.0
41
0.0
42
0.0
10
3.94152291271619
20
192.504048685526
40
0.0
41
0.0
42
0.0
10
3.54310075866832
20
193.515942528405
40
0.0
41
0.0
42
0.0
10
3.23621324321163
20
194.332525534252
40
0.0
41
0.0
42
0.0
10
3.0281420383281
20
194.883447916534
40
0.0
41
0.0
42
0.0
10
2.92616881599972
20
195.09835988872
40
0.0
41
0.0
42
0.0
10
2.93757524820846
20
194.906911664279
40
0.0
41
0.0
42
0.0
10
3.0696430069363
20
194.23875345668
40
0.0
41
0.0
42
0.0
10
3.32965376416523
20
193.023535479392
40
0.0
41
0.0
42
0.0
10
2.24162216258703
20
198.064194782648
40
0.0
41
0.0
42
0.0
10
1.5
20
201.5
40
0.0
41
0.0
42
0.0
10
1.5
20
201.5
40
0.0
41
0.0
42
0.0
10
6.25
20
201.810672171673
40
0.0
41
0.0
42
0.0
10
6.25
20
201.810672171673
40
0.0
41
0.0
42
0.0
10
7.29104350811682
20
201.926335525818
40
0.0
41
0.0
42
0.0
10
8.17893295109818
20
202.107643602523
40
0.0
41
0.0
42
0.0
10
8.92393081102682
20
202.326037437723
40
0.0
41
0.0
42
0.0
10
9.53629956998546
20
202.552958067356
40
0.0
41
0.0
42
0.0
10
10.0263017100568
20
202.759846527357
40
0.0
41
0.0
42
0.0
10
10.4041997133236
20
202.918143853664
40
0.0
41
0.0
42
0.0
10
10.6802560618686
20
202.999291082213
40
0.0
41
0.0
42
0.0
10
10.8647332377745
20
202.974729248941
40
0.0
41
0.0
42
0.0
10
10.9678937231241
20
202.815899389783
40
0.0
41
0.0
42
0.0
10
11.0
20
202.494242540677
40
0.0
41
0.0
42
0.0
10
11.0
20
203.86954253657
40
0.0
41
0.0
42
0.0
10
11.0381213686787
20
204.20427285265
40
0.0
41
0.0
42
0.0
10
11.1383201573916
20
204.609738693898
40
0.0
41
0.0
42
0.0
10
11.2793483901538
20
205.053210505469
40
0.0
41
0.0
42
0.0
10
11.4399580909804
20
205.501958732519
40
0.0
41
0.0
42
0.0
10
11.5989012838867
20
205.923253820203
40
0.0
41
0.0
42
0.0
10
11.7349299928878
20
206.284366213676
40
0.0
41
0.0
42
0.0
10
11.8267962419987
20
206.552566358095
40
0.0
41
0.0
42
0.0
10
11.8532520552348
20
206.695124698614
40
0.0
41
0.0
42
0.0
10
11.793049456611
20
206.67931168039
40
0.0
41
0.0
42
0.0
10
11.6249404701426
20
206.472397748578
40
0.0
41
0.0
42
0.0
10
12.388756600317
20
207.516978549314
40
0.0
41
0.0
42
0.0
10
12.6011360054647
20
207.855556573604
40
0.0
41
0.0
42
0.0
10
12.782541325923
20
208.230153704712
40
0.0
41
0.0
42
0.0
10
12.9368077363722
20
208.619187250661
40
0.0
41
0.0
42
0.0
10
13.0677704114921
20
209.001074519473
40
0.0
41
0.0
42
0.0
10
13.1792645259628
20
209.354232819169
40
0.0
41
0.0
42
0.0
10
13.2751252544643
20
209.657079457772
40
0.0
41
0.0
42
0.0
10
13.3591877716766
20
209.888031743303
40
0.0
41
0.0
42
0.0
10
13.4352872522797
20
210.025506983785
40
0.0
41
0.0
42
0.0
10
13.5072588709537
20
210.04792248724
40
0.0
41
0.0
42
0.0
10
13.5789378023786
20
209.933695561689
40
0.0
41
0.0
42
0.0
10
13.3362345378442
20
210.566170130732
40
0.0
41
0.0
42
0.0
10
13.4206626438049
20
210.825809421667
40
0.0
41
0.0
42
0.0
10
13.7623083798116
20
211.196228519187
40
0.0
41
0.0
42
0.0
10
14.2752809349707
20
211.633906372508
40
0.0
41
0.0
42
0.0
10
14.8736894983884
20
212.095321930844
40
0.0
41
0.0
42
0.0
10
15.4716432591711
20
212.53695414341
40
0.0
41
0.0
42
0.0
10
15.9832514064249
20
212.91528195942
40
0.0
41
0.0
42
0.0
10
16.3226231292562
20
213.18678432809
40
0.0
41
0.0
42
0.0
10
16.4038676167712
20
213.307940198633
40
0.0
41
0.0
42
0.0
10
16.1410940580762
20
213.235228520265
40
0.0
41
0.0
42
0.0
10
15.4484116422775
20
212.9251282422
40
0.0
41
0.0
42
0.0
10
18.5693020244391
20
214.402800225006
40
0.0
41
0.0
42
0.0
10
20.0269659572289
20
215.029136890592
40
0.0
41
0.0
42
0.0
10
21.3040006529568
20
215.469691305457
40
0.0
41
0.0
42
0.0
10
22.3952619974477
20
215.7631444201
40
0.0
41
0.0
42
0.0
10
23.2956058765265
20
215.948177185023
40
0.0
41
0.0
42
0.0
10
23.9998881760182
20
216.063470550724
40
0.0
41
0.0
42
0.0
10
24.5029647817477
20
216.147705467704
40
0.0
41
0.0
42
0.0
10
24.7996915795399
20
216.239562886462
40
0.0
41
0.0
42
0.0
10
24.8849244552198
20
216.377723757498
40
0.0
41
0.0
42
0.0
10
24.7535192946123
20
216.600869031312
40
0.0
41
0.0
42
0.0
10
24.4003319835424
20
216.947679658403
40
0.0
41
0.0
42
0.0
10
25.9529756202964
20
215.542556478748
40
0.0
41
0.0
42
0.0
10
26.4793008634146
20
215.154343164911
40
0.0
41
0.0
42
0.0
10
26.9318735635562
20
214.97782499155
40
0.0
41
0.0
42
0.0
10
27.3212257372174
20
214.956582169913
40
0.0
41
0.0
42
0.0
10
27.6578894008945
20
215.034194911246
40
0.0
41
0.0
42
0.0
10
27.9523965710839
20
215.154243426798
40
0.0
41
0.0
42
0.0
10
28.2152792642819
20
215.260307927816
40
0.0
41
0.0
42
0.0
10
28.4570694969848
20
215.295968625546
40
0.0
41
0.0
42
0.0
10
28.6882992856889
20
215.204805731237
40
0.0
41
0.0
42
0.0
10
28.9195006468906
20
214.930399456135
40
0.0
41
0.0
42
0.0
10
29.1612055970861
20
214.416330011488
40
0.0
41
0.0
42
0.0
10
28.3263142075598
20
216.592022097056
40
0.0
41
0.0
42
0.0
10
28.2123762985512
20
216.800884903277
40
0.0
41
0.0
42
0.0
10
28.0583032898191
20
216.970948603907
40
0.0
41
0.0
42
0.0
10
27.8804437834866
20
217.108689051884
40
0.0
41
0.0
42
0.0
10
27.6951463816771
20
217.220582100147
40
0.0
41
0.0
42
0.0
10
27.5187596865139
20
217.313103601634
40
0.0
41
0.0
42
0.0
10
27.3676323001202
20
217.392729409284
40
0.0
41
0.0
42
0.0
10
27.2581128246192
20
217.465935376035
40
0.0
41
0.0
42
0.0
10
27.2065498621343
20
217.539197354826
40
0.0
41
0.0
42
0.0
10
27.2292920147887
20
217.618991198595
40
0.0
41
0.0
42
0.0
10
27.3426878847057
20
217.711792760281
40
0.0
41
0.0
42
0.0
10
26.7954470094078
20
217.373579299314
40
0.0
41
0.0
42
0.0
10
26.6377067040598
20
217.313552867381
40
0.0
41
0.0
42
0.0
10
26.5319772637918
20
217.346201853785
40
0.0
41
0.0
42
0.0
10
26.4661183375608
20
217.442432198334
40
0.0
41
0.0
42
0.0
10
26.4279895743239
20
217.573149840843
40
0.0
41
0.0
42
0.0
10
26.405450623038
20
217.709260721121
40
0.0
41
0.0
42
0.0
10
26.3863611326602
20
217.82167077898
40
0.0
41
0.0
42
0.0
10
26.3585807521476
20
217.881285954233
40
0.0
41
0.0
42
0.0
10
26.3099691304572
20
217.859012186689
40
0.0
41
0.0
42
0.0
10
26.2283859165459
20
217.725755416162
40
0.0
41
0.0
42
0.0
10
26.101690759371
20
217.452421582462
40
0.0
41
0.0
42
0.0
10
26.6126838009971
20
218.629322866959
40
0.0
41
0.0
42
0.0
10
26.7504546445349
20
218.970283559193
40
0.0
41
0.0
42
0.0
10
26.8921912230606
20
219.358892797446
40
0.0
41
0.0
42
0.0
10
27.0325786080477
20
219.769726504903
40
0.0
41
0.0
42
0.0
10
27.1663018709693
20
220.177360604747
40
0.0
41
0.0
42
0.0
10
27.2880460832989
20
220.556371020163
40
0.0
41
0.0
42
0.0
10
27.3924963165099
20
220.881333674335
40
0.0
41
0.0
42
0.0
10
27.4743376420754
20
221.126824490446
40
0.0
41
0.0
42
0.0
10
27.528255131469
20
221.26741939168
40
0.0
41
0.0
42
0.0
10
27.5489338561639
20
221.277694301222
40
0.0
41
0.0
42
0.0
10
27.5310588876335
20
221.132225142255
40
0.0
41
0.0
42
0.0
10
27.6608037475845
20
221.904944760566
40
0.0
41
0.0
42
0.0
10
27.8011984834244
20
222.236779403323
40
0.0
41
0.0
42
0.0
10
28.1062066909798
20
222.727770310564
40
0.0
41
0.0
42
0.0
10
28.5183347442599
20
223.316595607223
40
0.0
41
0.0
42
0.0
10
28.980089017274
20
223.941933418233
40
0.0
41
0.0
42
0.0
10
29.4339758840312
20
224.542461868529
40
0.0
41
0.0
42
0.0
10
29.8225017185409
20
225.056859083045
40
0.0
41
0.0
42
0.0
10
30.0881728948121
20
225.423803186714
40
0.0
41
0.0
42
0.0
10
30.1734957868543
20
225.58197230447
40
0.0
41
0.0
42
0.0
10
30.0209767686765
20
225.470044561248
40
0.0
41
0.0
42
0.0
10
29.5731222142881
20
225.026698081981
40
0.0
41
0.0
42
0.0
10
31.622078429257
20
227.125019656352
40
0.0
41
0.0
42
0.0
10
32.6338426877417
20
228.480115879244
40
0.0
41
0.0
42
0.0
10
33.3286794349685
20
230.008248171764
40
0.0
41
0.0
42
0.0
10
33.7746120941236
20
231.568610984961
40
0.0
41
0.0
42
0.0
10
34.0396640883931
20
233.020398769882
40
0.0
41
0.0
42
0.0
10
34.1918588409631
20
234.222805977573
40
0.0
41
0.0
42
0.0
10
34.2992197750196
20
235.035027059082
40
0.0
41
0.0
42
0.0
10
34.4297703137489
20
235.316256465456
40
0.0
41
0.0
42
0.0
10
34.6515338803369
20
234.925688647742
40
0.0
41
0.0
42
0.0
10
35.0325338979699
20
233.722518056989
40
0.0
41
0.0
42
0.0
10
35.6407937898339
20
231.565939144242
40
0.0
41
0.0
42
0.0
10
33.1589127785844
20
240.5
40
0.0
41
0.0
42
0.0
10
32.9923575131854
20
241.286306362693
40
0.0
41
0.0
42
0.0
10
32.8560865722637
20
242.267712703977
40
0.0
41
0.0
42
0.0
10
32.7451484812952
20
243.357949903665
40
0.0
41
0.0
42
0.0
10
32.6545917657557
20
244.470748841566
40
0.0
41
0.0
42
0.0
10
32.579464951121
20
245.519840397492
40
0.0
41
0.0
42
0.0
10
32.5148165628669
20
246.418955451253
40
0.0
41
0.0
42
0.0
10
32.4556951264692
20
247.08182488266
40
0.0
41
0.0
42
0.0
10
32.3971491674038
20
247.422179571523
40
0.0
41
0.0
42
0.0
10
32.3342272111464
20
247.353750397653
40
0.0
41
0.0
42
0.0
10
32.2619777831729
20
246.790268240861
40
0.0
41
0.0
42
0.0
10
32.5238566343051
20
249.589484979692
40
0.0
41
0.0
42
0.0
10
33.2503142425469
20
251.514911619858
40
0.0
41
0.0
42
0.0
10
34.7979207007978
20
253.071235954995
40
0.0
41
0.0
42
0.0
10
36.8150477172223
20
254.299381491962
40
0.0
41
0.0
42
0.0
10
38.9500669999847
20
255.240271737619
40
0.0
41
0.0
42
0.0
10
40.8513502572496
20
255.934830198825
40
0.0
41
0.0
42
0.0
10
42.1672691971813
20
256.423980382442
40
0.0
41
0.0
42
0.0
10
42.5461955279444
20
256.748645795327
40
0.0
41
0.0
42
0.0
10
41.6365009577033
20
256.949749944341
40
0.0
41
0.0
42
0.0
10
39.0865571946224
20
257.068216336344
40
0.0
41
0.0
42
0.0
10
34.5447359468662
20
257.144968478196
40
0.0
41
0.0
42
0.0
10
53.3946340158853
20
256.913181192432
40
0.0
41
0.0
42
0.0
10
56.8728227809081
20
256.827860471745
40
0.0
41
0.0
42
0.0
10
59.855261860283
20
256.681227909796
40
0.0
41
0.0
42
0.0
10
62.3653918770535
20
256.499537334381
40
0.0
41
0.0
42
0.0
10
64.4266534542637
20
256.309042573299
40
0.0
41
0.0
42
0.0
10
66.0624872149574
20
256.135997454346
40
0.0
41
0.0
42
0.0
10
67.2963337821783
20
256.006655805319
40
0.0
41
0.0
42
0.0
10
68.1516337789703
20
255.947271454016
40
0.0
41
0.0
42
0.0
10
68.6518278283773
20
255.984098228234
40
0.0
41
0.0
42
0.0
10
68.820356553443
20
256.14338995577
40
0.0
41
0.0
42
0.0
10
68.6806605772113
20
256.451400464422
40
0.0
41
0.0
42
0.0
10
69.6339765300972
20
255.147663213949
40
0.0
41
0.0
42
0.0
10
70.7420598161189
20
254.693030450546
40
0.0
41
0.0
42
0.0
10
73.0068483800576
20
254.325738817083
40
0.0
41
0.0
42
0.0
10
75.9398454471611
20
254.035407963872
40
0.0
41
0.0
42
0.0
10
79.0525542426771
20
253.811657541223
40
0.0
41
0.0
42
0.0
10
81.8564779918536
20
253.644107199448
40
0.0
41
0.0
42
0.0
10
83.8631199199383
20
253.522376588856
40
0.0
41
0.0
42
0.0
10
84.5839832521789
20
253.436085359759
40
0.0
41
0.0
42
0.0
10
83.5305712138234
20
253.374853162468
40
0.0
41
0.0
42
0.0
10
80.2143870301196
20
253.328299647293
40
0.0
41
0.0
42
0.0
10
74.1469339263151
20
253.286044464545
40
0.0
41
0.0
42
0.0
10
99.5
20
253.431264908203
40
0.0
41
0.0
42
0.0
10
102.413485277731
20
253.498315245476
40
0.0
41
0.0
42
0.0
10
104.906161287913
20
253.642374611749
40
0.0
41
0.0
42
0.0
10
106.994752067366
20
253.831581547676
40
0.0
41
0.0
42
0.0
10
108.695981652906
20
254.034074593913
40
0.0
41
0.0
42
0.0
10
110.026574081354
20
254.217992291115
40
0.0
41
0.0
42
0.0
10
111.003253389525
20
254.351473179936
40
0.0
41
0.0
42
0.0
10
111.64274361424
20
254.402655801031
40
0.0
41
0.0
42
0.0
10
111.961768792315
20
254.339678695057
40
0.0
41
0.0
42
0.0
10
111.97705296057
20
254.130680402666
40
0.0
41
0.0
42
0.0
10
111.705320155822
20
253.743799464515
40
0.0
41
0.0
42
0.0
10
113.070875530189
20
255.365275289447
40
0.0
41
0.0
42
0.0
10
113.862604946721
20
255.819748598815
40
0.0
41
0.0
42
0.0
10
115.209455256128
20
256.171083062675
40
0.0
41
0.0
42
0.0
10
116.860939525854
20
256.435309551764
40
0.0
41
0.0
42
0.0
10
118.56657082334
20
256.628458936818
40
0.0
41
0.0
42
0.0
10
120.075862216032
20
256.766562088572
40
0.0
41
0.0
42
0.0
10
121.138326771371
20
256.865649877763
40
0.0
41
0.0
42
0.0
10
121.503477556802
20
256.941753175126
40
0.0
41
0.0
42
0.0
10
120.920827639767
20
257.010902851398
40
0.0
41
0.0
42
0.0
10
119.13989008771
20
257.089129777315
40
0.0
41
0.0
42
0.0
10
115.910177968073
20
257.192464823612
40
0.0
41
0.0
42
0.0
10
129.368828126779
20
256.788355723391
40
0.0
41
0.0
42
0.0
10
131.762183620972
20
256.737461958465
40
0.0
41
0.0
42
0.0
10
134.056968910874
20
256.723674212158
40
0.0
41
0.0
42
0.0
10
136.215165355333
20
256.736446353702
40
0.0
41
0.0
42
0.0
10
138.198754313201
20
256.765232252328
40
0.0
41
0.0
42
0.0
10
139.969717143328
20
256.799485777268
40
0.0
41
0.0
42
0.0
10
141.490035204564
20
256.828660797755
40
0.0
41
0.0
42
0.0
10
142.721689855759
20
256.842211183019
40
0.0
41
0.0
42
0.0
10
143.626662455763
20
256.829590802292
40
0.0
41
0.0
42
0.0
10
144.166934363427
20
256.780253524806
40
0.0
41
0.0
42
0.0
10
144.304486937601
20
256.683653219794
40
0.0
41
0.0
42
0.0
10
144.559420180782
20
257.096143872124
40
0.0
41
0.0
42
0.0
10
144.716382593342
20
257.235396580427
40
0.0
41
0.0
42
0.0
10
145.003177933489
20
257.397915141092
40
0.0
41
0.0
42
0.0
10
145.373108273787
20
257.572081794846
40
0.0
41
0.0
42
0.0
10
145.779475686801
20
257.746278782417
40
0.0
41
0.0
42
0.0
10
146.175582245094
20
257.908888344535
40
0.0
41
0.0
42
0.0
10
146.514730021231
20
258.048292721926
40
0.0
41
0.0
42
0.0
10
146.750221087775
20
258.15287415532
40
0.0
41
0.0
42
0.0
10
146.835357517292
20
258.211014885444
40
0.0
41
0.0
42
0.0
10
146.723441382345
20
258.211097153027
40
0.0
41
0.0
42
0.0
10
146.367774755499
20
258.141503198797
40
0.0
41
0.0
42
0.0
10
148.011467584193
20
258.502518703999
40
0.0
41
0.0
42
0.0
10
148.494563849208
20
258.633352460498
40
0.0
41
0.0
42
0.0
10
148.953453001655
20
258.799136925343
40
0.0
41
0.0
42
0.0
10
149.381859123461
20
258.984710846233
40
0.0
41
0.0
42
0.0
10
149.773506296553
20
259.174912970873
40
0.0
41
0.0
42
0.0
10
150.122118602857
20
259.354582046962
40
0.0
41
0.0
42
0.0
10
150.4214201243
20
259.508556822202
40
0.0
41
0.0
42
0.0
10
150.665134942809
20
259.621676044295
40
0.0
41
0.0
42
0.0
10
150.846987140311
20
259.678778460943
40
0.0
41
0.0
42
0.0
10
150.960700798732
20
259.664702819847
40
0.0
41
0.0
42
0.0
10
151.0
20
259.564287868709
40
0.0
41
0.0
42
0.0
10
151.0
20
260.059749058461
40
0.0
41
0.0
42
0.0
10
151.108691997921
20
260.19490036759
40
0.0
41
0.0
42
0.0
10
151.394379708302
20
260.305706616114
40
0.0
41
0.0
42
0.0
10
151.796480706074
20
260.39611135652
40
0.0
41
0.0
42
0.0
10
152.254412566166
20
260.470058141292
40
0.0
41
0.0
42
0.0
10
152.707592863507
20
260.531490522917
40
0.0
41
0.0
42
0.0
10
153.095439173027
20
260.58435205388
40
0.0
41
0.0
42
0.0
10
153.357369069655
20
260.632586286666
40
0.0
41
0.0
42
0.0
10
153.432800128322
20
260.68013677376
40
0.0
41
0.0
42
0.0
10
153.261149923955
20
260.73094706765
40
0.0
41
0.0
42
0.0
10
152.781836031485
20
260.788960720819
40
0.0
41
0.0
42
0.0
10
154.959635625523
20
260.579194553138
40
0.0
41
0.0
42
0.0
10
155.724340970028
20
260.546600973807
40
0.0
41
0.0
42
0.0
10
156.468804878612
20
260.582189890055
40
0.0
41
0.0
42
0.0
10
157.17328571194
20
260.664023018381
40
0.0
41
0.0
42
0.0
10
157.818041830678
20
260.770162075286
40
0.0
41
0.0
42
0.0
10
158.383331595491
20
260.878668777268
40
0.0
41
0.0
42
0.0
10
158.849413367044
20
260.967604840826
40
0.0
41
0.0
42
0.0
10
159.196545506004
20
261.015031982461
40
0.0
41
0.0
42
0.0
10
159.404986373036
20
260.999011918671
40
0.0
41
0.0
42
0.0
10
159.454994328804
20
260.897606365956
40
0.0
41
0.0
42
0.0
10
159.326827733976
20
260.688877040815
40
0.0
41
0.0
42
0.0
10
160.072942455883
20
261.587890282551
40
0.0
41
0.0
42
0.0
10
160.289595310248
20
261.793957048956
40
0.0
41
0.0
42
0.0
10
160.546019533986
20
261.958408673408
40
0.0
41
0.0
42
0.0
10
160.822980864463
20
262.088716080728
40
0.0
41
0.0
42
0.0
10
161.101245039042
20
262.192350195743
40
0.0
41
0.0
42
0.0
10
161.361577795086
20
262.276781943275
40
0.0
41
0.0
42
0.0
10
161.584744869959
20
262.349482248149
40
0.0
41
0.0
42
0.0
10
161.751512001026
20
262.417922035189
40
0.0
41
0.0
42
0.0
10
161.842644925649
20
262.489572229218
40
0.0
41
0.0
42
0.0
10
161.838909381192
20
262.571903755062
40
0.0
41
0.0
42
0.0
10
161.721071105019
20
262.672387537543
40
0.0
41
0.0
42
0.0
10
162.325407981384
20
262.298886807294
40
0.0
41
0.0
42
0.0
10
163.101738023119
20
262.032954709259
40
0.0
41
0.0
42
0.0
10
164.121548427175
20
261.970218535307
40
0.0
41
0.0
42
0.0
10
165.295549542223
20
262.054776157456
40
0.0
41
0.0
42
0.0
10
166.534451716938
20
262.23072544772
40
0.0
41
0.0
42
0.0
10
167.748965299992
20
262.442164278116
40
0.0
41
0.0
42
0.0
10
168.849800640059
20
262.63319052066
40
0.0
41
0.0
42
0.0
10
169.74766808581
20
262.747902047369
40
0.0
41
0.0
42
0.0
10
170.35327798592
20
262.730396730257
40
0.0
41
0.0
42
0.0
10
170.577340689061
20
262.524772441341
40
0.0
41
0.0
42
0.0
10
170.330566543906
20
262.075127052638
40
0.0
41
0.0
42
0.0
10
172.037085831947
20
264.0427603235
40
0.0
41
0.0
42
0.0
10
172.356305251804
20
264.359148117206
40
0.0
41
0.0
42
0.0
10
172.734756776937
20
264.659682269533
40
0.0
41
0.0
42
0.0
10
173.143895266551
20
264.940252577159
40
0.0
41
0.0
42
0.0
10
173.555175579853
20
265.196748836764
40
0.0
41
0.0
42
0.0
10
173.940052576048
20
265.425060845028
40
0.0
41
0.0
42
0.0
10
174.269981114342
20
265.62107839863
40
0.0
41
0.0
42
0.0
10
174.516416053941
20
265.780691294248
40
0.0
41
0.0
42
0.0
10
174.650812254051
20
265.899789328563
40
0.0
41
0.0
42
0.0
10
174.644624573878
20
265.974262298254
40
0.0
41
0.0
42
0.0
10
174.469307872627
20
266.0
40
0.0
41
0.0
42
0.0
10
175.367295401695
20
266.0
40
0.0
41
0.0
42
0.0
10
175.631222100011
20
266.038605141565
40
0.0
41
0.0
42
0.0
10
175.881923891081
20
266.140075486335
40
0.0
41
0.0
42
0.0
10
176.115972095248
20
266.282893414421
40
0.0
41
0.0
42
0.0
10
176.329938032856
20
266.445541305933
40
0.0
41
0.0
42
0.0
10
176.520393024248
20
266.606501540984
40
0.0
41
0.0
42
0.0
10
176.683908389768
20
266.744256499684
40
0.0
41
0.0
42
0.0
10
176.81705544976
20
266.837288562144
40
0.0
41
0.0
42
0.0
10
176.916405524567
20
266.864080108476
40
0.0
41
0.0
42
0.0
10
176.978529934532
20
266.803113518791
40
0.0
41
0.0
42
0.0
10
177.0
20
266.632871173201
40
0.0
41
0.0
42
0.0
10
177.0
20
267.40638038489
40
0.0
41
0.0
42
0.0
10
177.057126048079
20
267.657829329523
40
0.0
41
0.0
42
0.0
10
177.206233235915
20
267.857443157651
40
0.0
41
0.0
42
0.0
10
177.413915128909
20
268.013896771768
40
0.0
41
0.0
42
0.0
10
177.646765292463
20
268.135865074371
40
0.0
41
0.0
42
0.0
10
177.871377291975
20
268.232022967957
40
0.0
41
0.0
42
0.0
10
178.054344692846
20
268.311045355019
40
0.0
41
0.0
42
0.0
10
178.162261060478
20
268.381607138055
40
0.0
41
0.0
42
0.0
10
178.161719960271
20
268.45238321956
40
0.0
41
0.0
42
0.0
10
178.019314957624
20
268.532048502029
40
0.0
41
0.0
42
0.0
10
177.701639617939
20
268.629277887959
40
0.0
41
0.0
42
0.0
10
179.089792905953
20
268.266267648541
40
0.0
41
0.0
42
0.0
10
179.575941234681
20
268.046718333434
40
0.0
41
0.0
42
0.0
10
179.920831884048
20
267.718883253835
40
0.0
41
0.0
42
0.0
10
180.15341378121
20
267.334609892964
40
0.0
41
0.0
42
0.0
10
180.302635853325
20
266.945745734041
40
0.0
41
0.0
42
0.0
10
180.397447027548
20
266.604138260285
40
0.0
41
0.0
42
0.0
10
180.466796231035
20
266.361634954917
40
0.0
41
0.0
42
0.0
10
180.539632390943
20
266.270083301155
40
0.0
41
0.0
42
0.0
10
180.644904434427
20
266.381330782221
40
0.0
41
0.0
42
0.0
10
180.811561288645
20
266.747224881333
40
0.0
41
0.0
42
0.0
10
181.068551880752
20
267.419613081711
40
0.0
41
0.0
42
0.0
10
180.029194869295
20
264.609887263651
40
0.0
41
0.0
42
0.0
10
179.646130396676
20
263.332380314469
40
0.0
41
0.0
42
0.0
10
179.417180848798
20
262.079692327458
40
0.0
41
0.0
42
0.0
10
179.303536663606
20
260.885072117505
40
0.0
41
0.0
42
0.0
10
179.26638827904
20
259.781768499497
40
0.0
41
0.0
42
0.0
10
179.266926133045
20
258.803030288322
40
0.0
41
0.0
42
0.0
10
179.266340663562
20
257.982106298867
40
0.0
41
0.0
42
0.0
10
179.225822308535
20
257.35224534602
40
0.0
41
0.0
42
0.0
10
179.106561505906
20
256.946696244667
40
0.0
41
0.0
42
0.0
10
178.869748693616
20
256.798707809697
40
0.0
41
0.0
42
0.0
10
178.47657430961
20
256.941528855996
40
0.0
41
0.0
42
0.0
10
180.090879944778
20
255.943833105231
40
0.0
41
0.0
42
0.0
10
180.362801226376
20
255.663500216605
40
0.0
41
0.0
42
0.0
10
180.534719259033
20
255.266916763923
40
0.0
41
0.0
42
0.0
10
180.630842133231
20
254.808866251141
40
0.0
41
0.0
42
0.0
10
180.675377939451
20
254.344132182213
40
0.0
41
0.0
42
0.0
10
180.692534768173
20
253.927498061096
40
0.0
41
0.0
42
0.0
10
180.70652070988
20
253.613747391743
40
0.0
41
0.0
42
0.0
10
180.74154385505
20
253.457663678111
40
0.0
41
0.0
42
0.0
10
180.821812294167
20
253.514030424154
40
0.0
41
0.0
42
0.0
10
180.97153411771
20
253.837631133828
40
0.0
41
0.0
42
0.0
10
181.214917416161
20
254.483249311088
40
0.0
41
0.0
42
0.0
10
180.220639418168
20
251.733622380962
40
0.0
41
0.0
42
0.0
10
180.023323056221
20
251.050740283368
40
0.0
41
0.0
42
0.0
10
179.835893873561
20
250.171760297945
40
0.0
41
0.0
42
0.0
10
179.660915212967
20
249.180250821828
40
0.0
41
0.0
42
0.0
10
179.500950417216
20
248.159780252149
40
0.0
41
0.0
42
0.0
10
179.358562829087
20
247.193916986045
40
0.0
41
0.0
42
0.0
10
179.236315791357
20
246.366229420649
40
0.0
41
0.0
42
0.0
10
179.136772646806
20
245.760285953095
40
0.0
41
0.0
42
0.0
10
179.06249673821
20
245.459654980518
40
0.0
41
0.0
42
0.0
10
179.016051408349
20
245.547904900051
40
0.0
41
0.0
42
0.0
10
179.0
20
246.108604108829
40
0.0
41
0.0
42
0.0
10
179.0
20
243.359337489566
40
0.0
41
0.0
42
0.0
10
178.931838611484
20
242.166329570767
40
0.0
41
0.0
42
0.0
10
178.755621624935
20
241.056574614676
40
0.0
41
0.0
42
0.0
10
178.513749808856
20
240.053310303697
40
0.0
41
0.0
42
0.0
10
178.248623931748
20
239.17977432023
40
0.0
41
0.0
42
0.0
10
178.002644762112
20
238.45920434668
40
0.0
41
0.0
42
0.0
10
177.81821306845
20
237.914838065447
40
0.0
41
0.0
42
0.0
10
177.737729619263
20
237.569913158934
40
0.0
41
0.0
42
0.0
10
177.803595183052
20
237.447667309544
40
0.0
41
0.0
42
0.0
10
178.058210528319
20
237.571338199678
40
0.0
41
0.0
42
0.0
10
178.543976423564
20
237.964163511739
40
0.0
41
0.0
42
0.0
10
176.492393891112
20
236.180335454544
40
0.0
41
0.0
42
0.0
10
176.052935651299
20
235.813892981844
40
0.0
41
0.0
42
0.0
10
175.578254014035
20
235.442327666495
40
0.0
41
0.0
42
0.0
10
175.092623578684
20
235.078016612626
40
0.0
41
0.0
42
0.0
10
174.620318944607
20
234.733336924365
40
0.0
41
0.0
42
0.0
10
174.185614711167
20
234.420665705839
40
0.0
41
0.0
42
0.0
10
173.812785477728
20
234.152380061176
40
0.0
41
0.0
42
0.0
10
173.526105843651
20
233.940857094505
40
0.0
41
0.0
42
0.0
10
173.349850408299
20
233.798473909954
40
0.0
41
0.0
42
0.0
10
173.308293771036
20
233.73760761165
40
0.0
41
0.0
42
0.0
10
173.425710531223
20
233.770635303722
40
0.0
41
0.0
42
0.0
10
172.742393891112
20
233.490300674937
40
0.0
41
0.0
42
0.0
10
171.90858414186
20
232.856417041304
40
0.0
41
0.0
42
0.0
10
170.567049706143
20
231.527021263509
40
0.0
41
0.0
42
0.0
10
168.876372529151
20
229.711774795689
40
0.0
41
0.0
42
0.0
10
166.995134556075
20
227.62033909198
40
0.0
41
0.0
42
0.0
10
165.081917732107
20
225.462375606521
40
0.0
41
0.0
42
0.0
10
163.295304002438
20
223.447545793448
40
0.0
41
0.0
42
0.0
10
161.793875312258
20
221.785511106899
40
0.0
41
0.0
42
0.0
10
160.73621360676
20
220.685933001011
40
0.0
41
0.0
42
0.0
10
160.280900831133
20
220.35847292992
40
0.0
41
0.0
42
0.0
10
160.58651893057
20
221.012792347765
40
0.0
41
0.0
42
0.0
10
158.123371646018
20
216.962471302126
40
0.0
41
0.0
42
0.0
10
157.812710985414
20
216.393389654308
40
0.0
41
0.0
42
0.0
10
157.562155946856
20
215.828371201871
40
0.0
41
0.0
42
0.0
10
157.361362925079
20
215.282971800406
40
0.0
41
0.0
42
0.0
10
157.199988314816
20
214.772747305507
40
0.0
41
0.0
42
0.0
10
157.067688510803
20
214.313253572764
40
0.0
41
0.0
42
0.0
10
156.954119907775
20
213.92004645777
40
0.0
41
0.0
42
0.0
10
156.848938900466
20
213.608681816117
40
0.0
41
0.0
42
0.0
10
156.741801883612
20
213.394715503397
40
0.0
41
0.0
42
0.0
10
156.622365251946
20
213.293703375202
40
0.0
41
0.0
42
0.0
10
156.480285400204
20
213.321201287123
40
0.0
41
0.0
42
0.0
10
157.003116500877
20
212.998073896532
40
0.0
41
0.0
42
0.0
10
157.35067151624
20
212.398788682016
40
0.0
41
0.0
42
0.0
10
157.268714006089
20
211.426812954651
40
0.0
41
0.0
42
0.0
10
156.878233513942
20
210.203608492131
40
0.0
41
0.0
42
0.0
10
156.300219583321
20
208.850637072147
40
0.0
41
0.0
42
0.0
10
155.655661757744
20
207.489360472391
40
0.0
41
0.0
42
0.0
10
155.065549580731
20
206.241240470554
40
0.0
41
0.0
42
0.0
10
154.650872595803
20
205.227738844329
40
0.0
41
0.0
42
0.0
10
154.532620346478
20
204.570317371408
40
0.0
41
0.0
42
0.0
10
154.831782376277
20
204.390437829481
40
0.0
41
0.0
42
0.0
10
155.66934822872
20
204.809561996241
40
0.0
41
0.0
42
0.0
10
151.845689523372
20
202.279184395126
40
0.0
41
0.0
42
0.0
10
150.85388172471
20
201.446246054047
40
0.0
41
0.0
42
0.0
10
150.017754431025
20
200.440312305957
40
0.0
41
0.0
42
0.0
10
149.330115381923
20
199.372366691658
40
0.0
41
0.0
42
0.0
10
148.78377231701
20
198.353392751948
40
0.0
41
0.0
42
0.0
10
148.371532975892
20
197.494374027627
40
0.0
41
0.0
42
0.0
10
148.086205098173
20
196.906294059497
40
0.0
41
0.0
42
0.0
10
147.92059642346
20
196.700136388356
40
0.0
41
0.0
42
0.0
10
147.867514691358
20
196.986884555004
40
0.0
41
0.0
42
0.0
10
147.919767641474
20
197.877522100242
40
0.0
41
0.0
42
0.0
10
148.070163013412
20
199.483032564869
40
0.0
41
0.0
42
0.0
10
147.413265804352
20
192.81656110513
40
0.0
41
0.0
42
0.0
10
147.269293482051
20
191.672076510677
40
0.0
41
0.0
42
0.0
10
147.078227395871
20
190.565145732456
40
0.0
41
0.0
42
0.0
10
146.85957711375
20
189.517159328045
40
0.0
41
0.0
42
0.0
10
146.632852203624
20
188.549507855025
40
0.0
41
0.0
42
0.0
10
146.417562233427
20
187.683581870977
40
0.0
41
0.0
42
0.0
10
146.233216771098
20
186.940771933479
40
0.0
41
0.0
42
0.0
10
146.099325384572
20
186.342468600113
40
0.0
41
0.0
42
0.0
10
146.035397641785
20
185.910062428457
40
0.0
41
0.0
42
0.0
10
146.060943110673
20
185.664943976092
40
0.0
41
0.0
42
0.0
10
146.195471359173
20
185.628503800599
40
0.0
41
0.0
42
0.0
10
145.543728600446
20
185.378406637926
40
0.0
41
0.0
42
0.0
10
145.321149620642
20
185.056860151845
40
0.0
41
0.0
42
0.0
10
145.146001439954
20
184.374756022173
40
0.0
41
0.0
42
0.0
10
145.010305241676
20
183.469299418775
40
0.0
41
0.0
42
0.0
10
144.9060822091
20
182.477695511515
40
0.0
41
0.0
42
0.0
10
144.825353525517
20
181.537149470258
40
0.0
41
0.0
42
0.0
10
144.760140374221
20
180.784866464868
40
0.0
41
0.0
42
0.0
10
144.702463938503
20
180.358051665211
40
0.0
41
0.0
42
0.0
10
144.644345401655
20
180.39391024115
40
0.0
41
0.0
42
0.0
10
144.577805946971
20
181.029647362551
40
0.0
41
0.0
42
0.0
10
144.494866757742
20
182.402468199278
40
0.0
41
0.0
42
0.0
10
144.807528964645
20
176.445475695907
40
0.0
41
0.0
42
0.0
10
144.871633676998
20
174.465320581621
40
0.0
41
0.0
42
0.0
10
144.854160905701
20
172.840840964715
40
0.0
41
0.0
42
0.0
10
144.782238971142
20
171.533710087374
40
0.0
41
0.0
42
0.0
10
144.682996193707
20
170.505601191785
40
0.0
41
0.0
42
0.0
10
144.583560893784
20
169.718187520133
40
0.0
41
0.0
42
0.0
10
144.511061391759
20
169.133142314605
40
0.0
41
0.0
42
0.0
10
144.492626008019
20
168.712138817387
40
0.0
41
0.0
42
0.0
10
144.555383062952
20
168.416850270664
40
0.0
41
0.0
42
0.0
10
144.726460876943
20
168.208949916622
40
0.0
41
0.0
42
0.0
10
145.032987770381
20
168.050110997449
40
0.0
41
0.0
42
0.0
10
143.755340414971
20
168.540390289708
40
0.0
41
0.0
42
0.0
10
143.248282997773
20
168.603616613569
40
0.0
41
0.0
42
0.0
10
142.84131061754
20
168.408356702824
40
0.0
41
0.0
42
0.0
10
142.512661261898
20
168.026891013174
40
0.0
41
0.0
42
0.0
10
142.240572918472
20
167.531500000319
40
0.0
41
0.0
42
0.0
10
142.003283574884
20
166.994464119961
40
0.0
41
0.0
42
0.0
10
141.77903121876
20
166.4880638278
40
0.0
41
0.0
42
0.0
10
141.546053837724
20
166.084579579539
40
0.0
41
0.0
42
0.0
10
141.282589419401
20
165.856291830876
40
0.0
41
0.0
42
0.0
10
140.966875951414
20
165.875481037514
40
0.0
41
0.0
42
0.0
10
140.577151421389
20
166.214427655154
40
0.0
41
0.0
42
0.0
10
142.023764971956
20
164.471364960574
40
0.0
41
0.0
42
0.0
10
142.262983071364
20
164.248134594931
40
0.0
41
0.0
42
0.0
10
142.604603365488
20
164.007380103468
40
0.0
41
0.0
42
0.0
10
143.008419030625
20
163.76131276852
40
0.0
41
0.0
42
0.0
10
143.434223243077
20
163.522143872425
40
0.0
41
0.0
42
0.0
10
143.841809179141
20
163.302084697519
40
0.0
41
0.0
42
0.0
10
144.190970015118
20
163.113346526137
40
0.0
41
0.0
42
0.0
10
144.441498927307
20
162.968140640615
40
0.0
41
0.0
42
0.0
10
144.553189092007
20
162.878678323291
40
0.0
41
0.0
42
0.0
10
144.485833685518
20
162.857170856501
40
0.0
41
0.0
42
0.0
10
144.199225884138
20
162.91582952258
40
0.0
41
0.0
42
0.0
10
145.564680128776
20
162.573122322716
40
0.0
41
0.0
42
0.0
10
146.142890466432
20
162.291707907307
40
0.0
41
0.0
42
0.0
10
146.76364299621
20
161.781625681764
40
0.0
41
0.0
42
0.0
10
147.389066057485
20
161.134273804201
40
0.0
41
0.0
42
0.0
10
147.981287989636
20
160.441050432735
40
0.0
41
0.0
42
0.0
10
148.502437132038
20
159.793353725481
40
0.0
41
0.0
42
0.0
10
148.914641824068
20
159.282581840555
40
0.0
41
0.0
42
0.0
10
149.180030405102
20
159.000132936071
40
0.0
41
0.0
42
0.0
10
149.260731214516
20
159.037405170146
40
0.0
41
0.0
42
0.0
10
149.118872591688
20
159.485796700895
40
0.0
41
0.0
42
0.0
10
148.716582875993
20
160.436705686433
40
0.0
41
0.0
42
0.0
10
150.533680039336
20
156.32792646764
40
0.0
41
0.0
42
0.0
10
150.961275980172
20
155.375115239173
40
0.0
41
0.0
42
0.0
10
151.410544478473
20
154.396192551149
40
0.0
41
0.0
42
0.0
10
151.861952683483
20
153.427489431248
40
0.0
41
0.0
42
0.0
10
152.295967744442
20
152.50533690715
40
0.0
41
0.0
42
0.0
10
152.693056810595
20
151.666066006537
40
0.0
41
0.0
42
0.0
10
153.033687031182
20
150.946007757088
40
0.0
41
0.0
42
0.0
10
153.298325555447
20
150.381493186484
40
0.0
41
0.0
42
0.0
10
153.467439532632
20
150.008853322405
40
0.0
41
0.0
42
0.0
10
153.521496111979
20
149.864419192532
40
0.0
41
0.0
42
0.0
10
153.44096244273
20
149.984521824545
40
0.0
41
0.0
42
0.0
10
153.955428255392
20
149.102917306158
40
0.0
41
0.0
42
0.0
10
154.174722979949
20
148.717564703513
40
0.0
41
0.0
42
0.0
10
154.497317455058
20
148.139622922353
40
0.0
41
0.0
42
0.0
10
154.88329636427
20
147.442821936292
40
0.0
41
0.0
42
0.0
10
155.292744391136
20
146.700891718945
40
0.0
41
0.0
42
0.0
10
155.685746219207
20
145.987562243926
40
0.0
41
0.0
42
0.0
10
156.022386532036
20
145.37656348485
40
0.0
41
0.0
42
0.0
10
156.262750013174
20
144.94162541533
40
0.0
41
0.0
42
0.0
10
156.366921346171
20
144.756478008981
40
0.0
41
0.0
42
0.0
10
156.294985214579
20
144.894851239417
40
0.0
41
0.0
42
0.0
10
156.007026301951
20
145.430475080253
40
0.0
41
0.0
42
0.0
10
157.371277664052
20
142.901055733896
40
0.0
41
0.0
42
0.0
10
158.261167298679
20
141.350977202541
40
0.0
41
0.0
42
0.0
10
159.287881522456
20
139.712105824112
40
0.0
41
0.0
42
0.0
10
160.391065164249
20
138.044157945372
40
0.0
41
0.0
42
0.0
10
161.510363052919
20
136.406849913086
40
0.0
41
0.0
42
0.0
10
162.585420017331
20
134.859898074019
40
0.0
41
0.0
42
0.0
10
163.555880886347
20
133.463018774936
40
0.0
41
0.0
42
0.0
10
164.36139048883
20
132.275928362601
40
0.0
41
0.0
42
0.0
10
164.941593653645
20
131.358343183779
40
0.0
41
0.0
42
0.0
10
165.236135209653
20
130.769979585235
40
0.0
41
0.0
42
0.0
10
165.184659985719
20
130.570553913733
40
0.0
41
0.0
42
0.0
10
166.0
20
130.520724777264
40
0.0
41
0.0
42
0.0
10
166.103663962957
20
130.451967614177
40
0.0
41
0.0
42
0.0
10
166.24046924264
20
130.279536441716
40
0.0
41
0.0
42
0.0
10
166.396635925272
20
130.039065884437
40
0.0
41
0.0
42
0.0
10
166.558384097073
20
129.766190566898
40
0.0
41
0.0
42
0.0
10
166.711933844264
20
129.496545113657
40
0.0
41
0.0
42
0.0
10
166.843505253066
20
129.26576414927
40
0.0
41
0.0
42
0.0
10
166.939318409699
20
129.109482298295
40
0.0
41
0.0
42
0.0
10
166.985593400385
20
129.063334185291
40
0.0
41
0.0
42
0.0
10
166.968550311344
20
129.162954434814
40
0.0
41
0.0
42
0.0
10
166.874409228797
20
129.443977671421
40
0.0
41
0.0
42
0.0
10
167.332020508438
20
128.165301210302
40
0.0
41
0.0
42
0.0
10
167.458181686222
20
127.639856833394
40
0.0
41
0.0
42
0.0
10
167.482226521875
20
127.123751821053
40
0.0
41
0.0
42
0.0
10
167.435139220017
20
126.635169982827
40
0.0
41
0.0
42
0.0
10
167.347903985267
20
126.192295128261
40
0.0
41
0.0
42
0.0
10
167.251505022243
20
125.813311066902
40
0.0
41
0.0
42
0.0
10
167.176926535564
20
125.516401608297
40
0.0
41
0.0
42
0.0
10
167.155152729849
20
125.319750561991
40
0.0
41
0.0
42
0.0
10
167.217167809715
20
125.241541737531
40
0.0
41
0.0
42
0.0
10
167.393955979783
20
125.299958944464
40
0.0
41
0.0
42
0.0
10
167.71650144467
20
125.513185992336
40
0.0
41
0.0
42
0.0
10
166.363994176326
20
124.524208531703
40
0.0
41
0.0
42
0.0
10
165.974661141
20
124.054673481507
40
0.0
41
0.0
42
0.0
10
165.439744943344
20
123.177676464071
40
0.0
41
0.0
42
0.0
10
164.817846759768
20
122.039097618221
40
0.0
41
0.0
42
0.0
10
164.167567766682
20
120.784817082786
40
0.0
41
0.0
42
0.0
10
163.547509140495
20
119.560714996592
40
0.0
41
0.0
42
0.0
10
163.016272057618
20
118.512671498465
40
0.0
41
0.0
42
0.0
10
162.63245769446
20
117.786566727235
40
0.0
41
0.0
42
0.0
10
162.454667227432
20
117.528280821726
40
0.0
41
0.0
42
0.0
10
162.541501832942
20
117.883693920768
40
0.0
41
0.0
42
0.0
10
162.951562687401
20
118.998686163186
40
0.0
41
0.0
42
0.0
10
160.980870339389
20
113.853991073023
40
0.0
41
0.0
42
0.0
10
160.084601775807
20
111.685223179308
40
0.0
41
0.0
42
0.0
10
159.189802564988
20
109.791318697833
40
0.0
41
0.0
42
0.0
10
158.33638018022
20
108.16990130717
40
0.0
41
0.0
42
0.0
10
157.564242094794
20
106.81859468589
40
0.0
41
0.0
42
0.0
10
156.913295781998
20
105.735022512564
40
0.0
41
0.0
42
0.0
10
156.423448715122
20
104.916808465765
40
0.0
41
0.0
42
0.0
10
156.134608367454
20
104.361576224063
40
0.0
41
0.0
42
0.0
10
156.086682212284
20
104.06694946603
40
0.0
41
0.0
42
0.0
10
156.319577722901
20
104.030551870238
40
0.0
41
0.0
42
0.0
10
156.873202372594
20
104.250007115258
40
0.0
41
0.0
42
0.0
10
154.448896671502
20
103.094708587648
40
0.0
41
0.0
42
0.0
10
153.976782524553
20
102.85808098011
40
0.0
41
0.0
42
0.0
10
153.536004440644
20
102.617427759144
40
0.0
41
0.0
42
0.0
10
153.130205102785
20
102.380974078108
40
0.0
41
0.0
42
0.0
10
152.763027193984
20
102.156945090358
40
0.0
41
0.0
42
0.0
10
152.438113397254
20
101.953565949251
40
0.0
41
0.0
42
0.0
10
152.159106395603
20
101.779061808143
40
0.0
41
0.0
42
0.0
10
151.929648872042
20
101.641657820393
40
0.0
41
0.0
42
0.0
10
151.753383509581
20
101.549579139357
40
0.0
41
0.0
42
0.0
10
151.63395299123
20
101.511050918391
40
0.0
41
0.0
42
0.0
10
151.575
20
101.534298310854
40
0.0
41
0.0
42
0.0
10
151.666666666667
20
101.344708587648
40
0.0
41
0.0
42
0.0
10
151.646525508639
20
101.288986444454
40
0.0
41
0.0
42
0.0
10
151.548363958486
20
101.236056440821
40
0.0
41
0.0
42
0.0
10
151.398074902103
20
101.186642464782
40
0.0
41
0.0
42
0.0
10
151.221551225385
20
101.141468404371
40
0.0
41
0.0
42
0.0
10
151.044685814228
20
101.101258147621
40
0.0
41
0.0
42
0.0
10
150.893371554526
20
101.066735582569
40
0.0
41
0.0
42
0.0
10
150.793501332175
20
101.038624597246
40
0.0
41
0.0
42
0.0
10
150.77096803307
20
101.017649079688
40
0.0
41
0.0
42
0.0
10
150.851664543107
20
101.004532917928
40
0.0
41
0.0
42
0.0
10
151.06148374818
20
101.0
40
0.0
41
0.0
42
0.0
10
150.118112032992
20
101.0
40
0.0
41
0.0
42
0.0
10
149.372564807573
20
100.745063633392
40
0.0
41
0.0
42
0.0
10
148.335374908383
20
100.060479076413
40
0.0
41
0.0
42
0.0
10
147.093719673263
20
99.066583143336
40
0.0
41
0.0
42
0.0
10
145.734776440054
20
97.8837126484303
40
0.0
41
0.0
42
0.0
10
144.345722546596
20
96.6322044059671
40
0.0
41
0.0
42
0.0
10
143.01373533073
20
95.4323952302169
40
0.0
41
0.0
42
0.0
10
141.825992130297
20
94.4046219354506
40
0.0
41
0.0
42
0.0
10
140.869670283137
20
93.6692213359389
40
0.0
41
0.0
42
0.0
10
140.231947127091
20
93.3465302459524
40
0.0
41
0.0
42
0.0
10
140.0
20
93.556885479762
40
0.0
41
0.0
42
0.0
10
140.0
20
91.8335832559916
40
0.0
41
0.0
42
0.0
10
139.875227442924
20
91.5408412083128
40
0.0
41
0.0
42
0.0
10
139.547273344818
20
91.0677341678588
40
0.0
41
0.0
42
0.0
10
139.085683065363
20
90.4813193565428
40
0.0
41
0.0
42
0.0
10
138.560001964241
20
89.848653996278
40
0.0
41
0.0
42
0.0
10
138.039775401133
20
89.2367953089779
40
0.0
41
0.0
42
0.0
10
137.594548735721
20
88.7128005165557
40
0.0
41
0.0
42
0.0
10
137.293867327686
20
88.3437268409246
40
0.0
41
0.0
42
0.0
10
137.20727653671
20
88.1966315039981
40
0.0
41
0.0
42
0.0
10
137.404321722475
20
88.3385717276893
40
0.0
41
0.0
42
0.0
10
137.954548244661
20
88.8366047339117
40
0.0
41
0.0
42
0.0
10
135.454551654802
20
86.5084987179373
40
0.0
41
0.0
42
0.0
10
130.909103309604
20
82.2755786888929
40
0.0
41
0.0
42
0.0
10
130.909103309604
20
82.2755786888929
40
0.0
41
0.0
42
0.0
10
132.704551654802
20
78.1801154319082
40
0.0
41
0.0
42
0.0
10
132.704551654802
20
78.1801154319082
40
0.0
41
0.0
42
0.0
10
133.308306996627
20
77.0929541837334
40
0.0
41
0.0
42
0.0
10
134.006570657351
20
76.2418554791103
40
0.0
41
0.0
42
0.0
10
134.728941611507
20
75.5948034290829
40
0.0
41
0.0
42
0.0
10
135.405018833629
20
75.1197821446954
40
0.0
41
0.0
42
0.0
10
135.96440129825
20
74.7847757369917
40
0.0
41
0.0
42
0.0
10
136.336687979905
20
74.5577683170161
40
0.0
41
0.0
42
0.0
10
136.451477853128
20
74.4067439958125
40
0.0
41
0.0
42
0.0
10
136.238369892452
20
74.2996868844251
40
0.0
41
0.0
42
0.0
10
135.62696307241
20
74.2045810938979
40
0.0
41
0.0
42
0.0
10
134.546856367538
20
74.089410735275
40
0.0
41
0.0
42
0.0
10
139.006601886794
20
74.5423260874618
40
0.0
41
0.0
42
0.0
10
139.82375520818
20
74.6417367519003
40
0.0
41
0.0
42
0.0
10
140.748782189053
20
74.7788470750794
40
0.0
41
0.0
42
0.0
10
141.722801288448
20
74.9385231385005
40
0.0
41
0.0
42
0.0
10
142.686930965403
20
75.1056310236653
40
0.0
41
0.0
42
0.0
10
143.582289678952
20
75.2650368120752
40
0.0
41
0.0
42
0.0
10
144.349995888131
20
75.4016065852318
40
0.0
41
0.0
42
0.0
10
144.931168051977
20
75.5002064246367
40
0.0
41
0.0
42
0.0
10
145.266924629526
20
75.5457024117914
40
0.0
41
0.0
42
0.0
10
145.298384079814
20
75.5229606281975
40
0.0
41
0.0
42
0.0
10
144.966664861876
20
75.4168471553565
40
0.0
41
0.0
42
0.0
10
146.743117303116
20
75.9263270119033
40
0.0
41
0.0
42
0.0
10
147.337485698811
20
76.0663703876732
40
0.0
41
0.0
42
0.0
10
147.907888852967
20
76.1503537794563
40
0.0
41
0.0
42
0.0
10
148.442537753396
20
76.1923735899622
40
0.0
41
0.0
42
0.0
10
148.92964338791
20
76.2065262219004
40
0.0
41
0.0
42
0.0
10
149.357416744322
20
76.2069080779806
40
0.0
41
0.0
42
0.0
10
149.714068810444
20
76.2076155609125
40
0.0
41
0.0
42
0.0
10
149.987810574089
20
76.2227450734055
40
0.0
41
0.0
42
0.0
10
150.166853023067
20
76.2663930181693
40
0.0
41
0.0
42
0.0
10
150.239407145193
20
76.3526557979135
40
0.0
41
0.0
42
0.0
10
150.193683928277
20
76.4956298153477
40
0.0
41
0.0
42
0.0
10
150.556322452162
20
75.908868358073
40
0.0
41
0.0
42
0.0
10
150.86105827843
20
75.7668599881897
40
0.0
41
0.0
42
0.0
10
151.497823382439
20
75.6582682272204
40
0.0
41
0.0
42
0.0
10
152.348826047496
20
75.5764673108717
40
0.0
41
0.0
42
0.0
10
153.296274556912
20
75.5148314748503
40
0.0
41
0.0
42
0.0
10
154.222377193995
20
75.4667349548629
40
0.0
41
0.0
42
0.0
10
155.009342242054
20
75.4255519866161
40
0.0
41
0.0
42
0.0
10
155.539377984398
20
75.3846568058167
40
0.0
41
0.0
42
0.0
10
155.694692704337
20
75.3374236481712
40
0.0
41
0.0
42
0.0
10
155.35749468518
20
75.2772267493864
40
0.0
41
0.0
42
0.0
10
154.409992210235
20
75.1974403451689
40
0.0
41
0.0
42
0.0
10
158.716387571575
20
75.5034061619409
40
0.0
41
0.0
42
0.0
10
159.993851980322
20
75.5737064944362
40
0.0
41
0.0
42
0.0
10
161.29572776854
20
75.6124198625817
40
0.0
41
0.0
42
0.0
10
162.576741661637
20
75.6277349398198
40
0.0
41
0.0
42
0.0
10
163.791620385025
20
75.6278403995928
40
0.0
41
0.0
42
0.0
10
164.895090664114
20
75.620924915343
40
0.0
41
0.0
42
0.0
10
165.841879224312
20
75.6151771605128
40
0.0
41
0.0
42
0.0
10
166.586712791032
20
75.6187858085445
40
0.0
41
0.0
42
0.0
10
167.084318089682
20
75.6399395328803
40
0.0
41
0.0
42
0.0
10
167.289421845672
20
75.6868270069627
40
0.0
41
0.0
42
0.0
10
167.156750784414
20
75.767636904234
40
0.0
41
0.0
42
0.0
10
168.212249322457
20
75.432634681968
40
0.0
41
0.0
42
0.0
10
168.551139168559
20
75.1687988704297
40
0.0
41
0.0
42
0.0
10
168.615343575972
20
74.7458991228105
40
0.0
41
0.0
42
0.0
10
168.490942259658
20
74.236075295619
40
0.0
41
0.0
42
0.0
10
168.26401493458
20
73.7114672453639
40
0.0
41
0.0
42
0.0
10
168.0206413157
20
73.244214828554
40
0.0
41
0.0
42
0.0
10
167.846901117979
20
72.9064579016979
40
0.0
41
0.0
42
0.0
10
167.82887405638
20
72.7703363213044
40
0.0
41
0.0
42
0.0
10
168.052639845866
20
72.9079899438821
40
0.0
41
0.0
42
0.0
10
168.604278201397
20
73.3915586259399
40
0.0
41
0.0
42
0.0
10
169.569868837936
20
74.2931822239862
40
0.0
41
0.0
42
0.0
10
165.565668786723
20
70.5108566410631
40
0.0
41
0.0
42
0.0
10
164.827628427349
20
69.7877958959594
40
0.0
41
0.0
42
0.0
10
164.126569985148
20
69.0574666490854
40
0.0
41
0.0
42
0.0
10
163.472081364571
20
68.343370252888
40
0.0
41
0.0
42
0.0
10
162.873750470071
20
67.6690080598141
40
0.0
41
0.0
42
0.0
10
162.3411652061
20
67.0578814223107
40
0.0
41
0.0
42
0.0
10
161.88391347711
20
66.5334916928247
40
0.0
41
0.0
42
0.0
10
161.511583187552
20
66.119340223803
40
0.0
41
0.0
42
0.0
10
161.23376224188
20
65.8389283676926
40
0.0
41
0.0
42
0.0
10
161.060038544545
20
65.7157574769404
40
0.0
41
0.0
42
0.0
10
161.0
20
65.7733289039933
40
0.0
41
0.0
42
0.0
10
161.0
20
65.2540743369784
40
0.0
41
0.0
42
0.0
10
160.945747305936
20
65.0523626858981
40
0.0
41
0.0
42
0.0
10
160.803148694764
20
64.7783462822943
40
0.0
41
0.0
42
0.0
10
160.60244337301
20
64.4613738403088
40
0.0
41
0.0
42
0.0
10
160.373870547201
20
64.1307940740838
40
0.0
41
0.0
42
0.0
10
160.147669423866
20
63.8159556977613
40
0.0
41
0.0
42
0.0
10
159.95407920953
20
63.5462074254834
40
0.0
41
0.0
42
0.0
10
159.823339110721
20
63.350897971392
40
0.0
41
0.0
42
0.0
10
159.785688333967
20
63.2593760496293
40
0.0
41
0.0
42
0.0
10
159.871366085794
20
63.3009903743372
40
0.0
41
0.0
42
0.0
10
160.110611572729
20
63.5050896596578
40
0.0
41
0.0
42
0.0
10
159.023581272732
20
62.5213407585212
40
0.0
41
0.0
42
0.0
10
158.719534047203
20
62.207224174204
40
0.0
41
0.0
42
0.0
10
158.456639948867
20
61.8669114623899
40
0.0
41
0.0
42
0.0
10
158.2304430751
20
61.5180841737625
40
0.0
41
0.0
42
0.0
10
158.036487523279
20
61.1784238590052
40
0.0
41
0.0
42
0.0
10
157.870317390782
20
60.8656120688015
40
0.0
41
0.0
42
0.0
10
157.727476774986
20
60.5973303538349
40
0.0
41
0.0
42
0.0
10
157.603509773268
20
60.3912602647889
40
0.0
41
0.0
42
0.0
10
157.493960483004
20
60.265083352347
40
0.0
41
0.0
42
0.0
10
157.394373001573
20
60.2364811671926
40
0.0
41
0.0
42
0.0
10
157.300291426351
20
60.3231352600092
40
0.0
41
0.0
42
0.0
10
157.609671169657
20
59.8225483199092
40
0.0
41
0.0
42
0.0
10
157.668588895196
20
59.6368494158593
40
0.0
41
0.0
42
0.0
10
157.670821806447
20
59.3957117989423
40
0.0
41
0.0
42
0.0
10
157.633031274331
20
59.1225458659177
40
0.0
41
0.0
42
0.0
10
157.571878669774
20
58.8407620135449
40
0.0
41
0.0
42
0.0
10
157.504025363697
20
58.5737706385832
40
0.0
41
0.0
42
0.0
10
157.446132727025
20
58.3449821377922
40
0.0
41
0.0
42
0.0
10
157.41486213068
20
58.177806907931
40
0.0
41
0.0
42
0.0
10
157.426874945586
20
58.0956553457592
40
0.0
41
0.0
42
0.0
10
157.498832542667
20
58.1219378480362
40
0.0
41
0.0
42
0.0
10
157.647396292845
20
58.2800648115213
40
0.0
41
0.0
42
0.0
10
157.005994236062
20
57.5072226126026
40
0.0
41
0.0
42
0.0
10
156.593539377524
20
56.4355424206732
40
0.0
41
0.0
42
0.0
10
156.257893280981
20
54.5119158524263
40
0.0
41
0.0
42
0.0
10
155.985055194171
20
52.0268375960249
40
0.0
41
0.0
42
0.0
10
155.761024364831
20
49.2708023396319
40
0.0
41
0.0
42
0.0
10
155.571800040697
20
46.53430477141
40
0.0
41
0.0
42
0.0
10
155.403381469508
20
44.1078395795221
40
0.0
41
0.0
42
0.0
10
155.241767899
20
42.2819014521312
40
0.0
41
0.0
42
0.0
10
155.072958576911
20
41.3469850774
40
0.0
41
0.0
42
0.0
10
154.882952750977
20
41.5935851434915
40
0.0
41
0.0
42
0.0
10
154.657749668936
20
43.3121963385684
40
0.0
41
0.0
42
0.0
10
155.482645093987
20
34.8073685975996
40
0.0
41
0.0
42
0.0
10
155.571523164161
20
32.8914350871067
40
0.0
41
0.0
42
0.0
10
155.484561944275
20
31.1577585655689
40
0.0
41
0.0
42
0.0
10
155.275817856324
20
29.601739542498
40
0.0
41
0.0
42
0.0
10
154.999347322301
20
28.2187785274055
40
0.0
41
0.0
42
0.0
10
154.709206764201
20
27.0042760298031
40
0.0
41
0.0
42
0.0
10
154.459452604016
20
25.9536325592026
40
0.0
41
0.0
42
0.0
10
154.304141263742
20
25.0622486251154
40
0.0
41
0.0
42
0.0
10
154.297329165371
20
24.3255247370534
40
0.0
41
0.0
42
0.0
10
154.493072730897
20
23.7388614045281
40
0.0
41
0.0
42
0.0
10
154.945428382314
20
23.2976591370513
40
0.0
41
0.0
42
0.0
10
152.94982671
20
24.5310087985472
40
0.0
41
0.0
42
0.0
10
152.78240913548
20
24.5350689040478
40
0.0
41
0.0
42
0.0
10
152.600085868342
20
24.3864610458593
40
0.0
41
0.0
42
0.0
10
152.412586871775
20
24.1345804310961
40
0.0
41
0.0
42
0.0
10
152.229642108965
20
23.8288222668727
40
0.0
41
0.0
42
0.0
10
152.060981543101
20
23.5185817603036
40
0.0
41
0.0
42
0.0
10
151.91633513737
20
23.2532541185034
40
0.0
41
0.0
42
0.0
10
151.805432854959
20
23.0822345485866
40
0.0
41
0.0
42
0.0
10
151.738004659055
20
23.0549182576676
40
0.0
41
0.0
42
0.0
10
151.723780512846
20
23.2207004528609
40
0.0
41
0.0
42
0.0
10
151.772490379519
20
23.6289763412812
40
0.0
41
0.0
42
0.0
10
151.494423065597
20
21.809016994375
40
0.0
41
0.0
42
0.0
10
151.399535561578
20
21.191063060591
40
0.0
41
0.0
42
0.0
10
151.287311669051
20
20.4646700971408
40
0.0
41
0.0
42
0.0
10
151.166148734782
20
19.6830779486612
40
0.0
41
0.0
42
0.0
10
151.04444410554
20
18.8995264597892
40
0.0
41
0.0
42
0.0
10
150.930595128091
20
18.1672554751615
40
0.0
41
0.0
42
0.0
10
150.832999149202
20
17.5395048394151
40
0.0
41
0.0
42
0.0
10
150.76005351564
20
17.0695143971869
40
0.0
41
0.0
42
0.0
10
150.720155574172
20
16.8105239931136
40
0.0
41
0.0
42
0.0
10
150.721702671565
20
16.8157734718323
40
0.0
41
0.0
42
0.0
10
150.773092154585
20
17.1385026779797
40
0.0
41
0.0
42
0.0
10
150.50939284984
20
15.4744503955104
40
0.0
41
0.0
42
0.0
10
150.336188790135
20
14.8528623819989
40
0.0
41
0.0
42
0.0
10
150.039737305851
20
14.2125744717298
40
0.0
41
0.0
42
0.0
10
149.668252805129
20
13.5821986357506
40
0.0
41
0.0
42
0.0
10
149.269949696115
20
12.9903468451086
40
0.0
41
0.0
42
0.0
10
148.893042386949
20
12.4656310708513
40
0.0
41
0.0
42
0.0
10
148.585745285775
20
12.0366632840259
40
0.0
41
0.0
42
0.0
10
148.396272800735
20
11.73205545568
40
0.0
41
0.0
42
0.0
10
148.372839339973
20
11.5804195568607
40
0.0
41
0.0
42
0.0
10
148.56365931163
20
11.6103675586156
40
0.0
41
0.0
42
0.0
10
149.01694712385
20
11.850511431992
40
0.0
41
0.0
42
0.0
10
147.014969784243
20
10.6679143224267
40
0.0
41
0.0
42
0.0
10
146.513001916062
20
10.3198072749846
40
0.0
41
0.0
42
0.0
10
146.011683692411
20
9.88807838040491
40
0.0
41
0.0
42
0.0
10
145.525483141427
20
9.41002770835358
40
0.0
41
0.0
42
0.0
10
145.068868291245
20
8.92295532849645
40
0.0
41
0.0
42
0.0
10
144.656307170002
20
8.46416131049937
40
0.0
41
0.0
42
0.0
10
144.302267805836
20
8.07094572402822
40
0.0
41
0.0
42
0.0
10
144.021218226881
20
7.78060863874885
40
0.0
41
0.0
42
0.0
10
143.827626461276
20
7.63045012432714
40
0.0
41
0.0
42
0.0
10
143.735960537156
20
7.65777025042895
40
0.0
41
0.0
42
0.0
10
143.760688482658
20
7.89986908672014
40
0.0
41
0.0
42
0.0
10
143.46819662813
20
6.69346392691622
40
0.0
41
0.0
42
0.0
10
143.05133506809
20
5.61171603494294
40
0.0
41
0.0
42
0.0
10
142.431872129039
20
4.70358620372049
40
0.0
41
0.0
42
0.0
10
141.703131610647
20
3.95500111874077
40
0.0
41
0.0
42
0.0
10
140.958437312583
20
3.35188746549571
40
0.0
41
0.0
42
0.0
10
140.291113034516
20
2.8801719294772
40
0.0
41
0.0
42
0.0
10
139.794482576116
20
2.52578119617717
40
0.0
41
0.0
42
0.0
10
139.561869737052
20
2.27464195108753
40
0.0
41
0.0
42
0.0
10
139.686598316993
20
2.11268087970018
40
0.0
41
0.0
42
0.0
10
140.261992115609
20
2.02582466750703
40
0.0
41
0.0
42
0.0
10
141.381374932569
20
2.0
40
0.0
41
0.0
42
0.0
10
136.639757401385
20
2.0
40
0.0
41
0.0
42
0.0
10
135.814697470523
20
2.03424262004461
40
0.0
41
0.0
42
0.0
10
135.034220457865
20
2.12394096035684
40
0.0
41
0.0
42
0.0
10
134.310257870632
20
2.24955074120434
40
0.0
41
0.0
42
0.0
10
133.654741216045
20
2.39152768285474
40
0.0
41
0.0
42
0.0
10
133.079602001328
20
2.53032750557567
40
0.0
41
0.0
42
0.0
10
132.596771733701
20
2.64640592963475
40
0.0
41
0.0
42
0.0
10
132.218181920386
20
2.72021867529963
40
0.0
41
0.0
42
0.0
10
131.955764068606
20
2.73222146283793
40
0.0
41
0.0
42
0.0
10
131.821449685583
20
2.66287001251729
40
0.0
41
0.0
42
0.0
10
131.827170278537
20
2.49262004460534
40
0.0
41
0.0
42
0.0
210
0.0
220
0.0
230
1.0
0
LWPOLYLINE
5
21
330
1A
100
AcDbEntity
67
0
8
0
62
256
6
ByLayer
370
-1
48
1.0
60
0
100
AcDbPolyline
90
114
70
0
38
0.0
39
0.0
10
148.103559047268
20
43.0
40
0.0
41
0.0
42
0.0
10
148.007758043834
20
73.5
40
0.0
41
0.0
42
0.0
10
148.007758043834
20
73.5
40
0.0
41
0.0
42
0.0
10
157.503879021917
20
74.0824869041021
40
0.0
41
0.0
42
0.0
10
157.503879021917
20
74.0824869041021
40
0.0
41
0.0
42
0.0
10
160.171558142544
20
74.1144816592744
40
0.0
41
0.0
42
0.0
10
162.078371134168
20
73.8943137576155
40
0.0
41
0.0
42
0.0
10
163.374914040782
20
73.5179010665661
40
0.0
41
0.0
42
0.0
10
164.211782906383
20
73.0811614535669
40
0.0
41
0.0
42
0.0
10
164.739573774964
20
72.6800127860585
40
0.0
41
0.0
42
0.0
10
165.108882690521
20
72.4103729314816
40
0.0
41
0.0
42
0.0
10
165.470305697048
20
72.3681597572768
40
0.0
41
0.0
42
0.0
10
165.974438838541
20
72.6492911308849
40
0.0
41
0.0
42
0.0
10
166.771878158993
20
73.3496849197465
40
0.0
41
0.0
42
0.0
10
168.0132197024
20
74.5652589913023
40
0.0
41
0.0
42
0.0
10
162.96824858168
20
69.548136206692
40
0.0
41
0.0
42
0.0
10
162.488431198452
20
69.0510192999158
40
0.0
41
0.0
42
0.0
10
162.032656628735
20
68.5453286585691
40
0.0
41
0.0
42
0.0
10
161.607158194551
20
68.0483818234374
40
0.0
41
0.0
42
0.0
10
161.218169217922
20
67.5774963353062
40
0.0
41
0.0
42
0.0
10
160.871923020869
20
67.1499897349609
40
0.0
41
0.0
42
0.0
10
160.574652925413
20
66.7831795631871
40
0.0
41
0.0
42
0.0
10
160.332592253577
20
66.4943833607701
40
0.0
41
0.0
42
0.0
10
160.151974327382
20
66.3009186684956
40
0.0
41
0.0
42
0.0
10
160.039032468849
20
66.2201030271489
40
0.0
41
0.0
42
0.0
10
160.0
20
66.2692539775155
40
0.0
41
0.0
42
0.0
10
160.0
20
65.8695647781206
40
0.0
41
0.0
42
0.0
10
159.9382375
20
65.6903982403264
40
0.0
41
0.0
42
0.0
10
159.7759
20
65.4166541760768
40
0.0
41
0.0
42
0.0
10
159.5474125
20
65.0842456296164
40
0.0
41
0.0
42
0.0
10
159.2872
20
64.7290856451895
40
0.0
41
0.0
42
0.0
10
159.0296875
20
64.3870872670407
40
0.0
41
0.0
42
0.0
10
158.8093
20
64.0941635394143
40
0.0
41
0.0
42
0.0
10
158.6604625
20
63.8862275065548
40
0.0
41
0.0
42
0.0
10
158.6176
20
63.7991922127067
40
0.0
41
0.0
42
0.0
10
158.7151375
20
63.8689707021144
40
0.0
41
0.0
42
0.0
10
158.9875
20
64.1314760190223
40
0.0
41
0.0
42
0.0
10
157.75
20
62.8953435343351
40
0.0
41
0.0
42
0.0
10
157.380856122379
20
62.4888289937857
40
0.0
41
0.0
42
0.0
10
157.021092706335
20
62.0301653146235
40
0.0
41
0.0
42
0.0
10
156.678462077102
20
61.5481531743586
40
0.0
41
0.0
42
0.0
10
156.36071655991
20
61.0715932505017
40
0.0
41
0.0
42
0.0
10
156.075608479991
20
60.6292862205629
40
0.0
41
0.0
42
0.0
10
155.830890162576
20
60.2500327620527
40
0.0
41
0.0
42
0.0
10
155.634313932898
20
59.9626335524815
40
0.0
41
0.0
42
0.0
10
155.493632116189
20
59.7958892693596
40
0.0
41
0.0
42
0.0
10
155.416597037678
20
59.7786005901973
40
0.0
41
0.0
42
0.0
10
155.410961022599
20
59.9395681925051
40
0.0
41
0.0
42
0.0
10
155.302135605776
20
59.0739149629065
40
0.0
41
0.0
42
0.0
10
155.241924568682
20
58.7096916091527
40
0.0
41
0.0
42
0.0
10
155.137352163158
20
58.1794169665984
40
0.0
41
0.0
42
0.0
10
155.004566572693
20
57.5475962566657
40
0.0
41
0.0
42
0.0
10
154.859715980779
20
56.8787347007768
40
0.0
41
0.0
42
0.0
10
154.718948570908
20
56.2373375203538
40
0.0
41
0.0
42
0.0
10
154.598412526571
20
55.6879099368187
40
0.0
41
0.0
42
0.0
10
154.514256031259
20
55.2949571715937
40
0.0
41
0.0
42
0.0
10
154.482627268464
20
55.1229844461008
40
0.0
41
0.0
42
0.0
10
154.519674421677
20
55.2364969817622
40
0.0
41
0.0
42
0.0
10
154.641545674389
20
55.7
40
0.0
41
0.0
42
0.0
10
154.075992240081
20
53.5
40
0.0
41
0.0
42
0.0
10
153.729147348418
20
51.743432032794
40
0.0
41
0.0
42
0.0
10
153.533521101481
20
49.90709550097
40
0.0
41
0.0
42
0.0
10
153.450364421401
20
48.0602734723861
40
0.0
41
0.0
42
0.0
10
153.440928230312
20
46.2722490149007
40
0.0
41
0.0
42
0.0
10
153.466463450344
20
44.612305196372
40
0.0
41
0.0
42
0.0
10
153.488221003631
20
43.1497250846583
40
0.0
41
0.0
42
0.0
10
153.467451812303
20
41.9537917476178
40
0.0
41
0.0
42
0.0
10
153.365406798493
20
41.0937882531088
40
0.0
41
0.0
42
0.0
10
153.143336884334
20
40.6389976689896
40
0.0
41
0.0
42
0.0
10
152.762492991956
20
40.6587030631183
40
0.0
41
0.0
42
0.0
10
154.339650461209
20
39.7252105990999
40
0.0
41
0.0
42
0.0
10
154.59666000963
20
39.3664617405282
40
0.0
41
0.0
42
0.0
10
154.743277096856
20
38.7455247352546
40
0.0
41
0.0
42
0.0
10
154.808159535491
20
37.974034128521
40
0.0
41
0.0
42
0.0
10
154.819965138142
20
37.1636244655695
40
0.0
41
0.0
42
0.0
10
154.807351717412
20
36.4259302916421
40
0.0
41
0.0
42
0.0
10
154.798977085906
20
35.8725861519808
40
0.0
41
0.0
42
0.0
10
154.823499056229
20
35.6152265918277
40
0.0
41
0.0
42
0.0
10
154.909575440986
20
35.7654861564247
40
0.0
41
0.0
42
0.0
10
155.085864052781
20
36.434999391014
40
0.0
41
0.0
42
0.0
10
155.381022704219
20
37.7354008408375
40
0.0
41
0.0
42
0.0
10
154.167201786015
20
32.2252105990999
40
0.0
41
0.0
42
0.0
10
153.904584961091
20
31.1298538121378
40
0.0
41
0.0
42
0.0
10
153.616292046984
20
30.0755750829519
40
0.0
41
0.0
42
0.0
10
153.318329958949
20
29.0810826125378
40
0.0
41
0.0
42
0.0
10
153.026705612237
20
28.1650846018912
40
0.0
41
0.0
42
0.0
10
152.757425922103
20
27.346289252008
40
0.0
41
0.0
42
0.0
10
152.526497803799
20
26.6434047638838
40
0.0
41
0.0
42
0.0
10
152.349928172579
20
26.0751393385145
40
0.0
41
0.0
42
0.0
10
152.243723943696
20
25.6602011768957
40
0.0
41
0.0
42
0.0
10
152.223892032402
20
25.4172984800233
40
0.0
41
0.0
42
0.0
10
152.306439353951
20
25.3651394488929
40
0.0
41
0.0
42
0.0
10
151.842864099323
20
25.2003098864288
40
0.0
41
0.0
42
0.0
10
151.690153900972
20
25.0502914731875
40
0.0
41
0.0
42
0.0
10
151.517465204692
20
24.7372966979428
40
0.0
41
0.0
42
0.0
10
151.335743129479
20
24.3185696511955
40
0.0
41
0.0
42
0.0
10
151.155932794331
20
23.8513544234465
40
0.0
41
0.0
42
0.0
10
150.988979318244
20
23.3928951051967
40
0.0
41
0.0
42
0.0
10
150.845827820213
20
23.0004357869468
40
0.0
41
0.0
42
0.0
10
150.737423419237
20
22.7312205591978
40
0.0
41
0.0
42
0.0
10
150.67471123431
20
22.6424935124505
40
0.0
41
0.0
42
0.0
10
150.66863638443
20
22.7914987372058
40
0.0
41
0.0
42
0.0
10
150.730143988592
20
23.2354803239646
40
0.0
41
0.0
42
0.0
10
150.400319974649
20
21.2003098864288
40
0.0
41
0.0
42
0.0
10
149.917749157437
20
19.201498645647
40
0.0
41
0.0
42
0.0
10
149.5010607934
20
19.1658742352642
40
0.0
41
0.0
42
0.0
10
149.147350987885
20
20.4738715335791
40
0.0
41
0.0
42
0.0
10
148.853715846237
20
22.5059254188903
40
0.0
41
0.0
42
0.0
10
148.617251473799
20
24.6424707694966
40
0.0
41
0.0
42
0.0
10
148.435053975918
20
26.2639424636967
40
0.0
41
0.0
42
0.0
10
148.304219457938
20
26.7507753797892
40
0.0
41
0.0
42
0.0
10
148.221844025205
20
25.4834043960728
40
0.0
41
0.0
42
0.0
10
148.185023783062
20
21.8422643908462
40
0.0
41
0.0
42
0.0
10
148.190854836855
20
15.2077902424082
40
0.0
41
0.0
42
0.0
210
0.0
220
0.0
230
1.0
0
LWPOLYLINE
5
22
330
1A
100
AcDbEntity
67
0
8
0
62
256
6
ByLayer
370
-1
48
1.0
60
0
100
AcDbPolyline
90
125
70
0
38
0.0
39
0.0
10
148.597179287142
20
128.75
40
0.0
41
0.0
42
0.0
10
148.194358574283
20
155.5
40
0.0
41
0.0
42
0.0
10
148.194358574283
20
155.5
40
0.0
41
0.0
42
0.0
10
150.232875477217
20
152.25
40
0.0
41
0.0
42
0.0
10
150.232875477217
20
152.25
40
0.0
41
0.0
42
0.0
10
150.597670827112
20
151.7246375
40
0.0
41
0.0
42
0.0
10
151.003386920015
20
151.2256
40
0.0
41
0.0
42
0.0
10
151.426084687704
20
150.7597125
40
0.0
41
0.0
42
0.0
10
151.84182506196
20
150.3338
40
0.0
41
0.0
42
0.0
10
152.22666897456
20
149.9546875
40
0.0
41
0.0
42
0.0
10
152.556677357284
20
149.6292
40
0.0
41
0.0
42
0.0
10
152.80791114191
20
149.3641625
40
0.0
41
0.0
42
0.0
10
152.956431260219
20
149.1664
40
0.0
41
0.0
42
0.0
10
152.978298643989
20
149.0427375
40
0.0
41
0.0
42
0.0
10
152.849574224998
20
149.0
40
0.0
41
0.0
42
0.0
10
153.556240924256
20
149.0
40
0.0
41
0.0
42
0.0
10
153.78195464708
20
148.917964785186
40
0.0
41
0.0
42
0.0
10
154.026601811391
20
148.702342171386
40
0.0
41
0.0
42
0.0
10
154.277441440286
20
148.39885670456
40
0.0
41
0.0
42
0.0
10
154.521732556857
20
148.053232930672
40
0.0
41
0.0
42
0.0
10
154.7467341842
20
147.711195395683
40
0.0
41
0.0
42
0.0
10
154.93970534541
20
147.418468645555
40
0.0
41
0.0
42
0.0
10
155.08790506358
20
147.220777226249
40
0.0
41
0.0
42
0.0
10
155.178592361805
20
147.163845683728
40
0.0
41
0.0
42
0.0
10
155.19902626318
20
147.293398563953
40
0.0
41
0.0
42
0.0
10
155.136465790799
20
147.655160412887
40
0.0
41
0.0
42
0.0
10
155.497481296001
20
146.011467584193
40
0.0
41
0.0
42
0.0
10
155.628925126317
20
145.512711517496
40
0.0
41
0.0
42
0.0
10
155.796313118516
20
145.012661902705
40
0.0
41
0.0
42
0.0
10
155.984143979155
20
144.526323071945
40
0.0
41
0.0
42
0.0
10
156.176916414792
20
144.068699357342
40
0.0
41
0.0
42
0.0
10
156.359129131986
20
143.654795091021
40
0.0
41
0.0
42
0.0
10
156.515280837294
20
143.299614605108
40
0.0
41
0.0
42
0.0
10
156.629870237274
20
143.018162231726
40
0.0
41
0.0
42
0.0
10
156.687396038483
20
142.825442303003
40
0.0
41
0.0
42
0.0
10
156.672356947479
20
142.736459151062
40
0.0
41
0.0
42
0.0
10
156.569251670821
20
142.76621710803
40
0.0
41
0.0
42
0.0
10
157.07693656182
20
142.452450589818
40
0.0
41
0.0
42
0.0
10
157.226149766602
20
142.316660975565
40
0.0
41
0.0
42
0.0
10
157.367886157534
20
142.114540958125
40
0.0
41
0.0
42
0.0
10
157.500207301397
20
141.871573909085
40
0.0
41
0.0
42
0.0
10
157.621174764971
20
141.613243200035
40
0.0
41
0.0
42
0.0
10
157.728850115035
20
141.365032202561
40
0.0
41
0.0
42
0.0
10
157.821294918368
20
141.15242428825
40
0.0
41
0.0
42
0.0
10
157.896570741752
20
141.000902828692
40
0.0
41
0.0
42
0.0
10
157.952739151965
20
140.935951195473
40
0.0
41
0.0
42
0.0
10
157.987861715788
20
140.983052760181
40
0.0
41
0.0
42
0.0
10
158.0
20
141.167690894405
40
0.0
41
0.0
42
0.0
10
158.0
20
140.294687973815
40
0.0
41
0.0
42
0.0
10
158.123525
20
139.906046262796
40
0.0
41
0.0
42
0.0
10
158.4482
20
139.315215883947
40
0.0
41
0.0
42
0.0
10
158.905175
20
138.59913634005
40
0.0
41
0.0
42
0.0
10
159.4256
20
137.834747133887
40
0.0
41
0.0
42
0.0
10
159.940625
20
137.098987768239
40
0.0
41
0.0
42
0.0
10
160.3814
20
136.468797745889
40
0.0
41
0.0
42
0.0
10
160.679075
20
136.021116569619
40
0.0
41
0.0
42
0.0
10
160.7648
20
135.832883742211
40
0.0
41
0.0
42
0.0
10
160.569725
20
135.981038766446
40
0.0
41
0.0
42
0.0
10
160.025
20
136.542521145106
40
0.0
41
0.0
42
0.0
10
162.5
20
133.896545955771
40
0.0
41
0.0
42
0.0
10
163.800058309642
20
132.340812460963
40
0.0
41
0.0
42
0.0
10
164.722070730997
20
130.927868557247
40
0.0
41
0.0
42
0.0
10
165.344125355891
20
129.679771717366
40
0.0
41
0.0
42
0.0
10
165.744310276154
20
128.618579414066
40
0.0
41
0.0
42
0.0
10
166.000713583612
20
127.766349120092
40
0.0
41
0.0
42
0.0
10
166.191423370094
20
127.14513830819
40
0.0
41
0.0
42
0.0
10
166.394527727427
20
126.777004451103
40
0.0
41
0.0
42
0.0
10
166.68811474744
20
126.684005021577
40
0.0
41
0.0
42
0.0
10
167.15027252196
20
126.888197492358
40
0.0
41
0.0
42
0.0
10
167.859089142814
20
127.41163933619
40
0.0
41
0.0
42
0.0
10
164.998504449599
20
125.110242598615
40
0.0
41
0.0
42
0.0
10
164.323094392012
20
124.290965338464
40
0.0
41
0.0
42
0.0
10
163.541254640343
20
122.931697160984
40
0.0
41
0.0
42
0.0
10
162.70111196706
20
121.217297495834
40
0.0
41
0.0
42
0.0
10
161.85079314463
20
119.332625772673
40
0.0
41
0.0
42
0.0
10
161.038424945522
20
117.46254142116
40
0.0
41
0.0
42
0.0
10
160.312134142203
20
115.791903870953
40
0.0
41
0.0
42
0.0
10
159.72004750714
20
114.50557255171
40
0.0
41
0.0
42
0.0
10
159.310291812802
20
113.788406893092
40
0.0
41
0.0
42
0.0
10
159.130993831656
20
113.825266324756
40
0.0
41
0.0
42
0.0
10
159.23028033617
20
114.80101027636
40
0.0
41
0.0
42
0.0
10
158.381543653394
20
109.778323538155
40
0.0
41
0.0
42
0.0
10
158.196404548623
20
109.19706366217
40
0.0
41
0.0
42
0.0
10
157.870162710455
20
108.606366741479
40
0.0
41
0.0
42
0.0
10
157.458555597732
20
108.031366891942
40
0.0
41
0.0
42
0.0
10
157.017320669297
20
107.497198229422
40
0.0
41
0.0
42
0.0
10
156.602195383994
20
107.02899486978
40
0.0
41
0.0
42
0.0
10
156.268917200665
20
106.651890928877
40
0.0
41
0.0
42
0.0
10
156.073223578154
20
106.391020522574
40
0.0
41
0.0
42
0.0
10
156.070851975304
20
106.271517766733
40
0.0
41
0.0
42
0.0
10
156.317539850957
20
106.318516777215
40
0.0
41
0.0
42
0.0
10
156.869024663956
20
106.557151669881
40
0.0
41
0.0
42
0.0
10
154.460816548554
20
105.414382095285
40
0.0
41
0.0
42
0.0
10
153.901375553481
20
105.124587653709
40
0.0
41
0.0
42
0.0
10
153.36996717245
20
104.808488740976
40
0.0
41
0.0
42
0.0
10
152.873859120215
20
104.483090809469
40
0.0
41
0.0
42
0.0
10
152.420319111527
20
104.165399311574
40
0.0
41
0.0
42
0.0
10
152.016614861138
20
103.872419699674
40
0.0
41
0.0
42
0.0
10
151.6700140838
20
103.621157426153
40
0.0
41
0.0
42
0.0
10
151.387784494266
20
103.428617943396
40
0.0
41
0.0
42
0.0
10
151.177193807286
20
103.311806703787
40
0.0
41
0.0
42
0.0
10
151.045509737613
20
103.287729159711
40
0.0
41
0.0
42
0.0
10
151.0
20
103.373390763551
40
0.0
41
0.0
42
0.0
10
151.0
20
102.88605855713
40
0.0
41
0.0
42
0.0
10
150.97255
20
102.74282719137
40
0.0
41
0.0
42
0.0
10
150.9004
20
102.606772899922
40
0.0
41
0.0
42
0.0
10
150.79885
20
102.479756405758
40
0.0
41
0.0
42
0.0
10
150.6832
20
102.363638431846
40
0.0
41
0.0
42
0.0
10
150.56875
20
102.260279701157
40
0.0
41
0.0
42
0.0
10
150.4708
20
102.17154093666
40
0.0
41
0.0
42
0.0
10
150.40465
20
102.099282861326
40
0.0
41
0.0
42
0.0
10
150.3856
20
102.045366198125
40
0.0
41
0.0
42
0.0
10
150.42895
20
102.011651670026
40
0.0
41
0.0
42
0.0
10
150.55
20
102.0
40
0.0
41
0.0
42
0.0
10
150.0
20
102.0
40
0.0
41
0.0
42
0.0
10
149.807471071182
20
102.732101880475
40
0.0
41
0.0
42
0.0
10
149.613567483355
20
104.646815043802
40
0.0
41
0.0
42
0.0
10
149.425279171948
20
107.321750772831
40
0.0
41
0.0
42
0.0
10
149.249596072389
20
110.334520350415
40
0.0
41
0.0
42
0.0
10
149.093508120107
20
113.262735059405
40
0.0
41
0.0
42
0.0
10
148.964005250528
20
115.684006182652
40
0.0
41
0.0
42
0.0
10
148.868077399081
20
117.175945003007
40
0.0
41
0.0
42
0.0
10
148.812714501194
20
117.316162803322
40
0.0
41
0.0
42
0.0
10
148.804906492295
20
115.682270866449
40
0.0
41
0.0
42
0.0
10
148.851643307812
20
111.851880475239
40
0.0
41
0.0
42
0.0
210
0.0
220
0.0
230
1.0
0
LWPOLYLINE
5
23
330
1A
100
AcDbEntity
67
0
8
0
62
256
6
ByLayer
370
-1
48
1.0
60
0
100
AcDbPolyline
90
86
70
0
38
0.0
39
0.0
10
92.8526452582026
20
109.223028055156
40
0.0
41
0.0
42
0.0
10
92.1784475985705
20
110.540154830293
40
0.0
41
0.0
42
0.0
10
91.523563245375
20
112.054182590239
40
0.0
41
0.0
42
0.0
10
90.9048250761117
20
113.652903467161
40
0.0
41
0.0
42
0.0
10
90.3390659682768
20
115.224109593227
40
0.0
41
0.0
42
0.0
10
89.8431187993661
20
116.655593100602
40
0.0
41
0.0
42
0.0
10
89.4338164468752
20
117.835146121454
40
0.0
41
0.0
42
0.0
10
89.1279917883002
20
118.65056078795
40
0.0
41
0.0
42
0.0
10
88.9424777011368
20
118.989629232257
40
0.0
41
0.0
42
0.0
10
88.8941070628809
20
118.740143586542
40
0.0
41
0.0
42
0.0
10
88.9997127510284
20
117.789895982972
40
0.0
41
0.0
42
0.0
10
88.372363382647
20
122.25
40
0.0
41
0.0
42
0.0
10
88.2390581111996
20
122.920847019216
40
0.0
41
0.0
42
0.0
10
88.050865104115
20
123.534178005674
40
0.0
41
0.0
42
0.0
10
87.8305873969806
20
124.086907553391
40
0.0
41
0.0
42
0.0
10
87.6010280253837
20
124.575950256383
40
0.0
41
0.0
42
0.0
10
87.3849900249117
20
124.998220708666
40
0.0
41
0.0
42
0.0
10
87.205276431152
20
125.350633504256
40
0.0
41
0.0
42
0.0
10
87.084690279692
20
125.630103237168
40
0.0
41
0.0
42
0.0
10
87.0460346061191
20
125.833544501419
40
0.0
41
0.0
42
0.0
10
87.1121124460207
20
125.957871891024
40
0.0
41
0.0
42
0.0
10
87.3057268349842
20
126.0
40
0.0
41
0.0
42
0.0
10
86.422447917128
20
126.0
40
0.0
41
0.0
42
0.0
10
86.1692425494605
20
126.073804042943
40
0.0
41
0.0
42
0.0
10
85.9373252630498
20
126.266998606876
40
0.0
41
0.0
42
0.0
10
85.7279597420874
20
126.537257344456
40
0.0
41
0.0
42
0.0
10
85.5424096707649
20
126.84225390834
40
0.0
41
0.0
42
0.0
10
85.3819387332741
20
127.139661951186
40
0.0
41
0.0
42
0.0
10
85.2478106138064
20
127.387155125651
40
0.0
41
0.0
42
0.0
10
85.1412889965535
20
127.542407084391
40
0.0
41
0.0
42
0.0
10
85.0636375657071
20
127.563091480063
40
0.0
41
0.0
42
0.0
10
85.0161200054587
20
127.406881965326
40
0.0
41
0.0
42
0.0
10
85.0
20
127.031452192835
40
0.0
41
0.0
42
0.0
10
85.0
20
128.695281138885
40
0.0
41
0.0
42
0.0
10
84.9264944857248
20
129.226766944904
40
0.0
41
0.0
42
0.0
10
84.7336326810643
20
129.852997243248
40
0.0
41
0.0
42
0.0
10
84.4628966932662
20
130.526426574475
40
0.0
41
0.0
42
0.0
10
84.1557686295783
20
131.199509479139
40
0.0
41
0.0
42
0.0
10
83.8537305972485
20
131.824700497796
40
0.0
41
0.0
42
0.0
10
83.5982647035245
20
132.354454171004
40
0.0
41
0.0
42
0.0
10
83.430853055654
20
132.741225039316
40
0.0
41
0.0
42
0.0
10
83.3929777608848
20
132.93746764329
40
0.0
41
0.0
42
0.0
10
83.5261209264646
20
132.895636523481
40
0.0
41
0.0
42
0.0
10
83.8717646596413
20
132.568186220444
40
0.0
41
0.0
42
0.0
10
82.319360039449
20
134.188547490882
40
0.0
41
0.0
42
0.0
10
79.6387200788979
20
136.986532703992
40
0.0
41
0.0
42
0.0
10
79.6387200788979
20
136.986532703992
40
0.0
41
0.0
42
0.0
10
83.9682244679951
20
141.595078938883
40
0.0
41
0.0
42
0.0
10
83.9682244679951
20
141.595078938883
40
0.0
41
0.0
42
0.0
10
80.9352408411394
20
152.91533474325
40
0.0
41
0.0
42
0.0
10
80.9352408411394
20
152.91533474325
40
0.0
41
0.0
42
0.0
10
80.4563169751171
20
154.756612031285
40
0.0
41
0.0
42
0.0
10
80.0204557152876
20
156.52469068612
40
0.0
41
0.0
42
0.0
10
79.627695673713
20
158.189467517011
40
0.0
41
0.0
42
0.0
10
79.2780754624555
20
159.720839333215
40
0.0
41
0.0
42
0.0
10
78.9716336935773
20
161.088702943989
40
0.0
41
0.0
42
0.0
10
78.7084089791407
20
162.262955158589
40
0.0
41
0.0
42
0.0
10
78.4884399312079
20
163.213492786273
40
0.0
41
0.0
42
0.0
10
78.311765161841
20
163.910212636296
40
0.0
41
0.0
42
0.0
10
78.1784232831022
20
164.323011517915
40
0.0
41
0.0
42
0.0
10
78.0884529070539
20
164.421786240387
40
0.0
41
0.0
42
0.0
10
78.3160254204398
20
164.649358753773
40
0.0
41
0.0
42
0.0
10
78.5928540621146
20
164.520180762278
40
0.0
41
0.0
42
0.0
10
79.2082055929184
20
164.068378246333
40
0.0
41
0.0
42
0.0
10
80.0441936835678
20
163.402363655801
40
0.0
41
0.0
42
0.0
10
80.9829320047791
20
162.630549440541
40
0.0
41
0.0
42
0.0
10
81.9065342272687
20
161.861348050414
40
0.0
41
0.0
42
0.0
10
82.6971140217532
20
161.20317193528
40
0.0
41
0.0
42
0.0
10
83.2367850589488
20
160.764433544999
40
0.0
41
0.0
42
0.0
10
83.4076610095722
20
160.653545329433
40
0.0
41
0.0
42
0.0
10
83.0918555443396
20
160.978919738442
40
0.0
41
0.0
42
0.0
10
82.1714823339675
20
161.848969221887
40
0.0
41
0.0
42
0.0
10
86.3779907540885
20
157.920554208724
40
0.0
41
0.0
42
0.0
10
94.0261878815813
20
150.777981457519
40
0.0
41
0.0
42
0.0
10
94.0261878815813
20
150.777981457519
40
0.0
41
0.0
42
0.0
10
110.809465411396
20
166.014999047456
40
0.0
41
0.0
42
0.0
10
110.809465411396
20
166.014999047456
40
0.0
41
0.0
42
0.0
10
104.545159236605
20
141.684027949294
40
0.0
41
0.0
42
0.0
10
104.545159236605
20
141.684027949294
40
0.0
41
0.0
42
0.0
10
120.5
20
125.014472238952
40
0.0
41
0.0
42
0.0
10
120.5
20
125.014472238952
40
0.0
41
0.0
42
0.0
10
100.373159968979
20
126.0
40
0.0
41
0.0
42
0.0
10
100.373159968979
20
126.0
40
0.0
41
0.0
42
0.0
10
94.5
20
106.353885652523
40
0.0
41
0.0
42
0.0
10
94.5
20
106.353885652523
40
0.0
41
0.0
42
0.0
10
92.8526452582026
20
109.223028055156
40
0.0
41
0.0
42
0.0
210
0.0
220
0.0
230
1.0
0
LWPOLYLINE
5
24
330
1A
100
AcDbEntity
67
0
8
0
62
256
6
ByLayer
370
-1
48
1.0
60
0
100
AcDbPolyline
90
209
70
0
38
0.0
39
0.0
10
149.0
20
229.964816241512
40
0.0
41
0.0
42
0.0
10
149.0068625
20
234.477146888641
40
0.0
41
0.0
42
0.0
10
149.0249
20
238.730545942877
40
0.0
41
0.0
42
0.0
10
149.0502875
20
242.677040033944
40
0.0
41
0.0
42
0.0
10
149.0792
20
246.268655791565
40
0.0
41
0.0
42
0.0
10
149.1078125
20
249.457419845466
40
0.0
41
0.0
42
0.0
10
149.1323
20
252.19535882537
40
0.0
41
0.0
42
0.0
10
149.1488375
20
254.434499361001
40
0.0
41
0.0
42
0.0
10
149.1536
20
256.126868082084
40
0.0
41
0.0
42
0.0
10
149.1427625
20
257.224491618343
40
0.0
41
0.0
42
0.0
10
149.1125
20
257.679396599501
40
0.0
41
0.0
42
0.0
10
149.25
20
257.287547998891
40
0.0
41
0.0
42
0.0
10
149.363911462043
20
257.219288501295
40
0.0
41
0.0
42
0.0
10
149.59548475845
20
257.233186169706
40
0.0
41
0.0
42
0.0
10
149.90322825464
20
257.304591505375
40
0.0
41
0.0
42
0.0
10
150.245650316032
20
257.408855009555
40
0.0
41
0.0
42
0.0
10
150.581259308046
20
257.521327183496
40
0.0
41
0.0
42
0.0
10
150.868563596099
20
257.617358528449
40
0.0
41
0.0
42
0.0
10
151.066071545612
20
257.672299545665
40
0.0
41
0.0
42
0.0
10
151.132291522002
20
257.661500736395
40
0.0
41
0.0
42
0.0
10
151.025731890689
20
257.560312601891
40
0.0
41
0.0
42
0.0
10
150.704901017091
20
257.344085643404
40
0.0
41
0.0
42
0.0
10
152.177557815758
20
258.283961876943
40
0.0
41
0.0
42
0.0
10
152.653548574633
20
258.543636642682
40
0.0
41
0.0
42
0.0
10
153.178139280836
20
258.762497494904
40
0.0
41
0.0
42
0.0
10
153.721648697534
20
258.946187876301
40
0.0
41
0.0
42
0.0
10
154.254395587897
20
259.100351229564
40
0.0
41
0.0
42
0.0
10
154.746698715092
20
259.230630997386
40
0.0
41
0.0
42
0.0
10
155.168876842286
20
259.342670622459
40
0.0
41
0.0
42
0.0
10
155.491248732649
20
259.442113547475
40
0.0
41
0.0
42
0.0
10
155.684133149348
20
259.534603215125
40
0.0
41
0.0
42
0.0
10
155.717848855551
20
259.625783068103
40
0.0
41
0.0
42
0.0
10
155.562714614425
20
259.721296549098
40
0.0
41
0.0
42
0.0
10
156.427557815758
20
259.389425073868
40
0.0
41
0.0
42
0.0
10
156.716055594841
20
259.298665316256
40
0.0
41
0.0
42
0.0
10
157.047691592231
20
259.22383424179
40
0.0
41
0.0
42
0.0
10
157.400038679342
20
259.162419820313
40
0.0
41
0.0
42
0.0
10
157.750669727587
20
259.111910021671
40
0.0
41
0.0
42
0.0
10
158.077157608379
20
259.069792815709
40
0.0
41
0.0
42
0.0
10
158.357075193131
20
259.033556172272
40
0.0
41
0.0
42
0.0
10
158.567995353256
20
259.000688061206
40
0.0
41
0.0
42
0.0
10
158.687490960167
20
258.968676452355
40
0.0
41
0.0
42
0.0
10
158.693134885277
20
258.935009315564
40
0.0
41
0.0
42
0.0
10
158.5625
20
258.897174620679
40
0.0
41
0.0
42
0.0
10
159.25
20
259.03302734507
40
0.0
41
0.0
42
0.0
10
159.583411612393
20
259.095326331824
40
0.0
41
0.0
42
0.0
10
160.120589129119
20
259.192053264449
40
0.0
41
0.0
42
0.0
10
160.785696569501
20
259.310220553446
40
0.0
41
0.0
42
0.0
10
161.50289795286
20
259.436840609312
40
0.0
41
0.0
42
0.0
10
162.196357298519
20
259.558925842547
40
0.0
41
0.0
42
0.0
10
162.7902386258
20
259.663488663649
40
0.0
41
0.0
42
0.0
10
163.208705954025
20
259.737541483118
40
0.0
41
0.0
42
0.0
10
163.375923302516
20
259.768096711452
40
0.0
41
0.0
42
0.0
10
163.216054690596
20
259.74216675915
40
0.0
41
0.0
42
0.0
10
162.653264137585
20
259.646764036711
40
0.0
41
0.0
42
0.0
10
165.285031416856
20
260.094991716736
40
0.0
41
0.0
42
0.0
10
166.129897004088
20
260.282865827365
40
0.0
41
0.0
42
0.0
10
167.052216116033
20
260.55555135884
40
0.0
41
0.0
42
0.0
10
168.00216282941
20
260.880048022566
40
0.0
41
0.0
42
0.0
10
168.929911220937
20
261.223355529945
40
0.0
41
0.0
42
0.0
10
169.785635367331
20
261.552473592383
40
0.0
41
0.0
42
0.0
10
170.51950934531
20
261.834401921284
40
0.0
41
0.0
42
0.0
10
171.081707231592
20
262.036140228051
40
0.0
41
0.0
42
0.0
10
171.422403102895
20
262.12468822409
40
0.0
41
0.0
42
0.0
10
171.491771035938
20
262.067045620804
40
0.0
41
0.0
42
0.0
10
171.239985107437
20
261.830212129597
40
0.0
41
0.0
42
0.0
10
172.669890108657
20
262.954975567482
40
0.0
41
0.0
42
0.0
10
173.127625316562
20
263.285553766999
40
0.0
41
0.0
42
0.0
10
173.625323740016
20
263.599567268612
40
0.0
41
0.0
42
0.0
10
174.136639079727
20
263.892721521013
40
0.0
41
0.0
42
0.0
10
174.635225036402
20
264.160721972895
40
0.0
41
0.0
42
0.0
10
175.094735310748
20
264.399274072948
40
0.0
41
0.0
42
0.0
10
175.488823603472
20
264.604083269864
40
0.0
41
0.0
42
0.0
10
175.791143615281
20
264.770855012336
40
0.0
41
0.0
42
0.0
10
175.975349046883
20
264.895294749055
40
0.0
41
0.0
42
0.0
10
176.015093598984
20
264.973107928712
40
0.0
41
0.0
42
0.0
10
175.884030972292
20
265.0
40
0.0
41
0.0
42
0.0
10
176.634858691801
20
265.0
40
0.0
41
0.0
42
0.0
10
176.855533784272
20
265.029070016496
40
0.0
41
0.0
42
0.0
10
177.065151232146
20
265.10547809264
40
0.0
41
0.0
42
0.0
10
177.260844238676
20
265.213021268419
40
0.0
41
0.0
42
0.0
10
177.439746007115
20
265.335496583818
40
0.0
41
0.0
42
0.0
10
177.598989740717
20
265.456701078824
40
0.0
41
0.0
42
0.0
10
177.735708642733
20
265.560431793423
40
0.0
41
0.0
42
0.0
10
177.847035916416
20
265.630485767601
40
0.0
41
0.0
42
0.0
10
177.93010476502
20
265.650660041344
40
0.0
41
0.0
42
0.0
10
177.982048391797
20
265.604751654638
40
0.0
41
0.0
42
0.0
10
178.0
20
265.476557647469
40
0.0
41
0.0
42
0.0
10
178.0
20
266.059016994375
40
0.0
41
0.0
42
0.0
10
178.027524233914
20
266.213196179443
40
0.0
41
0.0
42
0.0
10
178.09986935147
20
266.331096497359
40
0.0
41
0.0
42
0.0
10
178.201693976386
20
266.419975504413
40
0.0
41
0.0
42
0.0
10
178.317656732385
20
266.487090756889
40
0.0
41
0.0
42
0.0
10
178.432416243185
20
266.539699811076
40
0.0
41
0.0
42
0.0
10
178.530631132507
20
266.585060223261
40
0.0
41
0.0
42
0.0
10
178.59696002407
20
266.63042954973
40
0.0
41
0.0
42
0.0
10
178.616061541595
20
266.683065346771
40
0.0
41
0.0
42
0.0
10
178.572594308802
20
266.75022517067
40
0.0
41
0.0
42
0.0
10
178.45121694941
20
266.839166577714
40
0.0
41
0.0
42
0.0
10
179.002704332023
20
266.498328630893
40
0.0
41
0.0
42
0.0
10
179.136185073892
20
266.313684838972
40
0.0
41
0.0
42
0.0
10
179.179566031546
20
266.019560300038
40
0.0
41
0.0
42
0.0
10
179.158557484459
20
265.658761443261
40
0.0
41
0.0
42
0.0
10
179.098869712107
20
265.274094697816
40
0.0
41
0.0
42
0.0
10
179.026212993963
20
264.908366492874
40
0.0
41
0.0
42
0.0
10
178.966297609503
20
264.604383257608
40
0.0
41
0.0
42
0.0
10
178.944833838201
20
264.404951421191
40
0.0
41
0.0
42
0.0
10
178.987531959532
20
264.352877412796
40
0.0
41
0.0
42
0.0
10
179.120102252971
20
264.490967661594
40
0.0
41
0.0
42
0.0
10
179.368254997992
20
264.862028596759
40
0.0
41
0.0
42
0.0
10
178.319874784757
20
263.189311636518
40
0.0
41
0.0
42
0.0
10
177.915691938673
20
262.277721260971
40
0.0
41
0.0
42
0.0
10
177.719186892191
20
261.261055607163
40
0.0
41
0.0
42
0.0
10
177.675171783652
20
260.196734901507
40
0.0
41
0.0
42
0.0
10
177.728458751396
20
259.142179370416
40
0.0
41
0.0
42
0.0
10
177.823859933764
20
258.154809240306
40
0.0
41
0.0
42
0.0
10
177.906187469095
20
257.29204473759
40
0.0
41
0.0
42
0.0
10
177.92025349573
20
256.611306088681
40
0.0
41
0.0
42
0.0
10
177.81087015201
20
256.170013519993
40
0.0
41
0.0
42
0.0
10
177.522849576273
20
256.025587257941
40
0.0
41
0.0
42
0.0
10
177.001003906862
20
256.235447528937
40
0.0
41
0.0
42
0.0
10
179.191517807314
20
254.881635485629
40
0.0
41
0.0
42
0.0
10
179.373678985254
20
254.649891831006
40
0.0
41
0.0
42
0.0
10
179.455276401262
20
254.289399160091
40
0.0
41
0.0
42
0.0
10
179.464295497534
20
253.853995825293
40
0.0
41
0.0
42
0.0
10
179.428721716265
20
253.397520179022
40
0.0
41
0.0
42
0.0
10
179.376540499651
20
252.973810573684
40
0.0
41
0.0
42
0.0
10
179.335737289889
20
252.636705361689
40
0.0
41
0.0
42
0.0
10
179.334297529172
20
252.440042895445
40
0.0
41
0.0
42
0.0
10
179.400206659697
20
252.43766152736
40
0.0
41
0.0
42
0.0
10
179.56145012366
20
252.683399609842
40
0.0
41
0.0
42
0.0
10
179.846013363256
20
253.231095495301
40
0.0
41
0.0
42
0.0
10
178.660841336108
20
250.842359147246
40
0.0
41
0.0
42
0.0
10
178.380443190719
20
250.143448734211
40
0.0
41
0.0
42
0.0
10
178.137567441237
20
249.30348852483
40
0.0
41
0.0
42
0.0
10
177.928808508687
20
248.391887330115
40
0.0
41
0.0
42
0.0
10
177.750760814096
20
247.478053961079
40
0.0
41
0.0
42
0.0
10
177.600018778488
20
246.631397228733
40
0.0
41
0.0
42
0.0
10
177.47317682289
20
245.921325944091
40
0.0
41
0.0
42
0.0
10
177.366829368327
20
245.417248918164
40
0.0
41
0.0
42
0.0
10
177.277570835825
20
245.188574961965
40
0.0
41
0.0
42
0.0
10
177.201995646408
20
245.304712886505
40
0.0
41
0.0
42
0.0
10
177.136698221104
20
245.835071502797
40
0.0
41
0.0
42
0.0
10
177.341010675238
20
243.29972072778
40
0.0
41
0.0
42
0.0
10
177.343110803903
20
241.902418209728
40
0.0
41
0.0
42
0.0
10
177.159356715363
20
240.653729604999
40
0.0
41
0.0
42
0.0
10
176.859383470267
20
239.566737747789
40
0.0
41
0.0
42
0.0
10
176.512826129268
20
238.654525472294
40
0.0
41
0.0
42
0.0
10
176.189319753016
20
237.930175612709
40
0.0
41
0.0
42
0.0
10
175.958499402162
20
237.40677100323
40
0.0
41
0.0
42
0.0
10
175.890000137358
20
237.097394478052
40
0.0
41
0.0
42
0.0
10
176.053457019254
20
237.015128871371
40
0.0
41
0.0
42
0.0
10
176.518505108501
20
237.173057017381
40
0.0
41
0.0
42
0.0
10
177.354779465751
20
237.58426175028
40
0.0
41
0.0
42
0.0
10
173.871115538636
20
235.776915180032
40
0.0
41
0.0
42
0.0
10
173.262401322499
20
235.341541156754
40
0.0
41
0.0
42
0.0
10
172.363363594171
20
234.560837020462
40
0.0
41
0.0
42
0.0
10
171.285961569065
20
233.559533089396
40
0.0
41
0.0
42
0.0
10
170.142154462596
20
232.462359681792
40
0.0
41
0.0
42
0.0
10
169.043901490176
20
231.394047115887
40
0.0
41
0.0
42
0.0
10
168.103161867221
20
230.479325709919
40
0.0
41
0.0
42
0.0
10
167.431894809144
20
229.842925782124
40
0.0
41
0.0
42
0.0
10
167.142059531359
20
229.609577650741
40
0.0
41
0.0
42
0.0
10
167.34561524928
20
229.904011634006
40
0.0
41
0.0
42
0.0
10
168.154521178321
20
230.850958050157
40
0.0
41
0.0
42
0.0
10
164.324851934747
20
226.468360032359
40
0.0
41
0.0
42
0.0
10
162.083884205427
20
223.825677578949
40
0.0
41
0.0
42
0.0
10
160.21866593901
20
221.487493160839
40
0.0
41
0.0
42
0.0
10
158.683377036246
20
219.447607218973
40
0.0
41
0.0
42
0.0
10
157.432197397885
20
217.699820194295
40
0.0
41
0.0
42
0.0
10
156.419306924679
20
216.237932527747
40
0.0
41
0.0
42
0.0
10
155.598885517377
20
215.055744660274
40
0.0
41
0.0
42
0.0
10
154.925113076731
20
214.14705703282
40
0.0
41
0.0
42
0.0
10
154.352169503491
20
213.505670086327
40
0.0
41
0.0
42
0.0
10
153.834234698408
20
213.125384261739
40
0.0
41
0.0
42
0.0
10
153.325488562232
20
213.0
40
0.0
41
0.0
42
0.0
10
155.056905789362
20
213.0
40
0.0
41
0.0
42
0.0
10
155.26876668665
20
212.913798005732
40
0.0
41
0.0
42
0.0
10
155.428022890162
20
212.688947115996
40
0.0
41
0.0
42
0.0
10
155.5449796979
20
212.376079970393
40
0.0
41
0.0
42
0.0
10
155.629942407868
20
212.025829208525
40
0.0
41
0.0
42
0.0
10
155.693216318069
20
211.688827469992
40
0.0
41
0.0
42
0.0
10
155.745106726506
20
211.415707394398
40
0.0
41
0.0
42
0.0
10
155.795918931183
20
211.257101621343
40
0.0
41
0.0
42
0.0
10
155.855958230103
20
211.263642790429
40
0.0
41
0.0
42
0.0
10
155.935529921269
20
211.485963541256
40
0.0
41
0.0
42
0.0
10
156.044939302686
20
211.974696513428
40
0.0
41
0.0
42
0.0
10
155.619061549767
20
209.845307748837
40
0.0
41
0.0
42
0.0
10
155.316988748882
20
208.798719171136
40
0.0
41
0.0
42
0.0
10
154.873221652522
20
207.786431894635
40
0.0
41
0.0
42
0.0
10
154.348942347996
20
206.837189243552
40
0.0
41
0.0
42
0.0
10
153.805332922615
20
205.979734542104
40
0.0
41
0.0
42
0.0
10
153.303575463687
20
205.24281111451
40
0.0
41
0.0
42
0.0
10
152.90485205852
20
204.655162284986
40
0.0
41
0.0
42
0.0
10
152.670344794425
20
204.245531377751
40
0.0
41
0.0
42
0.0
10
152.661235758709
20
204.042661717023
40
0.0
41
0.0
42
0.0
10
152.938707038683
20
204.075296627018
40
0.0
41
0.0
42
0.0
10
153.563940721655
20
204.372179431956
40
0.0
41
0.0
42
0.0
10
150.832244343075
20
202.910219897019
40
0.0
41
0.0
42
0.0
10
150.354215594102
20
203.41250212362
40
0.0
41
0.0
42
0.0
10
149.967358633334
20
205.148048654328
40
0.0
41
0.0
42
0.0
10
149.662051066416
20
207.614069358286
40
0.0
41
0.0
42
0.0
10
149.428670498993
20
210.307774104637
40
0.0
41
0.0
42
0.0
10
149.257594536712
20
212.726372762523
40
0.0
41
0.0
42
0.0
10
149.139200785216
20
214.367075201087
40
0.0
41
0.0
42
0.0
10
149.063866850152
20
214.727091289471
40
0.0
41
0.0
42
0.0
10
149.021970337164
20
213.303630896818
40
0.0
41
0.0
42
0.0
10
149.003888851899
20
209.59390389227
40
0.0
41
0.0
42
0.0
10
149.0
20
203.095120144969
40
0.0
41
0.0
42
0.0
210
0.0
220
0.0
230
1.0
0
VIEWPORT
5
29
330
25
100
AcDbEntity
67
1
8
0
62
256
6
ByLayer
370
-1
48
1.0
60
0
100
AcDbViewport
10
0.0
20
0.0
30
0.0
40
297.0
41
210.0
68
1
69
1
12
50.0
22
100.0
13
0.0
23
0.0
14
10.0
24
10.0
15
10.0
25
10.0
16
0.0
26
0.0
36
1.0
17
0.0
27
0.0
37
0.0
42
50.0
43
0.0
44
0.0
45
250.0
50
0.0
51
0.0
72
1000
90
819232
110
0.0
120
0.0
130
0.0
111
1.0
121
0.0
131
0.0
112
0.0
122
1.0
132
0.0
0
ENDSEC
0
SECTION
2
OBJECTS
0
DICTIONARY
5
2E
330
0
100
AcDbDictionary
280
0
281
1
3
ACAD_GROUP
350
2F
3
ACAD_LAYOUT
350
30
3
ACAD_MLINESTYLE
350
34
0
DICTIONARY
5
2F
330
2E
100
AcDbDictionary
280
0
281
1
0
DICTIONARY
5
30
330
2E
100
AcDbDictionary
280
0
281
1
3
Model
350
1E
3
Layout1
350
2A
0
DICTIONARY
5
34
330
2E
100
AcDbDictionary
280
0
281
1
3
Standard
350
19
0
LAYOUT
5
1E
330
30
100
AcDbPlotSettings
1

2
none_device
4
ISO_A4_(210.00_x_297.00_MM)
6

40
7.5
41
20.0
42
7.5
43
20.0
44
210.0
45
297.0
46
0.0
47
0.0
48
0.0
49
0.0
140
0.0
141
0.0
142
1.0
143
1.0
70
11952
72
1
73
1
74
5
7

75
16
147
1.0
148
0.0
149
0.0
100
AcDbLayout
1
Model
70
1
71
0
10
-20.0
20
-7.5
11
277.0
21
202.5
12
0.0
22
0.0
32
0.0
14
25.7
24
19.5
34
0.0
15
231.3
25
175.5
35
0.0
146
0.0
13
0.0
23
0.0
33
0.0
16
1.0
26
0.0
36
0.0
17
0.0
27
1.0
37
0.0
76
0
330
1A
0
LAYOUT
5
2A
330
30
100
AcDbPlotSettings
1

2
none_device
4
ISO_A4_(210.00_x_297.00_MM)
6

40
7.5
41
20.0
42
7.5
43
20.0
44
210.0
45
297.0
46
0.0
47
0.0
48
0.0
49
0.0
140
0.0
141
0.0
142
1.0
143
1.0
70
688
72
1
73
1
74
5
7

75
16
147
1.0
148
0.0
149
0.0
100
AcDbLayout
1
Layout1
70
1
71
1
10
-20.0
20
-7.5
11
277.0
21
202.5
12
0.0
22
0.0
32
0.0
14
25.7
24
19.5
34
0.0
15
231.3
25
175.5
35
0.0
146
0.0
13
0.0
23
0.0
33
0.0
16
1.0
26
0.0
36
0.0
17
0.0
27
1.0
37
0.0
76
0
330
25
0
MLINESTYLE
5
19
330
34
100
AcDbMlineStyle
2
Standard
70
0
3

62
256
51
90.0
52
90.0
71
2
49
-0.5
62
256
6
ByLayer
49
0.5
62
256
6
ByLayer
0
ENDSEC
0
EOF
