999
Dxf file generated by netDxf http://netdxf.codeplex.com, Copyright(C) 2014 Daniel Carvajal, Licensed under LGPL
0
SECTION
2
HEADER
9
$ACADVER
1
AC1027
9
$DWGCODEPAGE
3
ANSI_1252
9
$LASTSAVEDBY
1
Brandon Njimefo
9
$HANDSEED
5
2E
9
$ANGBASE
50
0.0
9
$ANGDIR
70
0
9
$ATTMODE
70
1
9
$AUNITS
70
0
9
$AUPREC
70
0
9
$CECOLOR
62
256
9
$CELTSCALE
40
1.0
9
$CELTYPE
6
ByLayer
9
$CELWEIGHT
370
-1
9
$CLAYER
8
0
9
$CMLJUST
70
0
9
$CMLSCALE
40
20.0
9
$CMLSTYLE
2
Standard
9
$DIMSTYLE
2
Standard
9
$TEXTSIZE
40
2.5
9
$TEXTSTYLE
7
Standard
9
$LUNITS
70
2
9
$LUPREC
70
4
9
$EXTNAMES
290
1
9
$INSBASE
10
0.0
20
0.0
30
0.0
9
$INSUNITS
70
0
9
$LTSCALE
40
1.0
9
$LWDISPLAY
290
0
9
$PDMODE
70
0
9
$PDSIZE
40
0.0
9
$PLINEGEN
70
0
9
$TDCREATE
40
2459002.73131218
9
$TDUCREATE
40
2459002.64797884
9
$TDUPDATE
40
2459002.73131218
9
$TDUUPDATE
40
2459002.64797884
9
$TDINDWG
40
0.0
0
ENDSEC
0
SECTION
2
CLASSES
0
CLASS
1
RASTERVARIABLES
2
AcDbRasterVariables
3
ISM
90
0
91
1
280
0
281
0
0
ENDSEC
0
SECTION
2
TABLES
0
TABLE
2
APPID
5
3
330
0
100
AcDbSymbolTable
70
2
0
APPID
5
14
330
3
100
AcDbSymbolTableRecord
100
AcDbRegAppTableRecord
2
ACAD
70
0
0
APPID
5
28
330
3
100
AcDbSymbolTableRecord
100
AcDbRegAppTableRecord
2
AcCmTransparency
70
0
0
ENDTAB
0
TABLE
2
VPORT
5
1
330
0
100
AcDbSymbolTable
70
1
0
VPORT
5
E
330
1
100
AcDbSymbolTableRecord
100
AcDbViewportTableRecord
2
*Active
70
0
10
0.0
20
0.0
11
1.0
21
1.0
12
-1.0
22
1.0
13
0.0
23
0.0
14
0.5
24
0.5
15
10.0
25
10.0
16
0.0
26
0.0
36
1.0
17
0.0
27
0.0
37
0.0
0
ENDTAB
0
TABLE
2
LTYPE
5
5
330
0
100
AcDbSymbolTable
70
3
0
LTYPE
5
10
330
5
100
AcDbSymbolTableRecord
100
AcDbLinetypeTableRecord
70
0
2
Continuous
3
Solid line
72
65
73
0
40
0.0
0
LTYPE
5
11
330
5
100
AcDbSymbolTableRecord
100
AcDbLinetypeTableRecord
70
0
2
ByLayer
3

72
65
73
0
40
0.0
0
LTYPE
5
12
330
5
100
AcDbSymbolTableRecord
100
AcDbLinetypeTableRecord
70
0
2
ByBlock
3

72
65
73
0
40
0.0
0
ENDTAB
0
TABLE
2
LAYER
5
4
330
0
100
AcDbSymbolTable
70
1
0
LAYER
5
F
330
4
100
AcDbSymbolTableRecord
100
AcDbLayerTableRecord
2
0
70
0
62
7
6
Continuous
290
1
370
-3
390
0
0
ENDTAB
0
TABLE
2
STYLE
5
6
330
0
100
AcDbSymbolTable
70
1
0
STYLE
5
13
330
6
100
AcDbSymbolTableRecord
100
AcDbTextStyleTableRecord
2
Standard
3
simplex.shx
70
0
71
0
40
0.0
41
1.0
42
0.0
50
0.0
0
ENDTAB
0
TABLE
2
DIMSTYLE
5
7
330
0
100
AcDbSymbolTable
70
1
100
AcDbDimStyleTable
0
DIMSTYLE
105
15
330
7
100
AcDbSymbolTableRecord
100
AcDbDimStyleTableRecord
2
Standard
70
0
3
<>
40
1.0
41
0.18
42
0.0625
43
0.38
44
0.18
46
0.0
73
0
74
0
75
0
76
0
77
1
140
0.18
141
0.09
147
0.09
173
0
176
0
177
0
178
0
179
0
271
2
275
0
278
46
280
0
340
13
345
12
346
12
347
12
371
-2
372
-2
0
ENDTAB
0
TABLE
2
VIEW
5
2
330
0
100
AcDbSymbolTable
70
0
0
ENDTAB
0
TABLE
2
UCS
5
9
330
0
100
AcDbSymbolTable
70
0
0
ENDTAB
0
TABLE
2
BLOCK_RECORD
5
A
330
0
100
AcDbSymbolTable
70
2
0
BLOCK_RECORD
5
17
330
A
100
AcDbSymbolTableRecord
100
AcDbBlockTableRecord
2
*Model_Space
340
1B
0
BLOCK_RECORD
5
22
330
A
100
AcDbSymbolTableRecord
100
AcDbBlockTableRecord
2
*Paper_Space
340
27
0
ENDTAB
0
ENDSEC
0
SECTION
2
BLOCKS
0
BLOCK
5
19
330
17
100
AcDbEntity
8
0
100
AcDbBlockBegin
2
*Model_Space
70
0
10
0.0
20
0.0
30
0.0
3
*Model_Space
0
ENDBLK
5
18
330
17
100
AcDbEntity
8
0
100
AcDbBlockEnd
0
BLOCK
5
24
330
22
100
AcDbEntity
8
0
100
AcDbBlockBegin
2
*Paper_Space
70
0
10
0.0
20
0.0
30
0.0
3
*Paper_Space
0
ENDBLK
5
23
330
22
100
AcDbEntity
8
0
100
AcDbBlockEnd
0
ENDSEC
0
SECTION
2
ENTITIES
0
LWPOLYLINE
5
1D
330
17
100
AcDbEntity
67
0
8
0
62
256
6
ByLayer
370
-1
48
1.0
60
0
100
AcDbPolyline
90
1332
70
0
38
0.0
39
0.0
10
150.061452778477
20
21.25
40
0.0
41
0.0
42
0.0
10
150.023660207605
20
21.6442125
40
0.0
41
0.0
42
0.0
10
150.043318115517
20
22.3412
40
0.0
41
0.0
42
0.0
10
150.102899058354
20
23.2312375
40
0.0
41
0.0
42
0.0
10
150.184875592254
20
24.2046
40
0.0
41
0.0
42
0.0
10
150.271720273358
20
25.1515625
40
0.0
41
0.0
42
0.0
10
150.345905657805
20
25.9624
40
0.0
41
0.0
42
0.0
10
150.389904301736
20
26.5273875
40
0.0
41
0.0
42
0.0
10
150.386188761289
20
26.7368
40
0.0
41
0.0
42
0.0
10
150.317231592604
20
26.4809125
40
0.0
41
0.0
42
0.0
10
150.165505351822
20
25.65
40
0.0
41
0.0
42
0.0
10
150.828682878882
20
29.5
40
0.0
41
0.0
42
0.0
10
152.03446020081
20
36.5
40
0.0
41
0.0
42
0.0
10
152.03446020081
20
36.5
40
0.0
41
0.0
42
0.0
10
155.978493936491
20
37.32911513366
40
0.0
41
0.0
42
0.0
10
155.978493936491
20
37.32911513366
40
0.0
41
0.0
42
0.0
10
157.486774307689
20
37.9406568384373
40
0.0
41
0.0
42
0.0
10
158.717287168877
20
38.9627853893738
40
0.0
41
0.0
42
0.0
10
159.705633778252
20
40.2230410222016
40
0.0
41
0.0
42
0.0
10
160.487415394011
20
41.5489639726529
40
0.0
41
0.0
42
0.0
10
161.09823327435
20
42.7680944764598
40
0.0
41
0.0
42
0.0
10
161.573688677467
20
43.7079727693546
40
0.0
41
0.0
42
0.0
10
161.949382861556
20
44.1961390870694
40
0.0
41
0.0
42
0.0
10
162.260917084816
20
44.0601336653364
40
0.0
41
0.0
42
0.0
10
162.543892605442
20
43.1274967398878
40
0.0
41
0.0
42
0.0
10
162.833910681632
20
41.2257685464558
40
0.0
41
0.0
42
0.0
10
161.815889214844
20
49.3716365981659
40
0.0
41
0.0
42
0.0
10
161.788279504912
20
49.8724702857799
40
0.0
41
0.0
42
0.0
10
161.813085780095
20
50.4096984830311
40
0.0
41
0.0
42
0.0
10
161.874115634434
20
50.9568720076259
40
0.0
41
0.0
42
0.0
10
161.955176661972
20
51.4875416772704
40
0.0
41
0.0
42
0.0
10
162.040076456749
20
51.975258309671
40
0.0
41
0.0
42
0.0
10
162.112622612806
20
52.3935727225338
40
0.0
41
0.0
42
0.0
10
162.156622724184
20
52.7160357335651
40
0.0
41
0.0
42
0.0
10
162.155884384926
20
52.9161981604711
40
0.0
41
0.0
42
0.0
10
162.094215189071
20
52.9676108209581
40
0.0
41
0.0
42
0.0
10
161.955422730662
20
52.8438245327323
40
0.0
41
0.0
42
0.0
10
162.564594591793
20
53.577831721666
40
0.0
41
0.0
42
0.0
10
162.817262315747
20
54.0147085871893
40
0.0
41
0.0
42
0.0
10
162.90603387039
20
54.4726901569021
40
0.0
41
0.0
42
0.0
10
162.875400598082
20
54.9359738302591
40
0.0
41
0.0
42
0.0
10
162.769853841182
20
55.3887570067151
40
0.0
41
0.0
42
0.0
10
162.63388494205
20
55.8152370857249
40
0.0
41
0.0
42
0.0
10
162.511985243046
20
56.1996114667434
40
0.0
41
0.0
42
0.0
10
162.448646086531
20
56.5260775492254
40
0.0
41
0.0
42
0.0
10
162.488358814863
20
56.7788327326256
40
0.0
41
0.0
42
0.0
10
162.675614770402
20
56.9420744163989
40
0.0
41
0.0
42
0.0
10
163.054905295509
20
57.0
40
0.0
41
0.0
42
0.0
10
161.421111104363
20
57.0
40
0.0
41
0.0
42
0.0
10
161.153551753816
20
57.0708522057997
40
0.0
41
0.0
42
0.0
10
160.711006627768
20
57.2570812276011
40
0.0
41
0.0
42
0.0
10
160.158051935702
20
57.5191956720077
40
0.0
41
0.0
42
0.0
10
159.559263887101
20
57.8177041456228
40
0.0
41
0.0
42
0.0
10
158.979218691447
20
58.11311525505
40
0.0
41
0.0
42
0.0
10
158.482492558224
20
58.3659376068927
40
0.0
41
0.0
42
0.0
10
158.133661696915
20
58.5366798077543
40
0.0
41
0.0
42
0.0
10
157.997302317001
20
58.5858504642382
40
0.0
41
0.0
42
0.0
10
158.137990627966
20
58.473958182948
40
0.0
41
0.0
42
0.0
10
158.620302839292
20
58.161511570487
40
0.0
41
0.0
42
0.0
10
156.371470957066
20
59.5811368233044
40
0.0
41
0.0
42
0.0
10
155.516572462275
20
60.0631702669295
40
0.0
41
0.0
42
0.0
10
154.643743323507
20
60.4638543864044
40
0.0
41
0.0
42
0.0
10
153.790487894024
20
60.7934319199861
40
0.0
41
0.0
42
0.0
10
152.994310527089
20
61.0621456059317
40
0.0
41
0.0
42
0.0
10
152.292715575962
20
61.2802381824983
40
0.0
41
0.0
42
0.0
10
151.723207393905
20
61.4579523879428
40
0.0
41
0.0
42
0.0
10
151.32329033418
20
61.6055309605224
40
0.0
41
0.0
42
0.0
10
151.130468750048
20
61.7332166384941
40
0.0
41
0.0
42
0.0
10
151.182246994771
20
61.8512521601148
40
0.0
41
0.0
42
0.0
10
151.516129421611
20
61.9698802636417
40
0.0
41
0.0
42
0.0
10
149.891342858328
20
61.5620847950895
40
0.0
41
0.0
42
0.0
10
149.504782285279
20
61.4920820889489
40
0.0
41
0.0
42
0.0
10
149.137591589383
20
61.4709371467616
40
0.0
41
0.0
42
0.0
10
148.794792590642
20
61.484851251377
40
0.0
41
0.0
42
0.0
10
148.481407109058
20
61.5200256856448
40
0.0
41
0.0
42
0.0
10
148.202456964634
20
61.5626617324146
40
0.0
41
0.0
42
0.0
10
147.962963977372
20
61.598960674536
40
0.0
41
0.0
42
0.0
10
147.767949967276
20
61.6151237948586
40
0.0
41
0.0
42
0.0
10
147.622436754346
20
61.5973523762319
40
0.0
41
0.0
42
0.0
10
147.531446158587
20
61.5318477015055
40
0.0
41
0.0
42
0.0
10
147.5
20
61.4048110535291
40
0.0
41
0.0
42
0.0
10
147.5
20
61.9461517434789
40
0.0
41
0.0
42
0.0
10
147.409138603861
20
62.1816993500012
40
0.0
41
0.0
42
0.0
10
147.170317120019
20
62.5337548759495
40
0.0
41
0.0
42
0.0
10
146.83417960534
20
62.9576440018509
40
0.0
41
0.0
42
0.0
10
146.451370116688
20
63.4086924082325
40
0.0
41
0.0
42
0.0
10
146.072532710927
20
63.8422257756215
40
0.0
41
0.0
42
0.0
10
145.748311444921
20
64.213569784545
40
0.0
41
0.0
42
0.0
10
145.529350375537
20
64.47805011553
40
0.0
41
0.0
42
0.0
10
145.466293559637
20
64.5909924491037
40
0.0
41
0.0
42
0.0
10
145.609785054086
20
64.5077224657931
40
0.0
41
0.0
42
0.0
10
146.010468915749
20
64.1835658461254
40
0.0
41
0.0
42
0.0
10
144.189930923888
20
65.7152037716938
40
0.0
41
0.0
42
0.0
10
143.178434301973
20
66.7879019366019
40
0.0
41
0.0
42
0.0
10
142.191772488373
20
68.2022674782477
40
0.0
41
0.0
42
0.0
10
141.249174390763
20
69.8208186797039
40
0.0
41
0.0
42
0.0
10
140.36986891682
20
71.5060738240432
40
0.0
41
0.0
42
0.0
10
139.573084974218
20
73.1205511943382
40
0.0
41
0.0
42
0.0
10
138.878051470635
20
74.5267690736616
40
0.0
41
0.0
42
0.0
10
138.303997313746
20
75.5872457450859
40
0.0
41
0.0
42
0.0
10
137.870151411227
20
76.1644994916839
40
0.0
41
0.0
42
0.0
10
137.595742670753
20
76.1210485965282
40
0.0
41
0.0
42
0.0
10
137.5
20
75.3194113426914
40
0.0
41
0.0
42
0.0
10
137.5
20
79.4079369165351
40
0.0
41
0.0
42
0.0
10
137.374668003517
20
80.6363160189786
40
0.0
41
0.0
42
0.0
10
137.045317658212
20
81.9385820054191
40
0.0
41
0.0
42
0.0
10
136.581917430298
20
83.254553166829
40
0.0
41
0.0
42
0.0
10
136.05443578599
20
84.5240477941811
40
0.0
41
0.0
42
0.0
10
135.532841191503
20
85.686884178448
40
0.0
41
0.0
42
0.0
10
135.087102113051
20
86.6828806106024
40
0.0
41
0.0
42
0.0
10
134.787187016848
20
87.451855381617
40
0.0
41
0.0
42
0.0
10
134.703064369109
20
87.9336267824643
40
0.0
41
0.0
42
0.0
10
134.904702636048
20
88.0680131041171
40
0.0
41
0.0
42
0.0
10
135.46207028388
20
87.794832637548
40
0.0
41
0.0
42
0.0
10
132.933553082715
20
89.4515807387342
40
0.0
41
0.0
42
0.0
10
132.395101954382
20
89.9081887991378
40
0.0
41
0.0
42
0.0
10
131.962831710219
20
90.4597062218287
40
0.0
41
0.0
42
0.0
10
131.622322758592
20
91.0508997181791
40
0.0
41
0.0
42
0.0
10
131.359155507866
20
91.6265359995615
40
0.0
41
0.0
42
0.0
10
131.158910366406
20
92.1313817773482
40
0.0
41
0.0
42
0.0
10
131.007167742578
20
92.5102037629117
40
0.0
41
0.0
42
0.0
10
130.889508044747
20
92.7077686676241
40
0.0
41
0.0
42
0.0
10
130.791511681279
20
92.6688432028579
40
0.0
41
0.0
42
0.0
10
130.698759060539
20
92.3381940799854
40
0.0
41
0.0
42
0.0
10
130.596830590893
20
91.6605880103791
40
0.0
41
0.0
42
0.0
10
130.967907006374
20
94.5589068076542
40
0.0
41
0.0
42
0.0
10
131.029409863831
20
96.0488113269985
40
0.0
41
0.0
42
0.0
10
130.862474064596
20
97.393445108588
40
0.0
41
0.0
42
0.0
10
130.54029913235
20
98.5943905643622
40
0.0
41
0.0
42
0.0
10
130.13608459077
20
99.6532301062608
40
0.0
41
0.0
42
0.0
10
129.723029963536
20
100.571546146223
40
0.0
41
0.0
42
0.0
10
129.374334774327
20
101.350921096189
40
0.0
41
0.0
42
0.0
10
129.163198546821
20
101.992937368097
40
0.0
41
0.0
42
0.0
10
129.162820804699
20
102.499177373888
40
0.0
41
0.0
42
0.0
10
129.446401071637
20
102.871223525501
40
0.0
41
0.0
42
0.0
10
130.087138871317
20
103.110658234875
40
0.0
41
0.0
42
0.0
10
127.274750847064
20
102.531803371871
40
0.0
41
0.0
42
0.0
10
126.369096551651
20
102.575727507213
40
0.0
41
0.0
42
0.0
10
125.547554937139
20
103.011262784613
40
0.0
41
0.0
42
0.0
10
124.810154532534
20
103.708876713856
40
0.0
41
0.0
42
0.0
10
124.156923866841
20
104.539036804727
40
0.0
41
0.0
42
0.0
10
123.587891469064
20
105.372210567012
40
0.0
41
0.0
42
0.0
10
123.10308586821
20
106.078865510497
40
0.0
41
0.0
42
0.0
10
122.702535593284
20
106.529469144967
40
0.0
41
0.0
42
0.0
10
122.386269173291
20
106.594488980208
40
0.0
41
0.0
42
0.0
10
122.154315137236
20
106.144392526006
40
0.0
41
0.0
42
0.0
10
122.006702014126
20
105.049647292146
40
0.0
41
0.0
42
0.0
10
122.358145870695
20
109.917137693569
40
0.0
41
0.0
42
0.0
10
122.368832083883
20
110.652843502058
40
0.0
41
0.0
42
0.0
10
122.310823191234
20
111.387155350852
40
0.0
41
0.0
42
0.0
10
122.206782490829
20
112.095901387419
40
0.0
41
0.0
42
0.0
10
122.079373280751
20
112.754909759228
40
0.0
41
0.0
42
0.0
10
121.951258859081
20
113.340008613748
40
0.0
41
0.0
42
0.0
10
121.845102523901
20
113.827026098446
40
0.0
41
0.0
42
0.0
10
121.783567573295
20
114.191790360792
40
0.0
41
0.0
42
0.0
10
121.789317305345
20
114.410129548254
40
0.0
41
0.0
42
0.0
10
121.885015018131
20
114.457871808301
40
0.0
41
0.0
42
0.0
10
122.093324009738
20
114.3108452884
40
0.0
41
0.0
42
0.0
10
121.18609379737
20
115.152405935237
40
0.0
41
0.0
42
0.0
10
120.928723184245
20
115.461264423385
40
0.0
41
0.0
42
0.0
10
120.646426091135
20
115.907425609764
40
0.0
41
0.0
42
0.0
10
120.354812905198
20
116.437327139335
40
0.0
41
0.0
42
0.0
10
120.069494013591
20
116.997406657059
40
0.0
41
0.0
42
0.0
10
119.806079803474
20
117.534101807898
40
0.0
41
0.0
42
0.0
10
119.580180662003
20
117.993850236812
40
0.0
41
0.0
42
0.0
10
119.407406976335
20
118.323089588762
40
0.0
41
0.0
42
0.0
10
119.30336913363
20
118.468257508709
40
0.0
41
0.0
42
0.0
10
119.283677521045
20
118.375791641615
40
0.0
41
0.0
42
0.0
10
119.363942525737
20
117.99212963244
40
0.0
41
0.0
42
0.0
10
118.912453273348
20
119.815843627645
40
0.0
41
0.0
42
0.0
10
118.660428049835
20
120.541534338798
40
0.0
41
0.0
42
0.0
10
118.31184149594
20
121.191405827315
40
0.0
41
0.0
42
0.0
10
117.911625685875
20
121.762136062064
40
0.0
41
0.0
42
0.0
10
117.50471269385
20
122.250403011913
40
0.0
41
0.0
42
0.0
10
117.136034594077
20
122.65288464573
40
0.0
41
0.0
42
0.0
10
116.850523460769
20
122.966258932383
40
0.0
41
0.0
42
0.0
10
116.693111368137
20
123.18720384074
40
0.0
41
0.0
42
0.0
10
116.708730390392
20
123.31239733967
40
0.0
41
0.0
42
0.0
10
116.942312601747
20
123.338517398039
40
0.0
41
0.0
42
0.0
10
117.438790076412
20
123.262241984718
40
0.0
41
0.0
42
0.0
10
115.295781861774
20
123.690843627645
40
0.0
41
0.0
42
0.0
10
114.843843723819
20
123.805929415988
40
0.0
41
0.0
42
0.0
10
114.414551418943
20
123.956704900579
40
0.0
41
0.0
42
0.0
10
114.013776089058
20
124.128229665075
40
0.0
41
0.0
42
0.0
10
113.647388876072
20
124.305563293135
40
0.0
41
0.0
42
0.0
10
113.321260921896
20
124.473765368417
40
0.0
41
0.0
42
0.0
10
113.04126336844
20
124.617895474578
40
0.0
41
0.0
42
0.0
10
112.813267357612
20
124.723013195277
40
0.0
41
0.0
42
0.0
10
112.643144031323
20
124.774178114171
40
0.0
41
0.0
42
0.0
10
112.536764531482
20
124.756449814919
40
0.0
41
0.0
42
0.0
10
112.5
20
124.654887881179
40
0.0
41
0.0
42
0.0
10
112.5
20
125.149750847064
40
0.0
41
0.0
42
0.0
10
112.435445167733
20
125.319739274974
40
0.0
41
0.0
42
0.0
10
112.265768258877
20
125.522407063306
40
0.0
41
0.0
42
0.0
10
112.026950655353
20
125.742184638257
40
0.0
41
0.0
42
0.0
10
111.754973739079
20
125.963502426027
40
0.0
41
0.0
42
0.0
10
111.485818891975
20
126.170790852813
40
0.0
41
0.0
42
0.0
10
111.255467495961
20
126.348480344813
40
0.0
41
0.0
42
0.0
10
111.099900932957
20
126.481001328225
40
0.0
41
0.0
42
0.0
10
111.05510058488
20
126.552784229249
40
0.0
41
0.0
42
0.0
10
111.157047833652
20
126.548259474081
40
0.0
41
0.0
42
0.0
10
111.441724061192
20
126.451857488921
40
0.0
41
0.0
42
0.0
10
110.148275691537
20
126.943625682557
40
0.0
41
0.0
42
0.0
10
109.588894618242
20
127.301969882292
40
0.0
41
0.0
42
0.0
10
109.092463202171
20
127.866878205158
40
0.0
41
0.0
42
0.0
10
108.661606555734
20
128.546095211218
40
0.0
41
0.0
42
0.0
10
108.298949791342
20
129.247365460536
40
0.0
41
0.0
42
0.0
10
108.007118021405
20
129.878433513176
40
0.0
41
0.0
42
0.0
10
107.788736358334
20
130.347043929201
40
0.0
41
0.0
42
0.0
10
107.646429914538
20
130.560941268674
40
0.0
41
0.0
42
0.0
10
107.582823802428
20
130.42787009166
40
0.0
41
0.0
42
0.0
10
107.600543134415
20
129.855574958222
40
0.0
41
0.0
42
0.0
10
107.702213022909
20
128.751800428423
40
0.0
41
0.0
42
0.0
10
107.220479008851
20
133.419353899394
40
0.0
41
0.0
42
0.0
10
107.061847869041
20
134.478613260594
40
0.0
41
0.0
42
0.0
10
106.819708822453
20
135.57381607172
40
0.0
41
0.0
42
0.0
10
106.527105438487
20
136.658230955513
40
0.0
41
0.0
42
0.0
10
106.217081286541
20
137.685126534715
40
0.0
41
0.0
42
0.0
10
105.922679936016
20
138.607771432066
40
0.0
41
0.0
42
0.0
10
105.67694495631
20
139.379434270307
40
0.0
41
0.0
42
0.0
10
105.512919916823
20
139.953383672181
40
0.0
41
0.0
42
0.0
10
105.463648386954
20
140.282888260428
40
0.0
41
0.0
42
0.0
10
105.562173936102
20
140.321216657788
40
0.0
41
0.0
42
0.0
10
105.841540133667
20
140.021637487005
40
0.0
41
0.0
42
0.0
10
104.572203317314
20
141.635337755702
40
0.0
41
0.0
42
0.0
10
104.23723165107
20
142.139833351462
40
0.0
41
0.0
42
0.0
10
103.919044831697
20
142.751062288712
40
0.0
41
0.0
42
0.0
10
103.62199448616
20
143.41965570822
40
0.0
41
0.0
42
0.0
10
103.350432241426
20
144.096244750749
40
0.0
41
0.0
42
0.0
10
103.108709724461
20
144.731460557067
40
0.0
41
0.0
42
0.0
10
102.901178562232
20
145.275934267939
40
0.0
41
0.0
42
0.0
10
102.732190381705
20
145.680297024132
40
0.0
41
0.0
42
0.0
10
102.606096809846
20
145.895179966411
40
0.0
41
0.0
42
0.0
10
102.527249473623
20
145.871214235542
40
0.0
41
0.0
42
0.0
10
102.5
20
145.559030972292
40
0.0
41
0.0
42
0.0
10
102.5
20
147.134858691801
40
0.0
41
0.0
42
0.0
10
102.47255
20
147.598008784271
40
0.0
41
0.0
42
0.0
10
102.4004
20
148.037951232145
40
0.0
41
0.0
42
0.0
10
102.29885
20
148.448669238676
40
0.0
41
0.0
42
0.0
10
102.1832
20
148.824146007115
40
0.0
41
0.0
42
0.0
10
102.06875
20
149.158364740717
40
0.0
41
0.0
42
0.0
10
101.9708
20
149.445308642733
40
0.0
41
0.0
42
0.0
10
101.90465
20
149.678960916416
40
0.0
41
0.0
42
0.0
10
101.8856
20
149.85330476502
40
0.0
41
0.0
42
0.0
10
101.92895
20
149.962323391797
40
0.0
41
0.0
42
0.0
10
102.05
20
150.0
40
0.0
41
0.0
42
0.0
10
101.5
20
150.0
40
0.0
41
0.0
42
0.0
10
101.319482856036
20
149.999245293514
40
0.0
41
0.0
42
0.0
10
101.116342166164
20
149.99726161144
40
0.0
41
0.0
42
0.0
10
100.903194043412
20
149.994469609851
40
0.0
41
0.0
42
0.0
10
100.692654600811
20
149.991289944821
40
0.0
41
0.0
42
0.0
10
100.497339951388
20
149.988143272424
40
0.0
41
0.0
42
0.0
10
100.329866208172
20
149.985450248735
40
0.0
41
0.0
42
0.0
10
100.202849484194
20
149.983631529827
40
0.0
41
0.0
42
0.0
10
100.128905892481
20
149.983107771774
40
0.0
41
0.0
42
0.0
10
100.120651546063
20
149.98429963065
40
0.0
41
0.0
42
0.0
10
100.19070255797
20
149.98762776253
40
0.0
41
0.0
42
0.0
10
99.8126723510437
20
149.972506138955
40
0.0
41
0.0
42
0.0
10
99.411070338598
20
150.11801481085
40
0.0
41
0.0
42
0.0
10
99.0181715267054
20
150.527105640068
40
0.0
41
0.0
42
0.0
10
98.6427922294764
20
151.110262737709
40
0.0
41
0.0
42
0.0
10
98.2937487610212
20
151.777970214872
40
0.0
41
0.0
42
0.0
10
97.9798574354503
20
152.440712182659
40
0.0
41
0.0
42
0.0
10
97.7099345668739
20
153.008972752169
40
0.0
41
0.0
42
0.0
10
97.4927964694024
20
153.393236034502
40
0.0
41
0.0
42
0.0
10
97.3372594571461
20
153.503986140759
40
0.0
41
0.0
42
0.0
10
97.2521398442153
20
153.25170718204
40
0.0
41
0.0
42
0.0
10
97.2462539447205
20
152.546883269444
40
0.0
41
0.0
42
0.0
10
97.1240215160764
20
155.75
40
0.0
41
0.0
42
0.0
10
97.0881708580359
20
156.2890875
40
0.0
41
0.0
42
0.0
10
97.0275916112694
20
156.8242
40
0.0
41
0.0
42
0.0
10
96.9513522163522
20
157.3408625
40
0.0
41
0.0
42
0.0
10
96.8685211138593
20
157.8246
40
0.0
41
0.0
42
0.0
10
96.7881667443659
20
158.2609375
40
0.0
41
0.0
42
0.0
10
96.7193575484471
20
158.6354
40
0.0
41
0.0
42
0.0
10
96.6711619666778
20
158.9335125
40
0.0
41
0.0
42
0.0
10
96.6526484396334
20
159.1408
40
0.0
41
0.0
42
0.0
10
96.6728854078888
20
159.2427875
40
0.0
41
0.0
42
0.0
10
96.7409413120193
20
159.225
40
0.0
41
0.0
42
0.0
10
96.4243140267095
20
159.5
40
0.0
41
0.0
42
0.0
10
95.5541142461602
20
160.336191440627
40
0.0
41
0.0
42
0.0
10
94.78397331314
20
161.215914985165
40
0.0
41
0.0
42
0.0
10
94.1082082763196
20
162.098567706673
40
0.0
41
0.0
42
0.0
10
93.5211361843696
20
162.943546678211
40
0.0
41
0.0
42
0.0
10
93.0170740859606
20
163.710248972838
40
0.0
41
0.0
42
0.0
10
92.5903390297634
20
164.358071663614
40
0.0
41
0.0
42
0.0
10
92.2352480644485
20
164.846411823599
40
0.0
41
0.0
42
0.0
10
91.9461182386867
20
165.134666525852
40
0.0
41
0.0
42
0.0
10
91.7172666011485
20
165.182232843433
40
0.0
41
0.0
42
0.0
10
91.5430102005047
20
164.948507849401
40
0.0
41
0.0
42
0.0
10
92.0391871981929
20
166.241524378796
40
0.0
41
0.0
42
0.0
10
92.0553312231187
20
166.933432259727
40
0.0
41
0.0
42
0.0
10
91.6816012713686
20
167.69830744324
40
0.0
41
0.0
42
0.0
10
91.0279663763691
20
168.506656857356
40
0.0
41
0.0
42
0.0
10
90.2043955715473
20
169.328987430097
40
0.0
41
0.0
42
0.0
10
89.3208578903297
20
170.135806089486
40
0.0
41
0.0
42
0.0
10
88.4873223661432
20
170.897619763544
40
0.0
41
0.0
42
0.0
10
87.8137580324147
20
171.584935380293
40
0.0
41
0.0
42
0.0
10
87.4101339225707
20
172.168259867755
40
0.0
41
0.0
42
0.0
10
87.3864190700382
20
172.618100153952
40
0.0
41
0.0
42
0.0
10
87.8525825082439
20
172.904963166906
40
0.0
41
0.0
42
0.0
10
85.360052748076
20
172.253151992441
40
0.0
41
0.0
42
0.0
10
85.0215906190011
20
172.12037458546
40
0.0
41
0.0
42
0.0
10
84.6538507494649
20
171.907854885866
40
0.0
41
0.0
42
0.0
10
84.2762260533073
20
171.645337983181
40
0.0
41
0.0
42
0.0
10
83.9081094443682
20
171.362568966928
40
0.0
41
0.0
42
0.0
10
83.5688938364874
20
171.089292926632
40
0.0
41
0.0
42
0.0
10
83.2779721435049
20
170.855254951815
40
0.0
41
0.0
42
0.0
10
83.0547372792604
20
170.690200132001
40
0.0
41
0.0
42
0.0
10
82.9185821575939
20
170.623873556712
40
0.0
41
0.0
42
0.0
10
82.8888996923453
20
170.686020315473
40
0.0
41
0.0
42
0.0
10
82.9850827973545
20
170.906385497805
40
0.0
41
0.0
42
0.0
10
82.4331488148501
20
169.875087417939
40
0.0
41
0.0
42
0.0
10
82.2203573014198
20
169.571979536829
40
0.0
41
0.0
42
0.0
10
81.933340263062
20
169.284059863805
40
0.0
41
0.0
42
0.0
10
81.6023933684223
20
169.015266082443
40
0.0
41
0.0
42
0.0
10
81.2578122861465
20
168.769535876322
40
0.0
41
0.0
42
0.0
10
80.9298926848803
20
168.55080692902
40
0.0
41
0.0
42
0.0
10
80.6489302332694
20
168.363016924113
40
0.0
41
0.0
42
0.0
10
80.4452205999595
20
168.21010354518
40
0.0
41
0.0
42
0.0
10
80.3490594535962
20
168.096004475799
40
0.0
41
0.0
42
0.0
10
80.3907424628254
20
168.024657399546
40
0.0
41
0.0
42
0.0
10
80.6005652962926
20
168.0
40
0.0
41
0.0
42
0.0
10
79.5872609569542
20
168.0
40
0.0
41
0.0
42
0.0
10
78.9553882426471
20
167.892497619904
40
0.0
41
0.0
42
0.0
10
78.3647656267115
20
167.606689842015
40
0.0
41
0.0
42
0.0
10
77.8149244531695
20
167.197625709932
40
0.0
41
0.0
42
0.0
10
77.3053960660435
20
166.720354267254
40
0.0
41
0.0
42
0.0
10
76.8357118093557
20
166.229924557578
40
0.0
41
0.0
42
0.0
10
76.4054030271282
20
165.781385624503
40
0.0
41
0.0
42
0.0
10
76.0140010633833
20
165.429786511629
40
0.0
41
0.0
42
0.0
10
75.6610372621432
20
165.230176262553
40
0.0
41
0.0
42
0.0
10
75.3460429674302
20
165.237603920875
40
0.0
41
0.0
42
0.0
10
75.0685495232664
20
165.507118530192
40
0.0
41
0.0
42
0.0
10
75.9315469817611
20
164.110759310143
40
0.0
41
0.0
42
0.0
10
75.9463052827186
20
163.903920110252
40
0.0
41
0.0
42
0.0
10
75.8212850283165
20
163.625312879334
40
0.0
41
0.0
42
0.0
10
75.6013882365697
20
163.304262201308
40
0.0
41
0.0
42
0.0
10
75.3315169254935
20
162.970092660093
40
0.0
41
0.0
42
0.0
10
75.0565731131029
20
162.652128839607
40
0.0
41
0.0
42
0.0
10
74.8214588174131
20
162.379695323769
40
0.0
41
0.0
42
0.0
10
74.671076056439
20
162.182116696497
40
0.0
41
0.0
42
0.0
10
74.650326848196
20
162.08871754171
40
0.0
41
0.0
42
0.0
10
74.804113210699
20
162.128822443327
40
0.0
41
0.0
42
0.0
10
75.1773371619632
20
162.331755985267
40
0.0
41
0.0
42
0.0
10
73.517636878686
20
161.351346907243
40
0.0
41
0.0
42
0.0
10
73.0298358772464
20
161.041664193002
40
0.0
41
0.0
42
0.0
10
72.5664777345242
20
160.711357887067
40
0.0
41
0.0
42
0.0
10
72.1338994879645
20
160.376172574401
40
0.0
41
0.0
42
0.0
10
71.7384381750127
20
160.051852839965
40
0.0
41
0.0
42
0.0
10
71.386430833114
20
159.754143268723
40
0.0
41
0.0
42
0.0
10
71.0842144997136
20
159.498788445635
40
0.0
41
0.0
42
0.0
10
70.8381262122568
20
159.301532955665
40
0.0
41
0.0
42
0.0
10
70.6545030081887
20
159.178121383775
40
0.0
41
0.0
42
0.0
10
70.5396819249547
20
159.144298314925
40
0.0
41
0.0
42
0.0
10
70.5
20
159.21580833408
40
0.0
41
0.0
42
0.0
10
70.5
20
158.7843924736
40
0.0
41
0.0
42
0.0
10
70.47255
20
158.657595430243
40
0.0
41
0.0
42
0.0
10
70.4004
20
158.537151965921
40
0.0
41
0.0
42
0.0
10
70.29885
20
158.424709304831
40
0.0
41
0.0
42
0.0
10
70.1832
20
158.321914671166
40
0.0
41
0.0
42
0.0
10
70.06875
20
158.23041528912
40
0.0
41
0.0
42
0.0
10
69.9708
20
158.151858382889
40
0.0
41
0.0
42
0.0
10
69.90465
20
158.087891176667
40
0.0
41
0.0
42
0.0
10
69.8856
20
158.040160894648
40
0.0
41
0.0
42
0.0
10
69.92895
20
158.010314761028
40
0.0
41
0.0
42
0.0
10
70.05
20
158.0
40
0.0
41
0.0
42
0.0
10
69.5
20
158.0
40
0.0
41
0.0
42
0.0
10
69.33835
20
158.068625
40
0.0
41
0.0
42
0.0
10
69.1848
20
158.249
40
0.0
41
0.0
42
0.0
10
69.04145
20
158.502875
40
0.0
41
0.0
42
0.0
10
68.9104
20
158.792
40
0.0
41
0.0
42
0.0
10
68.79375
20
159.078125
40
0.0
41
0.0
42
0.0
10
68.6936
20
159.323
40
0.0
41
0.0
42
0.0
10
68.61205
20
159.488375
40
0.0
41
0.0
42
0.0
10
68.5512
20
159.536
40
0.0
41
0.0
42
0.0
10
68.51315
20
159.427625
40
0.0
41
0.0
42
0.0
10
68.5
20
159.125
40
0.0
41
0.0
42
0.0
10
68.5
20
160.5
40
0.0
41
0.0
42
0.0
10
68.4476694758111
20
161.006865939882
40
0.0
41
0.0
42
0.0
10
68.3115413103008
20
161.450356053148
40
0.0
41
0.0
42
0.0
10
68.1229106140536
20
161.832830779787
40
0.0
41
0.0
42
0.0
10
67.9130724976538
20
162.156650559791
40
0.0
41
0.0
42
0.0
10
67.7133220716861
20
162.424175833152
40
0.0
41
0.0
42
0.0
10
67.5549544467349
20
162.637767039861
40
0.0
41
0.0
42
0.0
10
67.4692647333846
20
162.799784619909
40
0.0
41
0.0
42
0.0
10
67.4875480422198
20
162.912589013287
40
0.0
41
0.0
42
0.0
10
67.6410994838249
20
162.978540659987
40
0.0
41
0.0
42
0.0
10
67.9612141687844
20
163.0
40
0.0
41
0.0
42
0.0
10
66.5817874682349
20
163.0
40
0.0
41
0.0
42
0.0
10
66.2284651088949
20
163.016594012569
40
0.0
41
0.0
42
0.0
10
65.820262213866
20
163.060209969102
40
0.0
41
0.0
42
0.0
10
65.3853098544114
20
163.12159874784
40
0.0
41
0.0
42
0.0
10
64.951739101794
20
163.191511227024
40
0.0
41
0.0
42
0.0
10
64.5476810272769
20
163.260698284893
40
0.0
41
0.0
42
0.0
10
64.2012667021231
20
163.319910799688
40
0.0
41
0.0
42
0.0
10
63.9406271975956
20
163.359899649649
40
0.0
41
0.0
42
0.0
10
63.7938935849575
20
163.371415713016
40
0.0
41
0.0
42
0.0
10
63.7891969354717
20
163.34520986803
40
0.0
41
0.0
42
0.0
10
63.9546683204014
20
163.272032992932
40
0.0
41
0.0
42
0.0
10
63.0882269007624
20
163.604517762071
40
0.0
41
0.0
42
0.0
10
62.7732451876027
20
163.660452029145
40
0.0
41
0.0
42
0.0
10
62.4536075922762
20
163.613496293187
40
0.0
41
0.0
42
0.0
10
62.1419541074995
20
163.496591856662
40
0.0
41
0.0
42
0.0
10
61.8509247259898
20
163.342680022039
40
0.0
41
0.0
42
0.0
10
61.593159440464
20
163.184702091783
40
0.0
41
0.0
42
0.0
10
61.3812982436388
20
163.055599368361
40
0.0
41
0.0
42
0.0
10
61.2279811282313
20
162.988313154241
40
0.0
41
0.0
42
0.0
10
61.1458480869585
20
163.015784751888
40
0.0
41
0.0
42
0.0
10
61.1475391125372
20
163.17095546377
40
0.0
41
0.0
42
0.0
10
61.2456941976843
20
163.486766592354
40
0.0
41
0.0
42
0.0
10
60.743692711561
20
162.129727355387
40
0.0
41
0.0
42
0.0
10
60.4547251279275
20
161.661556809586
40
0.0
41
0.0
42
0.0
10
60.0707271051239
20
161.424876428226
40
0.0
41
0.0
42
0.0
10
59.6442228249159
20
161.355295802412
40
0.0
41
0.0
42
0.0
10
59.2277364690693
20
161.388424523248
40
0.0
41
0.0
42
0.0
10
58.8737922193496
20
161.459872181839
40
0.0
41
0.0
42
0.0
10
58.6349142575227
20
161.505248369287
40
0.0
41
0.0
42
0.0
10
58.5636267653542
20
161.460162676698
40
0.0
41
0.0
42
0.0
10
58.7124539246098
20
161.260224695176
40
0.0
41
0.0
42
0.0
10
59.1339199170551
20
160.841044015824
40
0.0
41
0.0
42
0.0
10
59.8805489244559
20
160.138230229748
40
0.0
41
0.0
42
0.0
10
56.7914870062322
20
163.025209593317
40
0.0
41
0.0
42
0.0
10
56.2336019298665
20
163.506084462557
40
0.0
41
0.0
42
0.0
10
55.6309075642649
20
163.962863529503
40
0.0
41
0.0
42
0.0
10
55.0142505265124
20
164.389299734301
40
0.0
41
0.0
42
0.0
10
54.4144774336939
20
164.779146017097
40
0.0
41
0.0
42
0.0
10
53.8624349028945
20
165.126155318037
40
0.0
41
0.0
42
0.0
10
53.3889695511991
20
165.424080577266
40
0.0
41
0.0
42
0.0
10
53.0249279956928
20
165.666674734931
40
0.0
41
0.0
42
0.0
10
52.8011568534605
20
165.847690731178
40
0.0
41
0.0
42
0.0
10
52.7485027415873
20
165.960881506152
40
0.0
41
0.0
42
0.0
10
52.8978122771581
20
166.0
40
0.0
41
0.0
42
0.0
10
52.0292337271988
20
166.0
40
0.0
41
0.0
42
0.0
10
51.7418631491797
20
166.078128946156
40
0.0
41
0.0
42
0.0
10
51.4488558363115
20
166.282949688728
40
0.0
41
0.0
42
0.0
10
51.1611786262063
20
166.570113083868
40
0.0
41
0.0
42
0.0
10
50.8897983564765
20
166.89526998773
40
0.0
41
0.0
42
0.0
10
50.6456818647342
20
167.214071256469
40
0.0
41
0.0
42
0.0
10
50.4397959885916
20
167.482167746238
40
0.0
41
0.0
42
0.0
10
50.283107565661
20
167.65521031319
40
0.0
41
0.0
42
0.0
10
50.1865834335546
20
167.688849813479
40
0.0
41
0.0
42
0.0
10
50.1611904298846
20
167.538737103259
40
0.0
41
0.0
42
0.0
10
50.2178953922632
20
167.160523038684
40
0.0
41
0.0
42
0.0
10
49.8798635324621
20
168.85068233769
40
0.0
41
0.0
42
0.0
10
49.6705861280189
20
169.469169760774
40
0.0
41
0.0
42
0.0
10
49.3274827151614
20
170.071992076044
40
0.0
41
0.0
42
0.0
10
48.9056243302257
20
170.640300174389
40
0.0
41
0.0
42
0.0
10
48.4600820095481
20
171.155244946698
40
0.0
41
0.0
42
0.0
10
48.0459267894646
20
171.59797728386
40
0.0
41
0.0
42
0.0
10
47.7182297063112
20
171.949648076762
40
0.0
41
0.0
42
0.0
10
47.5320617964242
20
172.191408216294
40
0.0
41
0.0
42
0.0
10
47.5424940961397
20
172.304408593345
40
0.0
41
0.0
42
0.0
10
47.8045976417938
20
172.269800098802
40
0.0
41
0.0
42
0.0
10
48.3734434697225
20
172.068733623556
40
0.0
41
0.0
42
0.0
10
45.9048635324621
20
173.03732863012
40
0.0
41
0.0
42
0.0
10
45.3544673424396
20
173.290958779172
40
0.0
41
0.0
42
0.0
10
44.83165054703
20
173.595112590568
40
0.0
41
0.0
42
0.0
10
44.3435633596516
20
173.925987268262
40
0.0
41
0.0
42
0.0
10
43.8973559937224
20
174.259780016211
40
0.0
41
0.0
42
0.0
10
43.5001786626607
20
174.572688038369
40
0.0
41
0.0
42
0.0
10
43.1591815798846
20
174.840908538692
40
0.0
41
0.0
42
0.0
10
42.8815149588124
20
175.040638721134
40
0.0
41
0.0
42
0.0
10
42.6743290128621
20
175.148075789653
40
0.0
41
0.0
42
0.0
10
42.5447739554519
20
175.139416948201
40
0.0
41
0.0
42
0.0
10
42.5
20
174.990859400735
40
0.0
41
0.0
42
0.0
10
42.5
20
175.745663286805
40
0.0
41
0.0
42
0.0
10
42.4745263008264
20
175.951763398866
40
0.0
41
0.0
42
0.0
10
42.4075708401569
20
176.121110169724
40
0.0
41
0.0
42
0.0
10
42.3133320732687
20
176.259596748852
40
0.0
41
0.0
42
0.0
10
42.2060084554389
20
176.373116285728
40
0.0
41
0.0
42
0.0
10
42.0997984419446
20
176.467561929825
40
0.0
41
0.0
42
0.0
10
42.0089004880627
20
176.548826830618
40
0.0
41
0.0
42
0.0
10
41.9475130490706
20
176.622804137582
40
0.0
41
0.0
42
0.0
10
41.9298345802452
20
176.695387000192
40
0.0
41
0.0
42
0.0
10
41.9700635368636
20
176.772468567923
40
0.0
41
0.0
42
0.0
10
42.082398374203
20
176.85994199025
40
0.0
41
0.0
42
0.0
10
41.5719963871178
20
176.544496214306
40
0.0
41
0.0
42
0.0
10
41.3903932578297
20
176.48649492848
40
0.0
41
0.0
42
0.0
10
41.1648631278102
20
176.489663377496
40
0.0
41
0.0
42
0.0
10
40.9149630954505
20
176.535858822746
40
0.0
41
0.0
42
0.0
10
40.6602502591413
20
176.60693852562
40
0.0
41
0.0
42
0.0
10
40.4202817172736
20
176.68475974751
40
0.0
41
0.0
42
0.0
10
40.2146145682383
20
176.751179749807
40
0.0
41
0.0
42
0.0
10
40.0628059104264
20
176.788055793903
40
0.0
41
0.0
42
0.0
10
39.9844128422287
20
176.777245141188
40
0.0
41
0.0
42
0.0
10
39.9989924620361
20
176.700605053054
40
0.0
41
0.0
42
0.0
10
40.1261018682396
20
176.539992790893
40
0.0
41
0.0
42
0.0
10
39.4931240942445
20
177.235479219931
40
0.0
41
0.0
42
0.0
10
39.1588553767875
20
177.563414004029
40
0.0
41
0.0
42
0.0
10
38.5925274005002
20
178.082256169809
40
0.0
41
0.0
42
0.0
10
37.8791774329129
20
178.720500223632
40
0.0
41
0.0
42
0.0
10
37.1038427415561
20
179.40664067186
40
0.0
41
0.0
42
0.0
10
36.35156059396
20
180.069172020855
40
0.0
41
0.0
42
0.0
10
35.7073682576548
20
180.636588776979
40
0.0
41
0.0
42
0.0
10
35.2563030001709
20
181.037385446593
40
0.0
41
0.0
42
0.0
10
35.0834020890386
20
181.20005653606
40
0.0
41
0.0
42
0.0
10
35.2737027917882
20
181.053096551742
40
0.0
41
0.0
42
0.0
10
35.9122423759499
20
180.525
40
0.0
41
0.0
42
0.0
10
32.9422264402457
20
183.0
40
0.0
41
0.0
42
0.0
10
31.5089057836386
20
184.322023985472
40
0.0
41
0.0
42
0.0
10
30.4050484703872
20
185.568052678841
40
0.0
41
0.0
42
0.0
10
29.5815761381666
20
186.694028986088
40
0.0
41
0.0
42
0.0
10
28.989410424652
20
187.655895813197
40
0.0
41
0.0
42
0.0
10
28.5794729675186
20
188.409596066151
40
0.0
41
0.0
42
0.0
10
28.3026854044416
20
188.91107265093
40
0.0
41
0.0
42
0.0
10
28.109969373096
20
189.116268473518
40
0.0
41
0.0
42
0.0
10
27.9522465111571
20
188.981126439897
40
0.0
41
0.0
42
0.0
10
27.7804384563001
20
188.461589456049
40
0.0
41
0.0
42
0.0
10
27.5454668462001
20
187.513600427957
40
0.0
41
0.0
42
0.0
10
28.4885096522995
20
191.436602922023
40
0.0
41
0.0
42
0.0
10
28.6145232642652
20
192.881221717055
40
0.0
41
0.0
42
0.0
10
28.4534509667221
20
194.60229659926
40
0.0
41
0.0
42
0.0
10
28.1013579140417
20
196.444298987568
40
0.0
41
0.0
42
0.0
10
27.6543092605956
20
198.251700300908
40
0.0
41
0.0
42
0.0
10
27.2083701607553
20
199.86897195821
40
0.0
41
0.0
42
0.0
10
26.8596057688922
20
201.140585378405
40
0.0
41
0.0
42
0.0
10
26.704081239378
20
201.911011980421
40
0.0
41
0.0
42
0.0
10
26.8378617265841
20
202.024723183189
40
0.0
41
0.0
42
0.0
10
27.357012384882
20
201.326190405638
40
0.0
41
0.0
42
0.0
10
28.3575983686434
20
199.659885066699
40
0.0
41
0.0
42
0.0
10
24.1131804865871
20
207.0
40
0.0
41
0.0
42
0.0
10
23.4838444486576
20
208.175727634792
40
0.0
41
0.0
42
0.0
10
22.9241980333733
20
209.367193792144
40
0.0
41
0.0
42
0.0
10
22.4415229127162
20
210.504048685526
40
0.0
41
0.0
42
0.0
10
22.0431007586683
20
211.515942528405
40
0.0
41
0.0
42
0.0
10
21.7362132432116
20
212.332525534252
40
0.0
41
0.0
42
0.0
10
21.5281420383281
20
212.883447916534
40
0.0
41
0.0
42
0.0
10
21.4261688159997
20
213.09835988872
40
0.0
41
0.0
42
0.0
10
21.4375752482085
20
212.906911664279
40
0.0
41
0.0
42
0.0
10
21.5696430069363
20
212.23875345668
40
0.0
41
0.0
42
0.0
10
21.8296537641652
20
211.023535479392
40
0.0
41
0.0
42
0.0
10
20.741622162587
20
216.064194782648
40
0.0
41
0.0
42
0.0
10
20.0
20
219.5
40
0.0
41
0.0
42
0.0
10
20.0
20
219.5
40
0.0
41
0.0
42
0.0
10
24.75
20
219.810672171673
40
0.0
41
0.0
42
0.0
10
24.75
20
219.810672171673
40
0.0
41
0.0
42
0.0
10
25.7910435081168
20
219.926335525818
40
0.0
41
0.0
42
0.0
10
26.6789329510982
20
220.107643602523
40
0.0
41
0.0
42
0.0
10
27.4239308110268
20
220.326037437723
40
0.0
41
0.0
42
0.0
10
28.0362995699855
20
220.552958067356
40
0.0
41
0.0
42
0.0
10
28.5263017100568
20
220.759846527357
40
0.0
41
0.0
42
0.0
10
28.9041997133236
20
220.918143853664
40
0.0
41
0.0
42
0.0
10
29.1802560618686
20
220.999291082213
40
0.0
41
0.0
42
0.0
10
29.3647332377745
20
220.974729248941
40
0.0
41
0.0
42
0.0
10
29.4678937231241
20
220.815899389783
40
0.0
41
0.0
42
0.0
10
29.5
20
220.494242540677
40
0.0
41
0.0
42
0.0
10
29.5
20
221.86954253657
40
0.0
41
0.0
42
0.0
10
29.5381213686787
20
222.20427285265
40
0.0
41
0.0
42
0.0
10
29.6383201573916
20
222.609738693898
40
0.0
41
0.0
42
0.0
10
29.7793483901538
20
223.053210505469
40
0.0
41
0.0
42
0.0
10
29.9399580909804
20
223.501958732519
40
0.0
41
0.0
42
0.0
10
30.0989012838867
20
223.923253820203
40
0.0
41
0.0
42
0.0
10
30.2349299928878
20
224.284366213676
40
0.0
41
0.0
42
0.0
10
30.3267962419987
20
224.552566358095
40
0.0
41
0.0
42
0.0
10
30.3532520552348
20
224.695124698614
40
0.0
41
0.0
42
0.0
10
30.293049456611
20
224.67931168039
40
0.0
41
0.0
42
0.0
10
30.1249404701426
20
224.472397748578
40
0.0
41
0.0
42
0.0
10
30.888756600317
20
225.516978549314
40
0.0
41
0.0
42
0.0
10
31.1011360054647
20
225.855556573604
40
0.0
41
0.0
42
0.0
10
31.282541325923
20
226.230153704712
40
0.0
41
0.0
42
0.0
10
31.4368077363722
20
226.619187250661
40
0.0
41
0.0
42
0.0
10
31.5677704114921
20
227.001074519473
40
0.0
41
0.0
42
0.0
10
31.6792645259628
20
227.354232819169
40
0.0
41
0.0
42
0.0
10
31.7751252544643
20
227.657079457772
40
0.0
41
0.0
42
0.0
10
31.8591877716766
20
227.888031743303
40
0.0
41
0.0
42
0.0
10
31.9352872522797
20
228.025506983785
40
0.0
41
0.0
42
0.0
10
32.0072588709537
20
228.04792248724
40
0.0
41
0.0
42
0.0
10
32.0789378023786
20
227.933695561689
40
0.0
41
0.0
42
0.0
10
31.8362345378442
20
228.566170130732
40
0.0
41
0.0
42
0.0
10
31.9206626438049
20
228.825809421667
40
0.0
41
0.0
42
0.0
10
32.2623083798116
20
229.196228519187
40
0.0
41
0.0
42
0.0
10
32.7752809349707
20
229.633906372508
40
0.0
41
0.0
42
0.0
10
33.3736894983884
20
230.095321930844
40
0.0
41
0.0
42
0.0
10
33.9716432591711
20
230.53695414341
40
0.0
41
0.0
42
0.0
10
34.4832514064249
20
230.91528195942
40
0.0
41
0.0
42
0.0
10
34.8226231292562
20
231.18678432809
40
0.0
41
0.0
42
0.0
10
34.9038676167712
20
231.307940198633
40
0.0
41
0.0
42
0.0
10
34.6410940580762
20
231.235228520265
40
0.0
41
0.0
42
0.0
10
33.9484116422775
20
230.9251282422
40
0.0
41
0.0
42
0.0
10
37.0693020244391
20
232.402800225006
40
0.0
41
0.0
42
0.0
10
38.5269659572289
20
233.029136890592
40
0.0
41
0.0
42
0.0
10
39.8040006529568
20
233.469691305457
40
0.0
41
0.0
42
0.0
10
40.8952619974477
20
233.7631444201
40
0.0
41
0.0
42
0.0
10
41.7956058765265
20
233.948177185023
40
0.0
41
0.0
42
0.0
10
42.4998881760182
20
234.063470550724
40
0.0
41
0.0
42
0.0
10
43.0029647817477
20
234.147705467704
40
0.0
41
0.0
42
0.0
10
43.2996915795399
20
234.239562886462
40
0.0
41
0.0
42
0.0
10
43.3849244552198
20
234.377723757498
40
0.0
41
0.0
42
0.0
10
43.2535192946123
20
234.600869031312
40
0.0
41
0.0
42
0.0
10
42.9003319835424
20
234.947679658403
40
0.0
41
0.0
42
0.0
10
44.4529756202964
20
233.542556478748
40
0.0
41
0.0
42
0.0
10
44.9793008634146
20
233.154343164911
40
0.0
41
0.0
42
0.0
10
45.4318735635562
20
232.97782499155
40
0.0
41
0.0
42
0.0
10
45.8212257372174
20
232.956582169913
40
0.0
41
0.0
42
0.0
10
46.1578894008945
20
233.034194911246
40
0.0
41
0.0
42
0.0
10
46.4523965710839
20
233.154243426798
40
0.0
41
0.0
42
0.0
10
46.7152792642819
20
233.260307927816
40
0.0
41
0.0
42
0.0
10
46.9570694969848
20
233.295968625546
40
0.0
41
0.0
42
0.0
10
47.1882992856889
20
233.204805731237
40
0.0
41
0.0
42
0.0
10
47.4195006468906
20
232.930399456135
40
0.0
41
0.0
42
0.0
10
47.6612055970861
20
232.416330011488
40
0.0
41
0.0
42
0.0
10
46.8263142075598
20
234.592022097056
40
0.0
41
0.0
42
0.0
10
46.7123762985512
20
234.800884903277
40
0.0
41
0.0
42
0.0
10
46.5583032898191
20
234.970948603907
40
0.0
41
0.0
42
0.0
10
46.3804437834866
20
235.108689051884
40
0.0
41
0.0
42
0.0
10
46.1951463816771
20
235.220582100147
40
0.0
41
0.0
42
0.0
10
46.0187596865139
20
235.313103601634
40
0.0
41
0.0
42
0.0
10
45.8676323001202
20
235.392729409284
40
0.0
41
0.0
42
0.0
10
45.7581128246192
20
235.465935376035
40
0.0
41
0.0
42
0.0
10
45.7065498621343
20
235.539197354826
40
0.0
41
0.0
42
0.0
10
45.7292920147887
20
235.618991198595
40
0.0
41
0.0
42
0.0
10
45.8426878847057
20
235.711792760281
40
0.0
41
0.0
42
0.0
10
45.2954470094078
20
235.373579299314
40
0.0
41
0.0
42
0.0
10
45.1377067040598
20
235.313552867381
40
0.0
41
0.0
42
0.0
10
45.0319772637918
20
235.346201853785
40
0.0
41
0.0
42
0.0
10
44.9661183375608
20
235.442432198334
40
0.0
41
0.0
42
0.0
10
44.9279895743239
20
235.573149840843
40
0.0
41
0.0
42
0.0
10
44.905450623038
20
235.709260721121
40
0.0
41
0.0
42
0.0
10
44.8863611326602
20
235.82167077898
40
0.0
41
0.0
42
0.0
10
44.8585807521476
20
235.881285954233
40
0.0
41
0.0
42
0.0
10
44.8099691304572
20
235.859012186689
40
0.0
41
0.0
42
0.0
10
44.7283859165459
20
235.725755416162
40
0.0
41
0.0
42
0.0
10
44.601690759371
20
235.452421582462
40
0.0
41
0.0
42
0.0
10
45.1126838009971
20
236.629322866959
40
0.0
41
0.0
42
0.0
10
45.2504546445349
20
236.970283559193
40
0.0
41
0.0
42
0.0
10
45.3921912230606
20
237.358892797446
40
0.0
41
0.0
42
0.0
10
45.5325786080477
20
237.769726504903
40
0.0
41
0.0
42
0.0
10
45.6663018709693
20
238.177360604747
40
0.0
41
0.0
42
0.0
10
45.7880460832989
20
238.556371020163
40
0.0
41
0.0
42
0.0
10
45.8924963165099
20
238.881333674335
40
0.0
41
0.0
42
0.0
10
45.9743376420754
20
239.126824490446
40
0.0
41
0.0
42
0.0
10
46.028255131469
20
239.26741939168
40
0.0
41
0.0
42
0.0
10
46.0489338561639
20
239.277694301222
40
0.0
41
0.0
42
0.0
10
46.0310588876335
20
239.132225142255
40
0.0
41
0.0
42
0.0
10
46.1608037475845
20
239.904944760566
40
0.0
41
0.0
42
0.0
10
46.3011984834244
20
240.236779403323
40
0.0
41
0.0
42
0.0
10
46.6062066909798
20
240.727770310564
40
0.0
41
0.0
42
0.0
10
47.0183347442599
20
241.316595607223
40
0.0
41
0.0
42
0.0
10
47.480089017274
20
241.941933418233
40
0.0
41
0.0
42
0.0
10
47.9339758840312
20
242.542461868529
40
0.0
41
0.0
42
0.0
10
48.3225017185409
20
243.056859083045
40
0.0
41
0.0
42
0.0
10
48.5881728948121
20
243.423803186714
40
0.0
41
0.0
42
0.0
10
48.6734957868543
20
243.58197230447
40
0.0
41
0.0
42
0.0
10
48.5209767686765
20
243.470044561248
40
0.0
41
0.0
42
0.0
10
48.0731222142881
20
243.026698081981
40
0.0
41
0.0
42
0.0
10
50.122078429257
20
245.125019656352
40
0.0
41
0.0
42
0.0
10
51.1338426877417
20
246.480115879244
40
0.0
41
0.0
42
0.0
10
51.8286794349685
20
248.008248171764
40
0.0
41
0.0
42
0.0
10
52.2746120941236
20
249.568610984961
40
0.0
41
0.0
42
0.0
10
52.5396640883931
20
251.020398769882
40
0.0
41
0.0
42
0.0
10
52.6918588409631
20
252.222805977573
40
0.0
41
0.0
42
0.0
10
52.7992197750196
20
253.035027059082
40
0.0
41
0.0
42
0.0
10
52.9297703137489
20
253.316256465456
40
0.0
41
0.0
42
0.0
10
53.1515338803369
20
252.925688647742
40
0.0
41
0.0
42
0.0
10
53.5325338979699
20
251.722518056989
40
0.0
41
0.0
42
0.0
10
54.1407937898339
20
249.565939144242
40
0.0
41
0.0
42
0.0
10
51.6589127785844
20
258.5
40
0.0
41
0.0
42
0.0
10
51.4923575131854
20
259.286306362693
40
0.0
41
0.0
42
0.0
10
51.3560865722637
20
260.267712703977
40
0.0
41
0.0
42
0.0
10
51.2451484812952
20
261.357949903665
40
0.0
41
0.0
42
0.0
10
51.1545917657557
20
262.470748841566
40
0.0
41
0.0
42
0.0
10
51.079464951121
20
263.519840397492
40
0.0
41
0.0
42
0.0
10
51.0148165628669
20
264.418955451253
40
0.0
41
0.0
42
0.0
10
50.9556951264692
20
265.08182488266
40
0.0
41
0.0
42
0.0
10
50.8971491674038
20
265.422179571523
40
0.0
41
0.0
42
0.0
10
50.8342272111464
20
265.353750397653
40
0.0
41
0.0
42
0.0
10
50.7619777831729
20
264.790268240861
40
0.0
41
0.0
42
0.0
10
51.0238566343051
20
267.589484979692
40
0.0
41
0.0
42
0.0
10
51.7503142425469
20
269.514911619858
40
0.0
41
0.0
42
0.0
10
53.2979207007978
20
271.071235954995
40
0.0
41
0.0
42
0.0
10
55.3150477172223
20
272.299381491962
40
0.0
41
0.0
42
0.0
10
57.4500669999847
20
273.240271737619
40
0.0
41
0.0
42
0.0
10
59.3513502572496
20
273.934830198825
40
0.0
41
0.0
42
0.0
10
60.6672691971813
20
274.423980382442
40
0.0
41
0.0
42
0.0
10
61.0461955279444
20
274.748645795327
40
0.0
41
0.0
42
0.0
10
60.1365009577033
20
274.949749944341
40
0.0
41
0.0
42
0.0
10
57.5865571946224
20
275.068216336344
40
0.0
41
0.0
42
0.0
10
53.0447359468662
20
275.144968478196
40
0.0
41
0.0
42
0.0
10
71.8946340158853
20
274.913181192432
40
0.0
41
0.0
42
0.0
10
75.3728227809081
20
274.827860471745
40
0.0
41
0.0
42
0.0
10
78.355261860283
20
274.681227909796
40
0.0
41
0.0
42
0.0
10
80.8653918770535
20
274.499537334381
40
0.0
41
0.0
42
0.0
10
82.9266534542637
20
274.309042573299
40
0.0
41
0.0
42
0.0
10
84.5624872149574
20
274.135997454346
40
0.0
41
0.0
42
0.0
10
85.7963337821783
20
274.006655805319
40
0.0
41
0.0
42
0.0
10
86.6516337789703
20
273.947271454016
40
0.0
41
0.0
42
0.0
10
87.1518278283773
20
273.984098228234
40
0.0
41
0.0
42
0.0
10
87.320356553443
20
274.14338995577
40
0.0
41
0.0
42
0.0
10
87.1806605772113
20
274.451400464422
40
0.0
41
0.0
42
0.0
10
88.1339765300972
20
273.147663213949
40
0.0
41
0.0
42
0.0
10
89.2420598161189
20
272.693030450546
40
0.0
41
0.0
42
0.0
10
91.5068483800576
20
272.325738817083
40
0.0
41
0.0
42
0.0
10
94.4398454471611
20
272.035407963872
40
0.0
41
0.0
42
0.0
10
97.5525542426771
20
271.811657541223
40
0.0
41
0.0
42
0.0
10
100.356477991854
20
271.644107199448
40
0.0
41
0.0
42
0.0
10
102.363119919938
20
271.522376588856
40
0.0
41
0.0
42
0.0
10
103.083983252179
20
271.436085359759
40
0.0
41
0.0
42
0.0
10
102.030571213823
20
271.374853162468
40
0.0
41
0.0
42
0.0
10
98.7143870301196
20
271.328299647293
40
0.0
41
0.0
42
0.0
10
92.6469339263151
20
271.286044464545
40
0.0
41
0.0
42
0.0
10
118.0
20
271.431264908203
40
0.0
41
0.0
42
0.0
10
120.913485277731
20
271.498315245476
40
0.0
41
0.0
42
0.0
10
123.406161287913
20
271.642374611749
40
0.0
41
0.0
42
0.0
10
125.494752067366
20
271.831581547676
40
0.0
41
0.0
42
0.0
10
127.195981652906
20
272.034074593913
40
0.0
41
0.0
42
0.0
10
128.526574081354
20
272.217992291115
40
0.0
41
0.0
42
0.0
10
129.503253389525
20
272.351473179936
40
0.0
41
0.0
42
0.0
10
130.14274361424
20
272.402655801031
40
0.0
41
0.0
42
0.0
10
130.461768792315
20
272.339678695056
40
0.0
41
0.0
42
0.0
10
130.47705296057
20
272.130680402666
40
0.0
41
0.0
42
0.0
10
130.205320155822
20
271.743799464515
40
0.0
41
0.0
42
0.0
10
131.570875530189
20
273.365275289447
40
0.0
41
0.0
42
0.0
10
132.362604946721
20
273.819748598815
40
0.0
41
0.0
42
0.0
10
133.709455256128
20
274.171083062675
40
0.0
41
0.0
42
0.0
10
135.360939525854
20
274.435309551764
40
0.0
41
0.0
42
0.0
10
137.06657082334
20
274.628458936818
40
0.0
41
0.0
42
0.0
10
138.575862216032
20
274.766562088572
40
0.0
41
0.0
42
0.0
10
139.638326771372
20
274.865649877763
40
0.0
41
0.0
42
0.0
10
140.003477556802
20
274.941753175126
40
0.0
41
0.0
42
0.0
10
139.420827639767
20
275.010902851398
40
0.0
41
0.0
42
0.0
10
137.63989008771
20
275.089129777315
40
0.0
41
0.0
42
0.0
10
134.410177968073
20
275.192464823612
40
0.0
41
0.0
42
0.0
10
147.868828126779
20
274.788355723391
40
0.0
41
0.0
42
0.0
10
150.262183620972
20
274.737461958465
40
0.0
41
0.0
42
0.0
10
152.556968910874
20
274.723674212158
40
0.0
41
0.0
42
0.0
10
154.715165355333
20
274.736446353702
40
0.0
41
0.0
42
0.0
10
156.698754313201
20
274.765232252328
40
0.0
41
0.0
42
0.0
10
158.469717143328
20
274.799485777268
40
0.0
41
0.0
42
0.0
10
159.990035204564
20
274.828660797755
40
0.0
41
0.0
42
0.0
10
161.221689855759
20
274.842211183019
40
0.0
41
0.0
42
0.0
10
162.126662455763
20
274.829590802292
40
0.0
41
0.0
42
0.0
10
162.666934363427
20
274.780253524806
40
0.0
41
0.0
42
0.0
10
162.804486937601
20
274.683653219794
40
0.0
41
0.0
42
0.0
10
163.059420180782
20
275.096143872124
40
0.0
41
0.0
42
0.0
10
163.216382593342
20
275.235396580427
40
0.0
41
0.0
42
0.0
10
163.503177933489
20
275.397915141092
40
0.0
41
0.0
42
0.0
10
163.873108273787
20
275.572081794846
40
0.0
41
0.0
42
0.0
10
164.279475686801
20
275.746278782417
40
0.0
41
0.0
42
0.0
10
164.675582245094
20
275.908888344535
40
0.0
41
0.0
42
0.0
10
165.014730021231
20
276.048292721926
40
0.0
41
0.0
42
0.0
10
165.250221087775
20
276.15287415532
40
0.0
41
0.0
42
0.0
10
165.335357517292
20
276.211014885444
40
0.0
41
0.0
42
0.0
10
165.223441382345
20
276.211097153027
40
0.0
41
0.0
42
0.0
10
164.867774755499
20
276.141503198797
40
0.0
41
0.0
42
0.0
10
166.511467584193
20
276.502518703999
40
0.0
41
0.0
42
0.0
10
166.994563849208
20
276.633352460498
40
0.0
41
0.0
42
0.0
10
167.453453001655
20
276.799136925343
40
0.0
41
0.0
42
0.0
10
167.881859123461
20
276.984710846233
40
0.0
41
0.0
42
0.0
10
168.273506296553
20
277.174912970873
40
0.0
41
0.0
42
0.0
10
168.622118602857
20
277.354582046962
40
0.0
41
0.0
42
0.0
10
168.9214201243
20
277.508556822202
40
0.0
41
0.0
42
0.0
10
169.165134942809
20
277.621676044295
40
0.0
41
0.0
42
0.0
10
169.346987140311
20
277.678778460943
40
0.0
41
0.0
42
0.0
10
169.460700798732
20
277.664702819847
40
0.0
41
0.0
42
0.0
10
169.5
20
277.564287868709
40
0.0
41
0.0
42
0.0
10
169.5
20
278.059749058461
40
0.0
41
0.0
42
0.0
10
169.608691997921
20
278.19490036759
40
0.0
41
0.0
42
0.0
10
169.894379708302
20
278.305706616114
40
0.0
41
0.0
42
0.0
10
170.296480706074
20
278.39611135652
40
0.0
41
0.0
42
0.0
10
170.754412566166
20
278.470058141292
40
0.0
41
0.0
42
0.0
10
171.207592863507
20
278.531490522917
40
0.0
41
0.0
42
0.0
10
171.595439173027
20
278.58435205388
40
0.0
41
0.0
42
0.0
10
171.857369069655
20
278.632586286666
40
0.0
41
0.0
42
0.0
10
171.932800128322
20
278.68013677376
40
0.0
41
0.0
42
0.0
10
171.761149923955
20
278.73094706765
40
0.0
41
0.0
42
0.0
10
171.281836031485
20
278.788960720819
40
0.0
41
0.0
42
0.0
10
173.459635625523
20
278.579194553138
40
0.0
41
0.0
42
0.0
10
174.224340970028
20
278.546600973807
40
0.0
41
0.0
42
0.0
10
174.968804878612
20
278.582189890055
40
0.0
41
0.0
42
0.0
10
175.67328571194
20
278.664023018381
40
0.0
41
0.0
42
0.0
10
176.318041830678
20
278.770162075286
40
0.0
41
0.0
42
0.0
10
176.883331595491
20
278.878668777268
40
0.0
41
0.0
42
0.0
10
177.349413367044
20
278.967604840826
40
0.0
41
0.0
42
0.0
10
177.696545506004
20
279.015031982461
40
0.0
41
0.0
42
0.0
10
177.904986373036
20
278.999011918671
40
0.0
41
0.0
42
0.0
10
177.954994328804
20
278.897606365956
40
0.0
41
0.0
42
0.0
10
177.826827733976
20
278.688877040815
40
0.0
41
0.0
42
0.0
10
178.572942455883
20
279.587890282551
40
0.0
41
0.0
42
0.0
10
178.789595310248
20
279.793957048956
40
0.0
41
0.0
42
0.0
10
179.046019533986
20
279.958408673408
40
0.0
41
0.0
42
0.0
10
179.322980864463
20
280.088716080728
40
0.0
41
0.0
42
0.0
10
179.601245039042
20
280.192350195743
40
0.0
41
0.0
42
0.0
10
179.861577795086
20
280.276781943275
40
0.0
41
0.0
42
0.0
10
180.084744869959
20
280.349482248149
40
0.0
41
0.0
42
0.0
10
180.251512001026
20
280.417922035189
40
0.0
41
0.0
42
0.0
10
180.342644925649
20
280.489572229218
40
0.0
41
0.0
42
0.0
10
180.338909381192
20
280.571903755062
40
0.0
41
0.0
42
0.0
10
180.221071105019
20
280.672387537543
40
0.0
41
0.0
42
0.0
10
180.825407981384
20
280.298886807294
40
0.0
41
0.0
42
0.0
10
181.601738023119
20
280.032954709259
40
0.0
41
0.0
42
0.0
10
182.621548427175
20
279.970218535307
40
0.0
41
0.0
42
0.0
10
183.795549542223
20
280.054776157456
40
0.0
41
0.0
42
0.0
10
185.034451716938
20
280.23072544772
40
0.0
41
0.0
42
0.0
10
186.248965299992
20
280.442164278116
40
0.0
41
0.0
42
0.0
10
187.349800640059
20
280.63319052066
40
0.0
41
0.0
42
0.0
10
188.24766808581
20
280.747902047369
40
0.0
41
0.0
42
0.0
10
188.85327798592
20
280.730396730257
40
0.0
41
0.0
42
0.0
10
189.077340689061
20
280.524772441341
40
0.0
41
0.0
42
0.0
10
188.830566543906
20
280.075127052638
40
0.0
41
0.0
42
0.0
10
190.537085831947
20
282.0427603235
40
0.0
41
0.0
42
0.0
10
190.856305251804
20
282.359148117206
40
0.0
41
0.0
42
0.0
10
191.234756776937
20
282.659682269533
40
0.0
41
0.0
42
0.0
10
191.643895266551
20
282.940252577159
40
0.0
41
0.0
42
0.0
10
192.055175579853
20
283.196748836764
40
0.0
41
0.0
42
0.0
10
192.440052576048
20
283.425060845028
40
0.0
41
0.0
42
0.0
10
192.769981114342
20
283.62107839863
40
0.0
41
0.0
42
0.0
10
193.016416053941
20
283.780691294248
40
0.0
41
0.0
42
0.0
10
193.150812254051
20
283.899789328563
40
0.0
41
0.0
42
0.0
10
193.144624573878
20
283.974262298254
40
0.0
41
0.0
42
0.0
10
192.969307872627
20
284.0
40
0.0
41
0.0
42
0.0
10
193.867295401695
20
284.0
40
0.0
41
0.0
42
0.0
10
194.131222100011
20
284.038605141565
40
0.0
41
0.0
42
0.0
10
194.381923891081
20
284.140075486335
40
0.0
41
0.0
42
0.0
10
194.615972095248
20
284.282893414421
40
0.0
41
0.0
42
0.0
10
194.829938032856
20
284.445541305933
40
0.0
41
0.0
42
0.0
10
195.020393024248
20
284.606501540984
40
0.0
41
0.0
42
0.0
10
195.183908389768
20
284.744256499684
40
0.0
41
0.0
42
0.0
10
195.31705544976
20
284.837288562144
40
0.0
41
0.0
42
0.0
10
195.416405524567
20
284.864080108476
40
0.0
41
0.0
42
0.0
10
195.478529934532
20
284.803113518791
40
0.0
41
0.0
42
0.0
10
195.5
20
284.632871173201
40
0.0
41
0.0
42
0.0
10
195.5
20
285.40638038489
40
0.0
41
0.0
42
0.0
10
195.557126048079
20
285.657829329523
40
0.0
41
0.0
42
0.0
10
195.706233235915
20
285.857443157651
40
0.0
41
0.0
42
0.0
10
195.913915128909
20
286.013896771768
40
0.0
41
0.0
42
0.0
10
196.146765292463
20
286.135865074371
40
0.0
41
0.0
42
0.0
10
196.371377291975
20
286.232022967957
40
0.0
41
0.0
42
0.0
10
196.554344692846
20
286.311045355019
40
0.0
41
0.0
42
0.0
10
196.662261060478
20
286.381607138055
40
0.0
41
0.0
42
0.0
10
196.661719960271
20
286.45238321956
40
0.0
41
0.0
42
0.0
10
196.519314957624
20
286.532048502029
40
0.0
41
0.0
42
0.0
10
196.201639617939
20
286.629277887959
40
0.0
41
0.0
42
0.0
10
197.589792905953
20
286.266267648541
40
0.0
41
0.0
42
0.0
10
198.075941234681
20
286.046718333434
40
0.0
41
0.0
42
0.0
10
198.420831884048
20
285.718883253835
40
0.0
41
0.0
42
0.0
10
198.65341378121
20
285.334609892964
40
0.0
41
0.0
42
0.0
10
198.802635853325
20
284.945745734041
40
0.0
41
0.0
42
0.0
10
198.897447027548
20
284.604138260285
40
0.0
41
0.0
42
0.0
10
198.966796231035
20
284.361634954917
40
0.0
41
0.0
42
0.0
10
199.039632390943
20
284.270083301155
40
0.0
41
0.0
42
0.0
10
199.144904434427
20
284.381330782221
40
0.0
41
0.0
42
0.0
10
199.311561288645
20
284.747224881333
40
0.0
41
0.0
42
0.0
10
199.568551880752
20
285.419613081711
40
0.0
41
0.0
42
0.0
10
198.529194869295
20
282.609887263651
40
0.0
41
0.0
42
0.0
10
198.146130396676
20
281.332380314469
40
0.0
41
0.0
42
0.0
10
197.917180848798
20
280.079692327458
40
0.0
41
0.0
42
0.0
10
197.803536663606
20
278.885072117505
40
0.0
41
0.0
42
0.0
10
197.76638827904
20
277.781768499497
40
0.0
41
0.0
42
0.0
10
197.766926133045
20
276.803030288322
40
0.0
41
0.0
42
0.0
10
197.766340663562
20
275.982106298867
40
0.0
41
0.0
42
0.0
10
197.725822308535
20
275.35224534602
40
0.0
41
0.0
42
0.0
10
197.606561505906
20
274.946696244667
40
0.0
41
0.0
42
0.0
10
197.369748693616
20
274.798707809697
40
0.0
41
0.0
42
0.0
10
196.97657430961
20
274.941528855996
40
0.0
41
0.0
42
0.0
10
198.590879944778
20
273.943833105231
40
0.0
41
0.0
42
0.0
10
198.862801226376
20
273.663500216605
40
0.0
41
0.0
42
0.0
10
199.034719259033
20
273.266916763923
40
0.0
41
0.0
42
0.0
10
199.130842133231
20
272.808866251141
40
0.0
41
0.0
42
0.0
10
199.175377939451
20
272.344132182213
40
0.0
41
0.0
42
0.0
10
199.192534768173
20
271.927498061096
40
0.0
41
0.0
42
0.0
10
199.20652070988
20
271.613747391743
40
0.0
41
0.0
42
0.0
10
199.24154385505
20
271.457663678111
40
0.0
41
0.0
42
0.0
10
199.321812294167
20
271.514030424154
40
0.0
41
0.0
42
0.0
10
199.47153411771
20
271.837631133828
40
0.0
41
0.0
42
0.0
10
199.714917416161
20
272.483249311088
40
0.0
41
0.0
42
0.0
10
198.720639418168
20
269.733622380962
40
0.0
41
0.0
42
0.0
10
198.523323056221
20
269.050740283368
40
0.0
41
0.0
42
0.0
10
198.335893873561
20
268.171760297945
40
0.0
41
0.0
42
0.0
10
198.160915212967
20
267.180250821827
40
0.0
41
0.0
42
0.0
10
198.000950417216
20
266.159780252149
40
0.0
41
0.0
42
0.0
10
197.858562829087
20
265.193916986045
40
0.0
41
0.0
42
0.0
10
197.736315791357
20
264.366229420649
40
0.0
41
0.0
42
0.0
10
197.636772646806
20
263.760285953095
40
0.0
41
0.0
42
0.0
10
197.56249673821
20
263.459654980518
40
0.0
41
0.0
42
0.0
10
197.516051408349
20
263.547904900051
40
0.0
41
0.0
42
0.0
10
197.5
20
264.108604108829
40
0.0
41
0.0
42
0.0
10
197.5
20
261.359337489566
40
0.0
41
0.0
42
0.0
10
197.431838611484
20
260.166329570767
40
0.0
41
0.0
42
0.0
10
197.255621624935
20
259.056574614676
40
0.0
41
0.0
42
0.0
10
197.013749808856
20
258.053310303697
40
0.0
41
0.0
42
0.0
10
196.748623931748
20
257.17977432023
40
0.0
41
0.0
42
0.0
10
196.502644762112
20
256.45920434668
40
0.0
41
0.0
42
0.0
10
196.31821306845
20
255.914838065447
40
0.0
41
0.0
42
0.0
10
196.237729619263
20
255.569913158934
40
0.0
41
0.0
42
0.0
10
196.303595183052
20
255.447667309544
40
0.0
41
0.0
42
0.0
10
196.558210528319
20
255.571338199678
40
0.0
41
0.0
42
0.0
10
197.043976423564
20
255.964163511739
40
0.0
41
0.0
42
0.0
10
194.992393891112
20
254.180335454544
40
0.0
41
0.0
42
0.0
10
194.552935651299
20
253.813892981844
40
0.0
41
0.0
42
0.0
10
194.078254014035
20
253.442327666495
40
0.0
41
0.0
42
0.0
10
193.592623578684
20
253.078016612626
40
0.0
41
0.0
42
0.0
10
193.120318944607
20
252.733336924365
40
0.0
41
0.0
42
0.0
10
192.685614711167
20
252.420665705839
40
0.0
41
0.0
42
0.0
10
192.312785477728
20
252.152380061176
40
0.0
41
0.0
42
0.0
10
192.026105843651
20
251.940857094505
40
0.0
41
0.0
42
0.0
10
191.849850408299
20
251.798473909954
40
0.0
41
0.0
42
0.0
10
191.808293771036
20
251.73760761165
40
0.0
41
0.0
42
0.0
10
191.925710531223
20
251.770635303722
40
0.0
41
0.0
42
0.0
10
191.242393891112
20
251.490300674937
40
0.0
41
0.0
42
0.0
10
190.40858414186
20
250.856417041304
40
0.0
41
0.0
42
0.0
10
189.067049706143
20
249.527021263509
40
0.0
41
0.0
42
0.0
10
187.376372529151
20
247.711774795689
40
0.0
41
0.0
42
0.0
10
185.495134556075
20
245.62033909198
40
0.0
41
0.0
42
0.0
10
183.581917732107
20
243.462375606521
40
0.0
41
0.0
42
0.0
10
181.795304002438
20
241.447545793448
40
0.0
41
0.0
42
0.0
10
180.293875312258
20
239.785511106899
40
0.0
41
0.0
42
0.0
10
179.23621360676
20
238.685933001011
40
0.0
41
0.0
42
0.0
10
178.780900831133
20
238.35847292992
40
0.0
41
0.0
42
0.0
10
179.08651893057
20
239.012792347765
40
0.0
41
0.0
42
0.0
10
176.623371646018
20
234.962471302126
40
0.0
41
0.0
42
0.0
10
176.312710985414
20
234.393389654308
40
0.0
41
0.0
42
0.0
10
176.062155946856
20
233.828371201871
40
0.0
41
0.0
42
0.0
10
175.861362925079
20
233.282971800406
40
0.0
41
0.0
42
0.0
10
175.699988314816
20
232.772747305507
40
0.0
41
0.0
42
0.0
10
175.567688510803
20
232.313253572764
40
0.0
41
0.0
42
0.0
10
175.454119907775
20
231.92004645777
40
0.0
41
0.0
42
0.0
10
175.348938900466
20
231.608681816117
40
0.0
41
0.0
42
0.0
10
175.241801883612
20
231.394715503397
40
0.0
41
0.0
42
0.0
10
175.122365251946
20
231.293703375202
40
0.0
41
0.0
42
0.0
10
174.980285400204
20
231.321201287123
40
0.0
41
0.0
42
0.0
10
175.503116500877
20
230.998073896532
40
0.0
41
0.0
42
0.0
10
175.85067151624
20
230.398788682016
40
0.0
41
0.0
42
0.0
10
175.768714006089
20
229.426812954651
40
0.0
41
0.0
42
0.0
10
175.378233513942
20
228.203608492131
40
0.0
41
0.0
42
0.0
10
174.800219583321
20
226.850637072147
40
0.0
41
0.0
42
0.0
10
174.155661757744
20
225.489360472391
40
0.0
41
0.0
42
0.0
10
173.565549580731
20
224.241240470554
40
0.0
41
0.0
42
0.0
10
173.150872595803
20
223.227738844329
40
0.0
41
0.0
42
0.0
10
173.032620346478
20
222.570317371408
40
0.0
41
0.0
42
0.0
10
173.331782376277
20
222.390437829481
40
0.0
41
0.0
42
0.0
10
174.16934822872
20
222.809561996241
40
0.0
41
0.0
42
0.0
10
170.345689523372
20
220.279184395126
40
0.0
41
0.0
42
0.0
10
169.35388172471
20
219.446246054047
40
0.0
41
0.0
42
0.0
10
168.517754431025
20
218.440312305957
40
0.0
41
0.0
42
0.0
10
167.830115381923
20
217.372366691658
40
0.0
41
0.0
42
0.0
10
167.28377231701
20
216.353392751948
40
0.0
41
0.0
42
0.0
10
166.871532975892
20
215.494374027627
40
0.0
41
0.0
42
0.0
10
166.586205098173
20
214.906294059497
40
0.0
41
0.0
42
0.0
10
166.42059642346
20
214.700136388356
40
0.0
41
0.0
42
0.0
10
166.367514691358
20
214.986884555004
40
0.0
41
0.0
42
0.0
10
166.419767641474
20
215.877522100242
40
0.0
41
0.0
42
0.0
10
166.570163013412
20
217.483032564869
40
0.0
41
0.0
42
0.0
10
165.913265804352
20
210.81656110513
40
0.0
41
0.0
42
0.0
10
165.769293482051
20
209.672076510677
40
0.0
41
0.0
42
0.0
10
165.578227395871
20
208.565145732456
40
0.0
41
0.0
42
0.0
10
165.35957711375
20
207.517159328045
40
0.0
41
0.0
42
0.0
10
165.132852203624
20
206.549507855025
40
0.0
41
0.0
42
0.0
10
164.917562233427
20
205.683581870977
40
0.0
41
0.0
42
0.0
10
164.733216771098
20
204.940771933479
40
0.0
41
0.0
42
0.0
10
164.599325384572
20
204.342468600113
40
0.0
41
0.0
42
0.0
10
164.535397641785
20
203.910062428457
40
0.0
41
0.0
42
0.0
10
164.560943110673
20
203.664943976092
40
0.0
41
0.0
42
0.0
10
164.695471359173
20
203.628503800599
40
0.0
41
0.0
42
0.0
10
164.043728600446
20
203.378406637926
40
0.0
41
0.0
42
0.0
10
163.821149620642
20
203.056860151845
40
0.0
41
0.0
42
0.0
10
163.646001439954
20
202.374756022173
40
0.0
41
0.0
42
0.0
10
163.510305241676
20
201.469299418775
40
0.0
41
0.0
42
0.0
10
163.4060822091
20
200.477695511515
40
0.0
41
0.0
42
0.0
10
163.325353525517
20
199.537149470258
40
0.0
41
0.0
42
0.0
10
163.260140374221
20
198.784866464868
40
0.0
41
0.0
42
0.0
10
163.202463938503
20
198.358051665211
40
0.0
41
0.0
42
0.0
10
163.144345401655
20
198.39391024115
40
0.0
41
0.0
42
0.0
10
163.077805946971
20
199.029647362551
40
0.0
41
0.0
42
0.0
10
162.994866757742
20
200.402468199278
40
0.0
41
0.0
42
0.0
10
163.307528964645
20
194.445475695907
40
0.0
41
0.0
42
0.0
10
163.371633676998
20
192.465320581621
40
0.0
41
0.0
42
0.0
10
163.354160905701
20
190.840840964715
40
0.0
41
0.0
42
0.0
10
163.282238971142
20
189.533710087374
40
0.0
41
0.0
42
0.0
10
163.182996193707
20
188.505601191785
40
0.0
41
0.0
42
0.0
10
163.083560893784
20
187.718187520133
40
0.0
41
0.0
42
0.0
10
163.011061391759
20
187.133142314605
40
0.0
41
0.0
42
0.0
10
162.992626008019
20
186.712138817387
40
0.0
41
0.0
42
0.0
10
163.055383062952
20
186.416850270664
40
0.0
41
0.0
42
0.0
10
163.226460876943
20
186.208949916622
40
0.0
41
0.0
42
0.0
10
163.532987770381
20
186.050110997449
40
0.0
41
0.0
42
0.0
10
162.255340414971
20
186.540390289708
40
0.0
41
0.0
42
0.0
10
161.748282997773
20
186.603616613569
40
0.0
41
0.0
42
0.0
10
161.34131061754
20
186.408356702824
40
0.0
41
0.0
42
0.0
10
161.012661261898
20
186.026891013174
40
0.0
41
0.0
42
0.0
10
160.740572918472
20
185.531500000319
40
0.0
41
0.0
42
0.0
10
160.503283574884
20
184.994464119961
40
0.0
41
0.0
42
0.0
10
160.27903121876
20
184.4880638278
40
0.0
41
0.0
42
0.0
10
160.046053837724
20
184.084579579539
40
0.0
41
0.0
42
0.0
10
159.782589419401
20
183.856291830876
40
0.0
41
0.0
42
0.0
10
159.466875951414
20
183.875481037514
40
0.0
41
0.0
42
0.0
10
159.077151421389
20
184.214427655154
40
0.0
41
0.0
42
0.0
10
160.523764971956
20
182.471364960574
40
0.0
41
0.0
42
0.0
10
160.762983071364
20
182.248134594931
40
0.0
41
0.0
42
0.0
10
161.104603365488
20
182.007380103468
40
0.0
41
0.0
42
0.0
10
161.508419030625
20
181.76131276852
40
0.0
41
0.0
42
0.0
10
161.934223243077
20
181.522143872425
40
0.0
41
0.0
42
0.0
10
162.341809179141
20
181.302084697519
40
0.0
41
0.0
42
0.0
10
162.690970015118
20
181.113346526137
40
0.0
41
0.0
42
0.0
10
162.941498927307
20
180.968140640615
40
0.0
41
0.0
42
0.0
10
163.053189092007
20
180.878678323291
40
0.0
41
0.0
42
0.0
10
162.985833685518
20
180.857170856501
40
0.0
41
0.0
42
0.0
10
162.699225884138
20
180.91582952258
40
0.0
41
0.0
42
0.0
10
164.064680128776
20
180.573122322716
40
0.0
41
0.0
42
0.0
10
164.642890466432
20
180.291707907307
40
0.0
41
0.0
42
0.0
10
165.26364299621
20
179.781625681764
40
0.0
41
0.0
42
0.0
10
165.889066057485
20
179.134273804201
40
0.0
41
0.0
42
0.0
10
166.481287989636
20
178.441050432735
40
0.0
41
0.0
42
0.0
10
167.002437132038
20
177.793353725481
40
0.0
41
0.0
42
0.0
10
167.414641824068
20
177.282581840555
40
0.0
41
0.0
42
0.0
10
167.680030405102
20
177.000132936071
40
0.0
41
0.0
42
0.0
10
167.760731214516
20
177.037405170146
40
0.0
41
0.0
42
0.0
10
167.618872591688
20
177.485796700895
40
0.0
41
0.0
42
0.0
10
167.216582875993
20
178.436705686433
40
0.0
41
0.0
42
0.0
10
169.033680039336
20
174.32792646764
40
0.0
41
0.0
42
0.0
10
169.461275980172
20
173.375115239173
40
0.0
41
0.0
42
0.0
10
169.910544478473
20
172.396192551149
40
0.0
41
0.0
42
0.0
10
170.361952683483
20
171.427489431248
40
0.0
41
0.0
42
0.0
10
170.795967744442
20
170.50533690715
40
0.0
41
0.0
42
0.0
10
171.193056810595
20
169.666066006537
40
0.0
41
0.0
42
0.0
10
171.533687031182
20
168.946007757088
40
0.0
41
0.0
42
0.0
10
171.798325555447
20
168.381493186484
40
0.0
41
0.0
42
0.0
10
171.967439532632
20
168.008853322405
40
0.0
41
0.0
42
0.0
10
172.021496111979
20
167.864419192532
40
0.0
41
0.0
42
0.0
10
171.94096244273
20
167.984521824545
40
0.0
41
0.0
42
0.0
10
172.455428255392
20
167.102917306158
40
0.0
41
0.0
42
0.0
10
172.674722979949
20
166.717564703513
40
0.0
41
0.0
42
0.0
10
172.997317455058
20
166.139622922353
40
0.0
41
0.0
42
0.0
10
173.38329636427
20
165.442821936292
40
0.0
41
0.0
42
0.0
10
173.792744391136
20
164.700891718945
40
0.0
41
0.0
42
0.0
10
174.185746219207
20
163.987562243926
40
0.0
41
0.0
42
0.0
10
174.522386532036
20
163.37656348485
40
0.0
41
0.0
42
0.0
10
174.762750013174
20
162.94162541533
40
0.0
41
0.0
42
0.0
10
174.866921346171
20
162.756478008981
40
0.0
41
0.0
42
0.0
10
174.794985214579
20
162.894851239417
40
0.0
41
0.0
42
0.0
10
174.507026301951
20
163.430475080253
40
0.0
41
0.0
42
0.0
10
175.871277664052
20
160.901055733896
40
0.0
41
0.0
42
0.0
10
176.761167298679
20
159.350977202541
40
0.0
41
0.0
42
0.0
10
177.787881522456
20
157.712105824112
40
0.0
41
0.0
42
0.0
10
178.891065164249
20
156.044157945372
40
0.0
41
0.0
42
0.0
10
180.010363052919
20
154.406849913086
40
0.0
41
0.0
42
0.0
10
181.085420017331
20
152.859898074019
40
0.0
41
0.0
42
0.0
10
182.055880886347
20
151.463018774936
40
0.0
41
0.0
42
0.0
10
182.86139048883
20
150.275928362601
40
0.0
41
0.0
42
0.0
10
183.441593653645
20
149.358343183779
40
0.0
41
0.0
42
0.0
10
183.736135209653
20
148.769979585235
40
0.0
41
0.0
42
0.0
10
183.684659985719
20
148.570553913733
40
0.0
41
0.0
42
0.0
10
184.5
20
148.520724777264
40
0.0
41
0.0
42
0.0
10
184.603663962957
20
148.451967614177
40
0.0
41
0.0
42
0.0
10
184.74046924264
20
148.279536441716
40
0.0
41
0.0
42
0.0
10
184.896635925272
20
148.039065884437
40
0.0
41
0.0
42
0.0
10
185.058384097073
20
147.766190566898
40
0.0
41
0.0
42
0.0
10
185.211933844264
20
147.496545113657
40
0.0
41
0.0
42
0.0
10
185.343505253066
20
147.26576414927
40
0.0
41
0.0
42
0.0
10
185.439318409699
20
147.109482298295
40
0.0
41
0.0
42
0.0
10
185.485593400385
20
147.063334185291
40
0.0
41
0.0
42
0.0
10
185.468550311344
20
147.162954434814
40
0.0
41
0.0
42
0.0
10
185.374409228797
20
147.443977671421
40
0.0
41
0.0
42
0.0
10
185.832020508438
20
146.165301210302
40
0.0
41
0.0
42
0.0
10
185.958181686222
20
145.639856833394
40
0.0
41
0.0
42
0.0
10
185.982226521875
20
145.123751821053
40
0.0
41
0.0
42
0.0
10
185.935139220017
20
144.635169982827
40
0.0
41
0.0
42
0.0
10
185.847903985267
20
144.192295128261
40
0.0
41
0.0
42
0.0
10
185.751505022243
20
143.813311066902
40
0.0
41
0.0
42
0.0
10
185.676926535564
20
143.516401608297
40
0.0
41
0.0
42
0.0
10
185.655152729849
20
143.319750561991
40
0.0
41
0.0
42
0.0
10
185.717167809715
20
143.241541737531
40
0.0
41
0.0
42
0.0
10
185.893955979783
20
143.299958944464
40
0.0
41
0.0
42
0.0
10
186.21650144467
20
143.513185992336
40
0.0
41
0.0
42
0.0
10
184.863994176326
20
142.524208531703
40
0.0
41
0.0
42
0.0
10
184.474661141
20
142.054673481507
40
0.0
41
0.0
42
0.0
10
183.939744943344
20
141.177676464071
40
0.0
41
0.0
42
0.0
10
183.317846759768
20
140.039097618221
40
0.0
41
0.0
42
0.0
10
182.667567766682
20
138.784817082786
40
0.0
41
0.0
42
0.0
10
182.047509140495
20
137.560714996592
40
0.0
41
0.0
42
0.0
10
181.516272057618
20
136.512671498465
40
0.0
41
0.0
42
0.0
10
181.13245769446
20
135.786566727235
40
0.0
41
0.0
42
0.0
10
180.954667227432
20
135.528280821726
40
0.0
41
0.0
42
0.0
10
181.041501832942
20
135.883693920768
40
0.0
41
0.0
42
0.0
10
181.451562687401
20
136.998686163186
40
0.0
41
0.0
42
0.0
10
179.480870339389
20
131.853991073023
40
0.0
41
0.0
42
0.0
10
178.584601775807
20
129.685223179308
40
0.0
41
0.0
42
0.0
10
177.689802564988
20
127.791318697833
40
0.0
41
0.0
42
0.0
10
176.83638018022
20
126.16990130717
40
0.0
41
0.0
42
0.0
10
176.064242094794
20
124.81859468589
40
0.0
41
0.0
42
0.0
10
175.413295781998
20
123.735022512564
40
0.0
41
0.0
42
0.0
10
174.923448715122
20
122.916808465765
40
0.0
41
0.0
42
0.0
10
174.634608367454
20
122.361576224063
40
0.0
41
0.0
42
0.0
10
174.586682212284
20
122.06694946603
40
0.0
41
0.0
42
0.0
10
174.819577722901
20
122.030551870238
40
0.0
41
0.0
42
0.0
10
175.373202372594
20
122.250007115258
40
0.0
41
0.0
42
0.0
10
172.948896671502
20
121.094708587648
40
0.0
41
0.0
42
0.0
10
172.476782524553
20
120.85808098011
40
0.0
41
0.0
42
0.0
10
172.036004440644
20
120.617427759144
40
0.0
41
0.0
42
0.0
10
171.630205102785
20
120.380974078108
40
0.0
41
0.0
42
0.0
10
171.263027193984
20
120.156945090358
40
0.0
41
0.0
42
0.0
10
170.938113397254
20
119.953565949251
40
0.0
41
0.0
42
0.0
10
170.659106395603
20
119.779061808143
40
0.0
41
0.0
42
0.0
10
170.429648872042
20
119.641657820393
40
0.0
41
0.0
42
0.0
10
170.253383509581
20
119.549579139357
40
0.0
41
0.0
42
0.0
10
170.13395299123
20
119.511050918391
40
0.0
41
0.0
42
0.0
10
170.075
20
119.534298310854
40
0.0
41
0.0
42
0.0
10
170.166666666667
20
119.344708587648
40
0.0
41
0.0
42
0.0
10
170.146525508639
20
119.288986444454
40
0.0
41
0.0
42
0.0
10
170.048363958486
20
119.236056440821
40
0.0
41
0.0
42
0.0
10
169.898074902103
20
119.186642464782
40
0.0
41
0.0
42
0.0
10
169.721551225385
20
119.141468404371
40
0.0
41
0.0
42
0.0
10
169.544685814228
20
119.101258147621
40
0.0
41
0.0
42
0.0
10
169.393371554526
20
119.066735582569
40
0.0
41
0.0
42
0.0
10
169.293501332175
20
119.038624597246
40
0.0
41
0.0
42
0.0
10
169.27096803307
20
119.017649079688
40
0.0
41
0.0
42
0.0
10
169.351664543107
20
119.004532917928
40
0.0
41
0.0
42
0.0
10
169.56148374818
20
119.0
40
0.0
41
0.0
42
0.0
10
168.618112032992
20
119.0
40
0.0
41
0.0
42
0.0
10
167.872564807573
20
118.745063633392
40
0.0
41
0.0
42
0.0
10
166.835374908383
20
118.060479076413
40
0.0
41
0.0
42
0.0
10
165.593719673263
20
117.066583143336
40
0.0
41
0.0
42
0.0
10
164.234776440054
20
115.88371264843
40
0.0
41
0.0
42
0.0
10
162.845722546596
20
114.632204405967
40
0.0
41
0.0
42
0.0
10
161.51373533073
20
113.432395230217
40
0.0
41
0.0
42
0.0
10
160.325992130297
20
112.404621935451
40
0.0
41
0.0
42
0.0
10
159.369670283137
20
111.669221335939
40
0.0
41
0.0
42
0.0
10
158.731947127091
20
111.346530245952
40
0.0
41
0.0
42
0.0
10
158.5
20
111.556885479762
40
0.0
41
0.0
42
0.0
10
158.5
20
109.833583255992
40
0.0
41
0.0
42
0.0
10
158.375227442924
20
109.540841208313
40
0.0
41
0.0
42
0.0
10
158.047273344818
20
109.067734167859
40
0.0
41
0.0
42
0.0
10
157.585683065363
20
108.481319356543
40
0.0
41
0.0
42
0.0
10
157.060001964241
20
107.848653996278
40
0.0
41
0.0
42
0.0
10
156.539775401133
20
107.236795308978
40
0.0
41
0.0
42
0.0
10
156.094548735721
20
106.712800516556
40
0.0
41
0.0
42
0.0
10
155.793867327686
20
106.343726840925
40
0.0
41
0.0
42
0.0
10
155.70727653671
20
106.196631503998
40
0.0
41
0.0
42
0.0
10
155.904321722475
20
106.338571727689
40
0.0
41
0.0
42
0.0
10
156.454548244661
20
106.836604733912
40
0.0
41
0.0
42
0.0
10
153.954551654802
20
104.508498717937
40
0.0
41
0.0
42
0.0
10
149.409103309604
20
100.275578688893
40
0.0
41
0.0
42
0.0
10
149.409103309604
20
100.275578688893
40
0.0
41
0.0
42
0.0
10
151.204551654802
20
96.1801154319082
40
0.0
41
0.0
42
0.0
10
151.204551654802
20
96.1801154319082
40
0.0
41
0.0
42
0.0
10
151.808306996627
20
95.0929541837334
40
0.0
41
0.0
42
0.0
10
152.506570657351
20
94.2418554791103
40
0.0
41
0.0
42
0.0
10
153.228941611507
20
93.5948034290829
40
0.0
41
0.0
42
0.0
10
153.905018833629
20
93.1197821446954
40
0.0
41
0.0
42
0.0
10
154.46440129825
20
92.7847757369917
40
0.0
41
0.0
42
0.0
10
154.836687979905
20
92.5577683170161
40
0.0
41
0.0
42
0.0
10
154.951477853128
20
92.4067439958125
40
0.0
41
0.0
42
0.0
10
154.738369892452
20
92.2996868844251
40
0.0
41
0.0
42
0.0
10
154.12696307241
20
92.2045810938979
40
0.0
41
0.0
42
0.0
10
153.046856367538
20
92.089410735275
40
0.0
41
0.0
42
0.0
10
157.506601886794
20
92.5423260874618
40
0.0
41
0.0
42
0.0
10
158.32375520818
20
92.6417367519003
40
0.0
41
0.0
42
0.0
10
159.248782189053
20
92.7788470750794
40
0.0
41
0.0
42
0.0
10
160.222801288448
20
92.9385231385005
40
0.0
41
0.0
42
0.0
10
161.186930965403
20
93.1056310236653
40
0.0
41
0.0
42
0.0
10
162.082289678952
20
93.2650368120752
40
0.0
41
0.0
42
0.0
10
162.849995888131
20
93.4016065852318
40
0.0
41
0.0
42
0.0
10
163.431168051977
20
93.5002064246367
40
0.0
41
0.0
42
0.0
10
163.766924629526
20
93.5457024117914
40
0.0
41
0.0
42
0.0
10
163.798384079814
20
93.5229606281975
40
0.0
41
0.0
42
0.0
10
163.466664861876
20
93.4168471553565
40
0.0
41
0.0
42
0.0
10
165.243117303116
20
93.9263270119033
40
0.0
41
0.0
42
0.0
10
165.837485698811
20
94.0663703876732
40
0.0
41
0.0
42
0.0
10
166.407888852967
20
94.1503537794563
40
0.0
41
0.0
42
0.0
10
166.942537753396
20
94.1923735899622
40
0.0
41
0.0
42
0.0
10
167.42964338791
20
94.2065262219004
40
0.0
41
0.0
42
0.0
10
167.857416744322
20
94.2069080779806
40
0.0
41
0.0
42
0.0
10
168.214068810444
20
94.2076155609125
40
0.0
41
0.0
42
0.0
10
168.487810574089
20
94.2227450734055
40
0.0
41
0.0
42
0.0
10
168.666853023067
20
94.2663930181693
40
0.0
41
0.0
42
0.0
10
168.739407145193
20
94.3526557979135
40
0.0
41
0.0
42
0.0
10
168.693683928277
20
94.4956298153477
40
0.0
41
0.0
42
0.0
10
169.056322452162
20
93.908868358073
40
0.0
41
0.0
42
0.0
10
169.36105827843
20
93.7668599881897
40
0.0
41
0.0
42
0.0
10
169.997823382439
20
93.6582682272204
40
0.0
41
0.0
42
0.0
10
170.848826047496
20
93.5764673108717
40
0.0
41
0.0
42
0.0
10
171.796274556912
20
93.5148314748503
40
0.0
41
0.0
42
0.0
10
172.722377193995
20
93.4667349548629
40
0.0
41
0.0
42
0.0
10
173.509342242054
20
93.4255519866161
40
0.0
41
0.0
42
0.0
10
174.039377984398
20
93.3846568058167
40
0.0
41
0.0
42
0.0
10
174.194692704337
20
93.3374236481712
40
0.0
41
0.0
42
0.0
10
173.85749468518
20
93.2772267493864
40
0.0
41
0.0
42
0.0
10
172.909992210235
20
93.1974403451689
40
0.0
41
0.0
42
0.0
10
177.216387571575
20
93.5034061619409
40
0.0
41
0.0
42
0.0
10
178.493851980322
20
93.5737064944362
40
0.0
41
0.0
42
0.0
10
179.79572776854
20
93.6124198625817
40
0.0
41
0.0
42
0.0
10
181.076741661637
20
93.6277349398198
40
0.0
41
0.0
42
0.0
10
182.291620385025
20
93.6278403995928
40
0.0
41
0.0
42
0.0
10
183.395090664114
20
93.620924915343
40
0.0
41
0.0
42
0.0
10
184.341879224312
20
93.6151771605128
40
0.0
41
0.0
42
0.0
10
185.086712791032
20
93.6187858085445
40
0.0
41
0.0
42
0.0
10
185.584318089682
20
93.6399395328803
40
0.0
41
0.0
42
0.0
10
185.789421845672
20
93.6868270069627
40
0.0
41
0.0
42
0.0
10
185.656750784414
20
93.767636904234
40
0.0
41
0.0
42
0.0
10
186.712249322457
20
93.432634681968
40
0.0
41
0.0
42
0.0
10
187.051139168559
20
93.1687988704297
40
0.0
41
0.0
42
0.0
10
187.115343575972
20
92.7458991228105
40
0.0
41
0.0
42
0.0
10
186.990942259658
20
92.236075295619
40
0.0
41
0.0
42
0.0
10
186.76401493458
20
91.7114672453639
40
0.0
41
0.0
42
0.0
10
186.5206413157
20
91.244214828554
40
0.0
41
0.0
42
0.0
10
186.346901117979
20
90.9064579016979
40
0.0
41
0.0
42
0.0
10
186.32887405638
20
90.7703363213044
40
0.0
41
0.0
42
0.0
10
186.552639845866
20
90.9079899438821
40
0.0
41
0.0
42
0.0
10
187.104278201397
20
91.3915586259399
40
0.0
41
0.0
42
0.0
10
188.069868837936
20
92.2931822239862
40
0.0
41
0.0
42
0.0
10
184.065668786723
20
88.5108566410631
40
0.0
41
0.0
42
0.0
10
183.327628427349
20
87.7877958959594
40
0.0
41
0.0
42
0.0
10
182.626569985148
20
87.0574666490854
40
0.0
41
0.0
42
0.0
10
181.972081364571
20
86.343370252888
40
0.0
41
0.0
42
0.0
10
181.373750470071
20
85.6690080598141
40
0.0
41
0.0
42
0.0
10
180.8411652061
20
85.0578814223107
40
0.0
41
0.0
42
0.0
10
180.38391347711
20
84.5334916928247
40
0.0
41
0.0
42
0.0
10
180.011583187552
20
84.119340223803
40
0.0
41
0.0
42
0.0
10
179.73376224188
20
83.8389283676926
40
0.0
41
0.0
42
0.0
10
179.560038544545
20
83.7157574769404
40
0.0
41
0.0
42
0.0
10
179.5
20
83.7733289039933
40
0.0
41
0.0
42
0.0
10
179.5
20
83.2540743369784
40
0.0
41
0.0
42
0.0
10
179.445747305936
20
83.0523626858981
40
0.0
41
0.0
42
0.0
10
179.303148694764
20
82.7783462822943
40
0.0
41
0.0
42
0.0
10
179.10244337301
20
82.4613738403088
40
0.0
41
0.0
42
0.0
10
178.873870547201
20
82.1307940740838
40
0.0
41
0.0
42
0.0
10
178.647669423866
20
81.8159556977613
40
0.0
41
0.0
42
0.0
10
178.45407920953
20
81.5462074254834
40
0.0
41
0.0
42
0.0
10
178.323339110721
20
81.350897971392
40
0.0
41
0.0
42
0.0
10
178.285688333967
20
81.2593760496293
40
0.0
41
0.0
42
0.0
10
178.371366085794
20
81.3009903743372
40
0.0
41
0.0
42
0.0
10
178.610611572729
20
81.5050896596578
40
0.0
41
0.0
42
0.0
10
177.523581272732
20
80.5213407585212
40
0.0
41
0.0
42
0.0
10
177.219534047203
20
80.207224174204
40
0.0
41
0.0
42
0.0
10
176.956639948867
20
79.8669114623899
40
0.0
41
0.0
42
0.0
10
176.7304430751
20
79.5180841737625
40
0.0
41
0.0
42
0.0
10
176.536487523279
20
79.1784238590052
40
0.0
41
0.0
42
0.0
10
176.370317390782
20
78.8656120688015
40
0.0
41
0.0
42
0.0
10
176.227476774986
20
78.5973303538349
40
0.0
41
0.0
42
0.0
10
176.103509773268
20
78.3912602647889
40
0.0
41
0.0
42
0.0
10
175.993960483004
20
78.2650833523469
40
0.0
41
0.0
42
0.0
10
175.894373001573
20
78.2364811671926
40
0.0
41
0.0
42
0.0
10
175.800291426351
20
78.3231352600092
40
0.0
41
0.0
42
0.0
10
176.109671169657
20
77.8225483199092
40
0.0
41
0.0
42
0.0
10
176.168588895196
20
77.6368494158593
40
0.0
41
0.0
42
0.0
10
176.170821806447
20
77.3957117989423
40
0.0
41
0.0
42
0.0
10
176.133031274331
20
77.1225458659177
40
0.0
41
0.0
42
0.0
10
176.071878669774
20
76.8407620135449
40
0.0
41
0.0
42
0.0
10
176.004025363697
20
76.5737706385833
40
0.0
41
0.0
42
0.0
10
175.946132727025
20
76.3449821377922
40
0.0
41
0.0
42
0.0
10
175.91486213068
20
76.177806907931
40
0.0
41
0.0
42
0.0
10
175.926874945586
20
76.0956553457592
40
0.0
41
0.0
42
0.0
10
175.998832542667
20
76.1219378480362
40
0.0
41
0.0
42
0.0
10
176.147396292845
20
76.2800648115213
40
0.0
41
0.0
42
0.0
10
175.505994236062
20
75.5072226126026
40
0.0
41
0.0
42
0.0
10
175.093539377524
20
74.4355424206732
40
0.0
41
0.0
42
0.0
10
174.757893280981
20
72.5119158524263
40
0.0
41
0.0
42
0.0
10
174.485055194171
20
70.0268375960249
40
0.0
41
0.0
42
0.0
10
174.261024364831
20
67.2708023396319
40
0.0
41
0.0
42
0.0
10
174.071800040697
20
64.53430477141
40
0.0
41
0.0
42
0.0
10
173.903381469508
20
62.1078395795221
40
0.0
41
0.0
42
0.0
10
173.741767899
20
60.2819014521312
40
0.0
41
0.0
42
0.0
10
173.572958576911
20
59.3469850774
40
0.0
41
0.0
42
0.0
10
173.382952750977
20
59.5935851434915
40
0.0
41
0.0
42
0.0
10
173.157749668936
20
61.3121963385684
40
0.0
41
0.0
42
0.0
10
173.982645093987
20
52.8073685975996
40
0.0
41
0.0
42
0.0
10
174.071523164161
20
50.8914350871067
40
0.0
41
0.0
42
0.0
10
173.984561944275
20
49.1577585655689
40
0.0
41
0.0
42
0.0
10
173.775817856324
20
47.601739542498
40
0.0
41
0.0
42
0.0
10
173.499347322301
20
46.2187785274055
40
0.0
41
0.0
42
0.0
10
173.209206764201
20
45.0042760298031
40
0.0
41
0.0
42
0.0
10
172.959452604016
20
43.9536325592026
40
0.0
41
0.0
42
0.0
10
172.804141263742
20
43.0622486251154
40
0.0
41
0.0
42
0.0
10
172.797329165371
20
42.3255247370534
40
0.0
41
0.0
42
0.0
10
172.993072730897
20
41.7388614045281
40
0.0
41
0.0
42
0.0
10
173.445428382314
20
41.2976591370513
40
0.0
41
0.0
42
0.0
10
171.44982671
20
42.5310087985472
40
0.0
41
0.0
42
0.0
10
171.28240913548
20
42.5350689040478
40
0.0
41
0.0
42
0.0
10
171.100085868342
20
42.3864610458593
40
0.0
41
0.0
42
0.0
10
170.912586871775
20
42.1345804310961
40
0.0
41
0.0
42
0.0
10
170.729642108965
20
41.8288222668727
40
0.0
41
0.0
42
0.0
10
170.560981543101
20
41.5185817603036
40
0.0
41
0.0
42
0.0
10
170.41633513737
20
41.2532541185034
40
0.0
41
0.0
42
0.0
10
170.305432854959
20
41.0822345485866
40
0.0
41
0.0
42
0.0
10
170.238004659055
20
41.0549182576676
40
0.0
41
0.0
42
0.0
10
170.223780512846
20
41.2207004528609
40
0.0
41
0.0
42
0.0
10
170.272490379519
20
41.6289763412812
40
0.0
41
0.0
42
0.0
10
169.994423065597
20
39.809016994375
40
0.0
41
0.0
42
0.0
10
169.899535561578
20
39.191063060591
40
0.0
41
0.0
42
0.0
10
169.787311669051
20
38.4646700971408
40
0.0
41
0.0
42
0.0
10
169.666148734782
20
37.6830779486612
40
0.0
41
0.0
42
0.0
10
169.54444410554
20
36.8995264597892
40
0.0
41
0.0
42
0.0
10
169.430595128091
20
36.1672554751615
40
0.0
41
0.0
42
0.0
10
169.332999149202
20
35.5395048394151
40
0.0
41
0.0
42
0.0
10
169.26005351564
20
35.0695143971869
40
0.0
41
0.0
42
0.0
10
169.220155574172
20
34.8105239931136
40
0.0
41
0.0
42
0.0
10
169.221702671565
20
34.8157734718323
40
0.0
41
0.0
42
0.0
10
169.273092154585
20
35.1385026779797
40
0.0
41
0.0
42
0.0
10
169.00939284984
20
33.4744503955104
40
0.0
41
0.0
42
0.0
10
168.836188790135
20
32.8528623819989
40
0.0
41
0.0
42
0.0
10
168.539737305851
20
32.2125744717298
40
0.0
41
0.0
42
0.0
10
168.168252805129
20
31.5821986357506
40
0.0
41
0.0
42
0.0
10
167.769949696115
20
30.9903468451086
40
0.0
41
0.0
42
0.0
10
167.393042386949
20
30.4656310708513
40
0.0
41
0.0
42
0.0
10
167.085745285775
20
30.0366632840259
40
0.0
41
0.0
42
0.0
10
166.896272800735
20
29.73205545568
40
0.0
41
0.0
42
0.0
10
166.872839339973
20
29.5804195568607
40
0.0
41
0.0
42
0.0
10
167.06365931163
20
29.6103675586156
40
0.0
41
0.0
42
0.0
10
167.51694712385
20
29.850511431992
40
0.0
41
0.0
42
0.0
10
165.514969784243
20
28.6679143224267
40
0.0
41
0.0
42
0.0
10
165.013001916062
20
28.3198072749846
40
0.0
41
0.0
42
0.0
10
164.511683692411
20
27.8880783804049
40
0.0
41
0.0
42
0.0
10
164.025483141427
20
27.4100277083536
40
0.0
41
0.0
42
0.0
10
163.568868291245
20
26.9229553284965
40
0.0
41
0.0
42
0.0
10
163.156307170002
20
26.4641613104994
40
0.0
41
0.0
42
0.0
10
162.802267805836
20
26.0709457240282
40
0.0
41
0.0
42
0.0
10
162.521218226881
20
25.7806086387489
40
0.0
41
0.0
42
0.0
10
162.327626461276
20
25.6304501243271
40
0.0
41
0.0
42
0.0
10
162.235960537156
20
25.6577702504289
40
0.0
41
0.0
42
0.0
10
162.260688482658
20
25.8998690867201
40
0.0
41
0.0
42
0.0
10
161.96819662813
20
24.6934639269162
40
0.0
41
0.0
42
0.0
10
161.55133506809
20
23.6117160349429
40
0.0
41
0.0
42
0.0
10
160.931872129039
20
22.7035862037205
40
0.0
41
0.0
42
0.0
10
160.203131610647
20
21.9550011187408
40
0.0
41
0.0
42
0.0
10
159.458437312583
20
21.3518874654957
40
0.0
41
0.0
42
0.0
10
158.791113034516
20
20.8801719294772
40
0.0
41
0.0
42
0.0
10
158.294482576116
20
20.5257811961772
40
0.0
41
0.0
42
0.0
10
158.061869737052
20
20.2746419510875
40
0.0
41
0.0
42
0.0
10
158.186598316993
20
20.1126808797002
40
0.0
41
0.0
42
0.0
10
158.761992115609
20
20.025824667507
40
0.0
41
0.0
42
0.0
10
159.881374932569
20
20.0
40
0.0
41
0.0
42
0.0
10
155.139757401385
20
20.0
40
0.0
41
0.0
42
0.0
10
154.314697470523
20
20.0342426200446
40
0.0
41
0.0
42
0.0
10
153.534220457865
20
20.1239409603568
40
0.0
41
0.0
42
0.0
10
152.810257870632
20
20.2495507412043
40
0.0
41
0.0
42
0.0
10
152.154741216045
20
20.3915276828547
40
0.0
41
0.0
42
0.0
10
151.579602001328
20
20.5303275055757
40
0.0
41
0.0
42
0.0
10
151.096771733701
20
20.6464059296348
40
0.0
41
0.0
42
0.0
10
150.718181920386
20
20.7202186752996
40
0.0
41
0.0
42
0.0
10
150.455764068606
20
20.7322214628379
40
0.0
41
0.0
42
0.0
10
150.321449685583
20
20.6628700125173
40
0.0
41
0.0
42
0.0
10
150.327170278537
20
20.4926200446053
40
0.0
41
0.0
42
0.0
210
0.0
220
0.0
230
1.0
0
LWPOLYLINE
5
1E
330
17
100
AcDbEntity
67
0
8
0
62
256
6
ByLayer
370
-1
48
1.0
60
0
100
AcDbPolyline
90
114
70
0
38
0.0
39
0.0
10
166.603559047268
20
61.0
40
0.0
41
0.0
42
0.0
10
166.507758043834
20
91.5
40
0.0
41
0.0
42
0.0
10
166.507758043834
20
91.5
40
0.0
41
0.0
42
0.0
10
176.003879021917
20
92.0824869041021
40
0.0
41
0.0
42
0.0
10
176.003879021917
20
92.0824869041021
40
0.0
41
0.0
42
0.0
10
178.671558142544
20
92.1144816592744
40
0.0
41
0.0
42
0.0
10
180.578371134168
20
91.8943137576155
40
0.0
41
0.0
42
0.0
10
181.874914040782
20
91.5179010665661
40
0.0
41
0.0
42
0.0
10
182.711782906383
20
91.0811614535669
40
0.0
41
0.0
42
0.0
10
183.239573774964
20
90.6800127860585
40
0.0
41
0.0
42
0.0
10
183.608882690521
20
90.4103729314816
40
0.0
41
0.0
42
0.0
10
183.970305697048
20
90.3681597572768
40
0.0
41
0.0
42
0.0
10
184.474438838541
20
90.6492911308849
40
0.0
41
0.0
42
0.0
10
185.271878158993
20
91.3496849197465
40
0.0
41
0.0
42
0.0
10
186.5132197024
20
92.5652589913023
40
0.0
41
0.0
42
0.0
10
181.46824858168
20
87.548136206692
40
0.0
41
0.0
42
0.0
10
180.988431198452
20
87.0510192999158
40
0.0
41
0.0
42
0.0
10
180.532656628735
20
86.5453286585691
40
0.0
41
0.0
42
0.0
10
180.107158194551
20
86.0483818234374
40
0.0
41
0.0
42
0.0
10
179.718169217922
20
85.5774963353062
40
0.0
41
0.0
42
0.0
10
179.371923020869
20
85.1499897349609
40
0.0
41
0.0
42
0.0
10
179.074652925413
20
84.7831795631871
40
0.0
41
0.0
42
0.0
10
178.832592253577
20
84.4943833607701
40
0.0
41
0.0
42
0.0
10
178.651974327382
20
84.3009186684956
40
0.0
41
0.0
42
0.0
10
178.539032468849
20
84.2201030271489
40
0.0
41
0.0
42
0.0
10
178.5
20
84.2692539775155
40
0.0
41
0.0
42
0.0
10
178.5
20
83.8695647781206
40
0.0
41
0.0
42
0.0
10
178.4382375
20
83.6903982403264
40
0.0
41
0.0
42
0.0
10
178.2759
20
83.4166541760768
40
0.0
41
0.0
42
0.0
10
178.0474125
20
83.0842456296164
40
0.0
41
0.0
42
0.0
10
177.7872
20
82.7290856451895
40
0.0
41
0.0
42
0.0
10
177.5296875
20
82.3870872670407
40
0.0
41
0.0
42
0.0
10
177.3093
20
82.0941635394143
40
0.0
41
0.0
42
0.0
10
177.1604625
20
81.8862275065548
40
0.0
41
0.0
42
0.0
10
177.1176
20
81.7991922127067
40
0.0
41
0.0
42
0.0
10
177.2151375
20
81.8689707021144
40
0.0
41
0.0
42
0.0
10
177.4875
20
82.1314760190223
40
0.0
41
0.0
42
0.0
10
176.25
20
80.8953435343351
40
0.0
41
0.0
42
0.0
10
175.880856122379
20
80.4888289937857
40
0.0
41
0.0
42
0.0
10
175.521092706335
20
80.0301653146234
40
0.0
41
0.0
42
0.0
10
175.178462077102
20
79.5481531743586
40
0.0
41
0.0
42
0.0
10
174.86071655991
20
79.0715932505017
40
0.0
41
0.0
42
0.0
10
174.575608479991
20
78.6292862205629
40
0.0
41
0.0
42
0.0
10
174.330890162576
20
78.2500327620527
40
0.0
41
0.0
42
0.0
10
174.134313932898
20
77.9626335524815
40
0.0
41
0.0
42
0.0
10
173.993632116189
20
77.7958892693596
40
0.0
41
0.0
42
0.0
10
173.916597037678
20
77.7786005901973
40
0.0
41
0.0
42
0.0
10
173.910961022599
20
77.9395681925051
40
0.0
41
0.0
42
0.0
10
173.802135605776
20
77.0739149629065
40
0.0
41
0.0
42
0.0
10
173.741924568682
20
76.7096916091527
40
0.0
41
0.0
42
0.0
10
173.637352163158
20
76.1794169665984
40
0.0
41
0.0
42
0.0
10
173.504566572693
20
75.5475962566657
40
0.0
41
0.0
42
0.0
10
173.359715980779
20
74.8787347007768
40
0.0
41
0.0
42
0.0
10
173.218948570908
20
74.2373375203538
40
0.0
41
0.0
42
0.0
10
173.098412526571
20
73.6879099368187
40
0.0
41
0.0
42
0.0
10
173.014256031259
20
73.2949571715937
40
0.0
41
0.0
42
0.0
10
172.982627268464
20
73.1229844461008
40
0.0
41
0.0
42
0.0
10
173.019674421677
20
73.2364969817622
40
0.0
41
0.0
42
0.0
10
173.141545674389
20
73.7
40
0.0
41
0.0
42
0.0
10
172.575992240081
20
71.5
40
0.0
41
0.0
42
0.0
10
172.229147348418
20
69.743432032794
40
0.0
41
0.0
42
0.0
10
172.033521101481
20
67.9070955009699
40
0.0
41
0.0
42
0.0
10
171.950364421401
20
66.0602734723861
40
0.0
41
0.0
42
0.0
10
171.940928230312
20
64.2722490149007
40
0.0
41
0.0
42
0.0
10
171.966463450344
20
62.612305196372
40
0.0
41
0.0
42
0.0
10
171.988221003631
20
61.1497250846583
40
0.0
41
0.0
42
0.0
10
171.967451812303
20
59.9537917476178
40
0.0
41
0.0
42
0.0
10
171.865406798493
20
59.0937882531088
40
0.0
41
0.0
42
0.0
10
171.643336884334
20
58.6389976689896
40
0.0
41
0.0
42
0.0
10
171.262492991956
20
58.6587030631183
40
0.0
41
0.0
42
0.0
10
172.839650461209
20
57.7252105990999
40
0.0
41
0.0
42
0.0
10
173.09666000963
20
57.3664617405282
40
0.0
41
0.0
42
0.0
10
173.243277096856
20
56.7455247352546
40
0.0
41
0.0
42
0.0
10
173.308159535491
20
55.974034128521
40
0.0
41
0.0
42
0.0
10
173.319965138142
20
55.1636244655695
40
0.0
41
0.0
42
0.0
10
173.307351717412
20
54.4259302916421
40
0.0
41
0.0
42
0.0
10
173.298977085906
20
53.8725861519808
40
0.0
41
0.0
42
0.0
10
173.323499056229
20
53.6152265918277
40
0.0
41
0.0
42
0.0
10
173.409575440986
20
53.7654861564247
40
0.0
41
0.0
42
0.0
10
173.585864052781
20
54.434999391014
40
0.0
41
0.0
42
0.0
10
173.881022704219
20
55.7354008408375
40
0.0
41
0.0
42
0.0
10
172.667201786015
20
50.2252105990999
40
0.0
41
0.0
42
0.0
10
172.404584961091
20
49.1298538121378
40
0.0
41
0.0
42
0.0
10
172.116292046984
20
48.0755750829519
40
0.0
41
0.0
42
0.0
10
171.818329958949
20
47.0810826125378
40
0.0
41
0.0
42
0.0
10
171.526705612237
20
46.1650846018912
40
0.0
41
0.0
42
0.0
10
171.257425922103
20
45.346289252008
40
0.0
41
0.0
42
0.0
10
171.026497803799
20
44.6434047638838
40
0.0
41
0.0
42
0.0
10
170.849928172579
20
44.0751393385145
40
0.0
41
0.0
42
0.0
10
170.743723943696
20
43.6602011768957
40
0.0
41
0.0
42
0.0
10
170.723892032402
20
43.4172984800233
40
0.0
41
0.0
42
0.0
10
170.806439353951
20
43.3651394488929
40
0.0
41
0.0
42
0.0
10
170.342864099323
20
43.2003098864288
40
0.0
41
0.0
42
0.0
10
170.190153900972
20
43.0502914731875
40
0.0
41
0.0
42
0.0
10
170.017465204692
20
42.7372966979428
40
0.0
41
0.0
42
0.0
10
169.835743129479
20
42.3185696511955
40
0.0
41
0.0
42
0.0
10
169.655932794331
20
41.8513544234465
40
0.0
41
0.0
42
0.0
10
169.488979318244
20
41.3928951051967
40
0.0
41
0.0
42
0.0
10
169.345827820213
20
41.0004357869468
40
0.0
41
0.0
42
0.0
10
169.237423419237
20
40.7312205591978
40
0.0
41
0.0
42
0.0
10
169.17471123431
20
40.6424935124505
40
0.0
41
0.0
42
0.0
10
169.16863638443
20
40.7914987372058
40
0.0
41
0.0
42
0.0
10
169.230143988592
20
41.2354803239646
40
0.0
41
0.0
42
0.0
10
168.900319974649
20
39.2003098864288
40
0.0
41
0.0
42
0.0
10
168.417749157437
20
37.201498645647
40
0.0
41
0.0
42
0.0
10
168.0010607934
20
37.1658742352642
40
0.0
41
0.0
42
0.0
10
167.647350987885
20
38.4738715335791
40
0.0
41
0.0
42
0.0
10
167.353715846237
20
40.5059254188903
40
0.0
41
0.0
42
0.0
10
167.117251473799
20
42.6424707694966
40
0.0
41
0.0
42
0.0
10
166.935053975918
20
44.2639424636967
40
0.0
41
0.0
42
0.0
10
166.804219457938
20
44.7507753797892
40
0.0
41
0.0
42
0.0
10
166.721844025205
20
43.4834043960728
40
0.0
41
0.0
42
0.0
10
166.685023783062
20
39.8422643908462
40
0.0
41
0.0
42
0.0
10
166.690854836855
20
33.2077902424082
40
0.0
41
0.0
42
0.0
210
0.0
220
0.0
230
1.0
0
LWPOLYLINE
5
1F
330
17
100
AcDbEntity
67
0
8
0
62
256
6
ByLayer
370
-1
48
1.0
60
0
100
AcDbPolyline
90
125
70
0
38
0.0
39
0.0
10
167.097179287142
20
146.75
40
0.0
41
0.0
42
0.0
10
166.694358574283
20
173.5
40
0.0
41
0.0
42
0.0
10
166.694358574283
20
173.5
40
0.0
41
0.0
42
0.0
10
168.732875477217
20
170.25
40
0.0
41
0.0
42
0.0
10
168.732875477217
20
170.25
40
0.0
41
0.0
42
0.0
10
169.097670827112
20
169.7246375
40
0.0
41
0.0
42
0.0
10
169.503386920015
20
169.2256
40
0.0
41
0.0
42
0.0
10
169.926084687704
20
168.7597125
40
0.0
41
0.0
42
0.0
10
170.34182506196
20
168.3338
40
0.0
41
0.0
42
0.0
10
170.72666897456
20
167.9546875
40
0.0
41
0.0
42
0.0
10
171.056677357284
20
167.6292
40
0.0
41
0.0
42
0.0
10
171.30791114191
20
167.3641625
40
0.0
41
0.0
42
0.0
10
171.456431260219
20
167.1664
40
0.0
41
0.0
42
0.0
10
171.478298643989
20
167.0427375
40
0.0
41
0.0
42
0.0
10
171.349574224998
20
167.0
40
0.0
41
0.0
42
0.0
10
172.056240924256
20
167.0
40
0.0
41
0.0
42
0.0
10
172.28195464708
20
166.917964785186
40
0.0
41
0.0
42
0.0
10
172.526601811391
20
166.702342171386
40
0.0
41
0.0
42
0.0
10
172.777441440286
20
166.39885670456
40
0.0
41
0.0
42
0.0
10
173.021732556857
20
166.053232930672
40
0.0
41
0.0
42
0.0
10
173.2467341842
20
165.711195395683
40
0.0
41
0.0
42
0.0
10
173.43970534541
20
165.418468645555
40
0.0
41
0.0
42
0.0
10
173.58790506358
20
165.220777226249
40
0.0
41
0.0
42
0.0
10
173.678592361805
20
165.163845683728
40
0.0
41
0.0
42
0.0
10
173.69902626318
20
165.293398563953
40
0.0
41
0.0
42
0.0
10
173.636465790799
20
165.655160412887
40
0.0
41
0.0
42
0.0
10
173.997481296001
20
164.011467584193
40
0.0
41
0.0
42
0.0
10
174.128925126317
20
163.512711517496
40
0.0
41
0.0
42
0.0
10
174.296313118516
20
163.012661902705
40
0.0
41
0.0
42
0.0
10
174.484143979155
20
162.526323071945
40
0.0
41
0.0
42
0.0
10
174.676916414792
20
162.068699357342
40
0.0
41
0.0
42
0.0
10
174.859129131986
20
161.654795091021
40
0.0
41
0.0
42
0.0
10
175.015280837294
20
161.299614605108
40
0.0
41
0.0
42
0.0
10
175.129870237274
20
161.018162231726
40
0.0
41
0.0
42
0.0
10
175.187396038483
20
160.825442303003
40
0.0
41
0.0
42
0.0
10
175.172356947479
20
160.736459151062
40
0.0
41
0.0
42
0.0
10
175.069251670821
20
160.76621710803
40
0.0
41
0.0
42
0.0
10
175.57693656182
20
160.452450589818
40
0.0
41
0.0
42
0.0
10
175.726149766602
20
160.316660975565
40
0.0
41
0.0
42
0.0
10
175.867886157534
20
160.114540958125
40
0.0
41
0.0
42
0.0
10
176.000207301397
20
159.871573909085
40
0.0
41
0.0
42
0.0
10
176.121174764971
20
159.613243200035
40
0.0
41
0.0
42
0.0
10
176.228850115035
20
159.365032202561
40
0.0
41
0.0
42
0.0
10
176.321294918368
20
159.15242428825
40
0.0
41
0.0
42
0.0
10
176.396570741752
20
159.000902828692
40
0.0
41
0.0
42
0.0
10
176.452739151965
20
158.935951195473
40
0.0
41
0.0
42
0.0
10
176.487861715788
20
158.983052760181
40
0.0
41
0.0
42
0.0
10
176.5
20
159.167690894405
40
0.0
41
0.0
42
0.0
10
176.5
20
158.294687973815
40
0.0
41
0.0
42
0.0
10
176.623525
20
157.906046262796
40
0.0
41
0.0
42
0.0
10
176.9482
20
157.315215883947
40
0.0
41
0.0
42
0.0
10
177.405175
20
156.59913634005
40
0.0
41
0.0
42
0.0
10
177.9256
20
155.834747133887
40
0.0
41
0.0
42
0.0
10
178.440625
20
155.098987768239
40
0.0
41
0.0
42
0.0
10
178.8814
20
154.468797745889
40
0.0
41
0.0
42
0.0
10
179.179075
20
154.021116569619
40
0.0
41
0.0
42
0.0
10
179.2648
20
153.832883742211
40
0.0
41
0.0
42
0.0
10
179.069725
20
153.981038766446
40
0.0
41
0.0
42
0.0
10
178.525
20
154.542521145106
40
0.0
41
0.0
42
0.0
10
181.0
20
151.896545955771
40
0.0
41
0.0
42
0.0
10
182.300058309642
20
150.340812460963
40
0.0
41
0.0
42
0.0
10
183.222070730997
20
148.927868557247
40
0.0
41
0.0
42
0.0
10
183.844125355891
20
147.679771717366
40
0.0
41
0.0
42
0.0
10
184.244310276154
20
146.618579414066
40
0.0
41
0.0
42
0.0
10
184.500713583612
20
145.766349120092
40
0.0
41
0.0
42
0.0
10
184.691423370094
20
145.14513830819
40
0.0
41
0.0
42
0.0
10
184.894527727427
20
144.777004451103
40
0.0
41
0.0
42
0.0
10
185.18811474744
20
144.684005021577
40
0.0
41
0.0
42
0.0
10
185.65027252196
20
144.888197492358
40
0.0
41
0.0
42
0.0
10
186.359089142814
20
145.41163933619
40
0.0
41
0.0
42
0.0
10
183.498504449599
20
143.110242598615
40
0.0
41
0.0
42
0.0
10
182.823094392012
20
142.290965338464
40
0.0
41
0.0
42
0.0
10
182.041254640343
20
140.931697160984
40
0.0
41
0.0
42
0.0
10
181.20111196706
20
139.217297495834
40
0.0
41
0.0
42
0.0
10
180.35079314463
20
137.332625772673
40
0.0
41
0.0
42
0.0
10
179.538424945522
20
135.46254142116
40
0.0
41
0.0
42
0.0
10
178.812134142203
20
133.791903870953
40
0.0
41
0.0
42
0.0
10
178.22004750714
20
132.50557255171
40
0.0
41
0.0
42
0.0
10
177.810291812802
20
131.788406893092
40
0.0
41
0.0
42
0.0
10
177.630993831656
20
131.825266324756
40
0.0
41
0.0
42
0.0
10
177.73028033617
20
132.80101027636
40
0.0
41
0.0
42
0.0
10
176.881543653394
20
127.778323538155
40
0.0
41
0.0
42
0.0
10
176.696404548623
20
127.19706366217
40
0.0
41
0.0
42
0.0
10
176.370162710455
20
126.606366741479
40
0.0
41
0.0
42
0.0
10
175.958555597732
20
126.031366891942
40
0.0
41
0.0
42
0.0
10
175.517320669297
20
125.497198229422
40
0.0
41
0.0
42
0.0
10
175.102195383994
20
125.02899486978
40
0.0
41
0.0
42
0.0
10
174.768917200665
20
124.651890928877
40
0.0
41
0.0
42
0.0
10
174.573223578154
20
124.391020522574
40
0.0
41
0.0
42
0.0
10
174.570851975304
20
124.271517766733
40
0.0
41
0.0
42
0.0
10
174.817539850957
20
124.318516777215
40
0.0
41
0.0
42
0.0
10
175.369024663956
20
124.557151669881
40
0.0
41
0.0
42
0.0
10
172.960816548554
20
123.414382095285
40
0.0
41
0.0
42
0.0
10
172.401375553481
20
123.124587653709
40
0.0
41
0.0
42
0.0
10
171.86996717245
20
122.808488740976
40
0.0
41
0.0
42
0.0
10
171.373859120215
20
122.483090809469
40
0.0
41
0.0
42
0.0
10
170.920319111527
20
122.165399311574
40
0.0
41
0.0
42
0.0
10
170.516614861138
20
121.872419699674
40
0.0
41
0.0
42
0.0
10
170.1700140838
20
121.621157426153
40
0.0
41
0.0
42
0.0
10
169.887784494266
20
121.428617943396
40
0.0
41
0.0
42
0.0
10
169.677193807286
20
121.311806703787
40
0.0
41
0.0
42
0.0
10
169.545509737613
20
121.287729159711
40
0.0
41
0.0
42
0.0
10
169.5
20
121.373390763551
40
0.0
41
0.0
42
0.0
10
169.5
20
120.88605855713
40
0.0
41
0.0
42
0.0
10
169.47255
20
120.74282719137
40
0.0
41
0.0
42
0.0
10
169.4004
20
120.606772899922
40
0.0
41
0.0
42
0.0
10
169.29885
20
120.479756405758
40
0.0
41
0.0
42
0.0
10
169.1832
20
120.363638431846
40
0.0
41
0.0
42
0.0
10
169.06875
20
120.260279701157
40
0.0
41
0.0
42
0.0
10
168.9708
20
120.17154093666
40
0.0
41
0.0
42
0.0
10
168.90465
20
120.099282861326
40
0.0
41
0.0
42
0.0
10
168.8856
20
120.045366198125
40
0.0
41
0.0
42
0.0
10
168.92895
20
120.011651670026
40
0.0
41
0.0
42
0.0
10
169.05
20
120.0
40
0.0
41
0.0
42
0.0
10
168.5
20
120.0
40
0.0
41
0.0
42
0.0
10
168.307471071182
20
120.732101880475
40
0.0
41
0.0
42
0.0
10
168.113567483355
20
122.646815043802
40
0.0
41
0.0
42
0.0
10
167.925279171948
20
125.321750772831
40
0.0
41
0.0
42
0.0
10
167.749596072389
20
128.334520350415
40
0.0
41
0.0
42
0.0
10
167.593508120107
20
131.262735059405
40
0.0
41
0.0
42
0.0
10
167.464005250528
20
133.684006182652
40
0.0
41
0.0
42
0.0
10
167.368077399081
20
135.175945003007
40
0.0
41
0.0
42
0.0
10
167.312714501194
20
135.316162803322
40
0.0
41
0.0
42
0.0
10
167.304906492295
20
133.682270866449
40
0.0
41
0.0
42
0.0
10
167.351643307812
20
129.851880475239
40
0.0
41
0.0
42
0.0
210
0.0
220
0.0
230
1.0
0
LWPOLYLINE
5
20
330
17
100
AcDbEntity
67
0
8
0
62
256
6
ByLayer
370
-1
48
1.0
60
0
100
AcDbPolyline
90
86
70
0
38
0.0
39
0.0
10
111.352645258203
20
127.223028055156
40
0.0
41
0.0
42
0.0
10
110.678447598571
20
128.540154830293
40
0.0
41
0.0
42
0.0
10
110.023563245375
20
130.054182590239
40
0.0
41
0.0
42
0.0
10
109.404825076112
20
131.652903467161
40
0.0
41
0.0
42
0.0
10
108.839065968277
20
133.224109593227
40
0.0
41
0.0
42
0.0
10
108.343118799366
20
134.655593100602
40
0.0
41
0.0
42
0.0
10
107.933816446875
20
135.835146121454
40
0.0
41
0.0
42
0.0
10
107.6279917883
20
136.65056078795
40
0.0
41
0.0
42
0.0
10
107.442477701137
20
136.989629232257
40
0.0
41
0.0
42
0.0
10
107.394107062881
20
136.740143586542
40
0.0
41
0.0
42
0.0
10
107.499712751028
20
135.789895982972
40
0.0
41
0.0
42
0.0
10
106.872363382647
20
140.25
40
0.0
41
0.0
42
0.0
10
106.7390581112
20
140.920847019216
40
0.0
41
0.0
42
0.0
10
106.550865104115
20
141.534178005674
40
0.0
41
0.0
42
0.0
10
106.330587396981
20
142.086907553391
40
0.0
41
0.0
42
0.0
10
106.101028025384
20
142.575950256383
40
0.0
41
0.0
42
0.0
10
105.884990024912
20
142.998220708666
40
0.0
41
0.0
42
0.0
10
105.705276431152
20
143.350633504256
40
0.0
41
0.0
42
0.0
10
105.584690279692
20
143.630103237168
40
0.0
41
0.0
42
0.0
10
105.546034606119
20
143.833544501419
40
0.0
41
0.0
42
0.0
10
105.612112446021
20
143.957871891024
40
0.0
41
0.0
42
0.0
10
105.805726834984
20
144.0
40
0.0
41
0.0
42
0.0
10
104.922447917128
20
144.0
40
0.0
41
0.0
42
0.0
10
104.669242549461
20
144.073804042943
40
0.0
41
0.0
42
0.0
10
104.43732526305
20
144.266998606876
40
0.0
41
0.0
42
0.0
10
104.227959742087
20
144.537257344456
40
0.0
41
0.0
42
0.0
10
104.042409670765
20
144.84225390834
40
0.0
41
0.0
42
0.0
10
103.881938733274
20
145.139661951186
40
0.0
41
0.0
42
0.0
10
103.747810613806
20
145.387155125651
40
0.0
41
0.0
42
0.0
10
103.641288996553
20
145.542407084391
40
0.0
41
0.0
42
0.0
10
103.563637565707
20
145.563091480063
40
0.0
41
0.0
42
0.0
10
103.516120005459
20
145.406881965326
40
0.0
41
0.0
42
0.0
10
103.5
20
145.031452192835
40
0.0
41
0.0
42
0.0
10
103.5
20
146.695281138885
40
0.0
41
0.0
42
0.0
10
103.426494485725
20
147.226766944904
40
0.0
41
0.0
42
0.0
10
103.233632681064
20
147.852997243248
40
0.0
41
0.0
42
0.0
10
102.962896693266
20
148.526426574475
40
0.0
41
0.0
42
0.0
10
102.655768629578
20
149.199509479139
40
0.0
41
0.0
42
0.0
10
102.353730597249
20
149.824700497796
40
0.0
41
0.0
42
0.0
10
102.098264703524
20
150.354454171004
40
0.0
41
0.0
42
0.0
10
101.930853055654
20
150.741225039316
40
0.0
41
0.0
42
0.0
10
101.892977760885
20
150.93746764329
40
0.0
41
0.0
42
0.0
10
102.026120926465
20
150.895636523481
40
0.0
41
0.0
42
0.0
10
102.371764659641
20
150.568186220444
40
0.0
41
0.0
42
0.0
10
100.819360039449
20
152.188547490882
40
0.0
41
0.0
42
0.0
10
98.1387200788979
20
154.986532703992
40
0.0
41
0.0
42
0.0
10
98.1387200788979
20
154.986532703992
40
0.0
41
0.0
42
0.0
10
102.468224467995
20
159.595078938883
40
0.0
41
0.0
42
0.0
10
102.468224467995
20
159.595078938883
40
0.0
41
0.0
42
0.0
10
99.4352408411394
20
170.91533474325
40
0.0
41
0.0
42
0.0
10
99.4352408411394
20
170.91533474325
40
0.0
41
0.0
42
0.0
10
98.9563169751171
20
172.756612031285
40
0.0
41
0.0
42
0.0
10
98.5204557152876
20
174.52469068612
40
0.0
41
0.0
42
0.0
10
98.127695673713
20
176.189467517011
40
0.0
41
0.0
42
0.0
10
97.7780754624555
20
177.720839333215
40
0.0
41
0.0
42
0.0
10
97.4716336935773
20
179.088702943989
40
0.0
41
0.0
42
0.0
10
97.2084089791407
20
180.262955158589
40
0.0
41
0.0
42
0.0
10
96.9884399312079
20
181.213492786273
40
0.0
41
0.0
42
0.0
10
96.811765161841
20
181.910212636296
40
0.0
41
0.0
42
0.0
10
96.6784232831022
20
182.323011517915
40
0.0
41
0.0
42
0.0
10
96.5884529070539
20
182.421786240387
40
0.0
41
0.0
42
0.0
10
96.8160254204398
20
182.649358753773
40
0.0
41
0.0
42
0.0
10
97.0928540621146
20
182.520180762278
40
0.0
41
0.0
42
0.0
10
97.7082055929184
20
182.068378246333
40
0.0
41
0.0
42
0.0
10
98.5441936835678
20
181.402363655801
40
0.0
41
0.0
42
0.0
10
99.4829320047791
20
180.630549440541
40
0.0
41
0.0
42
0.0
10
100.406534227269
20
179.861348050414
40
0.0
41
0.0
42
0.0
10
101.197114021753
20
179.20317193528
40
0.0
41
0.0
42
0.0
10
101.736785058949
20
178.764433544999
40
0.0
41
0.0
42
0.0
10
101.907661009572
20
178.653545329433
40
0.0
41
0.0
42
0.0
10
101.59185554434
20
178.978919738442
40
0.0
41
0.0
42
0.0
10
100.671482333968
20
179.848969221887
40
0.0
41
0.0
42
0.0
10
104.877990754089
20
175.920554208724
40
0.0
41
0.0
42
0.0
10
112.526187881581
20
168.777981457519
40
0.0
41
0.0
42
0.0
10
112.526187881581
20
168.777981457519
40
0.0
41
0.0
42
0.0
10
129.309465411396
20
184.014999047456
40
0.0
41
0.0
42
0.0
10
129.309465411396
20
184.014999047456
40
0.0
41
0.0
42
0.0
10
123.045159236605
20
159.684027949294
40
0.0
41
0.0
42
0.0
10
123.045159236605
20
159.684027949294
40
0.0
41
0.0
42
0.0
10
139.0
20
143.014472238952
40
0.0
41
0.0
42
0.0
10
139.0
20
143.014472238952
40
0.0
41
0.0
42
0.0
10
118.873159968979
20
144.0
40
0.0
41
0.0
42
0.0
10
118.873159968979
20
144.0
40
0.0
41
0.0
42
0.0
10
113.0
20
124.353885652523
40
0.0
41
0.0
42
0.0
10
113.0
20
124.353885652523
40
0.0
41
0.0
42
0.0
10
111.352645258203
20
127.223028055156
40
0.0
41
0.0
42
0.0
210
0.0
220
0.0
230
1.0
0
LWPOLYLINE
5
21
330
17
100
AcDbEntity
67
0
8
0
62
256
6
ByLayer
370
-1
48
1.0
60
0
100
AcDbPolyline
90
209
70
0
38
0.0
39
0.0
10
167.5
20
247.964816241512
40
0.0
41
0.0
42
0.0
10
167.5068625
20
252.477146888641
40
0.0
41
0.0
42
0.0
10
167.5249
20
256.730545942877
40
0.0
41
0.0
42
0.0
10
167.5502875
20
260.677040033944
40
0.0
41
0.0
42
0.0
10
167.5792
20
264.268655791565
40
0.0
41
0.0
42
0.0
10
167.6078125
20
267.457419845466
40
0.0
41
0.0
42
0.0
10
167.6323
20
270.19535882537
40
0.0
41
0.0
42
0.0
10
167.6488375
20
272.434499361001
40
0.0
41
0.0
42
0.0
10
167.6536
20
274.126868082084
40
0.0
41
0.0
42
0.0
10
167.6427625
20
275.224491618343
40
0.0
41
0.0
42
0.0
10
167.6125
20
275.679396599501
40
0.0
41
0.0
42
0.0
10
167.75
20
275.287547998891
40
0.0
41
0.0
42
0.0
10
167.863911462043
20
275.219288501295
40
0.0
41
0.0
42
0.0
10
168.09548475845
20
275.233186169706
40
0.0
41
0.0
42
0.0
10
168.40322825464
20
275.304591505375
40
0.0
41
0.0
42
0.0
10
168.745650316032
20
275.408855009555
40
0.0
41
0.0
42
0.0
10
169.081259308046
20
275.521327183496
40
0.0
41
0.0
42
0.0
10
169.368563596099
20
275.617358528449
40
0.0
41
0.0
42
0.0
10
169.566071545612
20
275.672299545665
40
0.0
41
0.0
42
0.0
10
169.632291522002
20
275.661500736395
40
0.0
41
0.0
42
0.0
10
169.525731890689
20
275.560312601891
40
0.0
41
0.0
42
0.0
10
169.204901017091
20
275.344085643404
40
0.0
41
0.0
42
0.0
10
170.677557815758
20
276.283961876943
40
0.0
41
0.0
42
0.0
10
171.153548574633
20
276.543636642682
40
0.0
41
0.0
42
0.0
10
171.678139280836
20
276.762497494904
40
0.0
41
0.0
42
0.0
10
172.221648697534
20
276.946187876301
40
0.0
41
0.0
42
0.0
10
172.754395587897
20
277.100351229564
40
0.0
41
0.0
42
0.0
10
173.246698715092
20
277.230630997386
40
0.0
41
0.0
42
0.0
10
173.668876842286
20
277.342670622459
40
0.0
41
0.0
42
0.0
10
173.991248732649
20
277.442113547475
40
0.0
41
0.0
42
0.0
10
174.184133149348
20
277.534603215125
40
0.0
41
0.0
42
0.0
10
174.217848855551
20
277.625783068103
40
0.0
41
0.0
42
0.0
10
174.062714614425
20
277.721296549098
40
0.0
41
0.0
42
0.0
10
174.927557815758
20
277.389425073868
40
0.0
41
0.0
42
0.0
10
175.216055594841
20
277.298665316256
40
0.0
41
0.0
42
0.0
10
175.547691592231
20
277.22383424179
40
0.0
41
0.0
42
0.0
10
175.900038679342
20
277.162419820313
40
0.0
41
0.0
42
0.0
10
176.250669727587
20
277.111910021671
40
0.0
41
0.0
42
0.0
10
176.577157608379
20
277.069792815709
40
0.0
41
0.0
42
0.0
10
176.857075193131
20
277.033556172272
40
0.0
41
0.0
42
0.0
10
177.067995353256
20
277.000688061206
40
0.0
41
0.0
42
0.0
10
177.187490960167
20
276.968676452355
40
0.0
41
0.0
42
0.0
10
177.193134885277
20
276.935009315564
40
0.0
41
0.0
42
0.0
10
177.0625
20
276.897174620679
40
0.0
41
0.0
42
0.0
10
177.75
20
277.03302734507
40
0.0
41
0.0
42
0.0
10
178.083411612393
20
277.095326331824
40
0.0
41
0.0
42
0.0
10
178.620589129119
20
277.192053264449
40
0.0
41
0.0
42
0.0
10
179.285696569501
20
277.310220553446
40
0.0
41
0.0
42
0.0
10
180.00289795286
20
277.436840609312
40
0.0
41
0.0
42
0.0
10
180.696357298519
20
277.558925842547
40
0.0
41
0.0
42
0.0
10
181.2902386258
20
277.663488663649
40
0.0
41
0.0
42
0.0
10
181.708705954025
20
277.737541483118
40
0.0
41
0.0
42
0.0
10
181.875923302516
20
277.768096711452
40
0.0
41
0.0
42
0.0
10
181.716054690596
20
277.74216675915
40
0.0
41
0.0
42
0.0
10
181.153264137585
20
277.646764036711
40
0.0
41
0.0
42
0.0
10
183.785031416856
20
278.094991716736
40
0.0
41
0.0
42
0.0
10
184.629897004088
20
278.282865827365
40
0.0
41
0.0
42
0.0
10
185.552216116033
20
278.55555135884
40
0.0
41
0.0
42
0.0
10
186.50216282941
20
278.880048022566
40
0.0
41
0.0
42
0.0
10
187.429911220937
20
279.223355529945
40
0.0
41
0.0
42
0.0
10
188.285635367331
20
279.552473592383
40
0.0
41
0.0
42
0.0
10
189.01950934531
20
279.834401921284
40
0.0
41
0.0
42
0.0
10
189.581707231592
20
280.036140228051
40
0.0
41
0.0
42
0.0
10
189.922403102895
20
280.12468822409
40
0.0
41
0.0
42
0.0
10
189.991771035938
20
280.067045620804
40
0.0
41
0.0
42
0.0
10
189.739985107437
20
279.830212129597
40
0.0
41
0.0
42
0.0
10
191.169890108657
20
280.954975567482
40
0.0
41
0.0
42
0.0
10
191.627625316562
20
281.285553766999
40
0.0
41
0.0
42
0.0
10
192.125323740016
20
281.599567268612
40
0.0
41
0.0
42
0.0
10
192.636639079727
20
281.892721521013
40
0.0
41
0.0
42
0.0
10
193.135225036402
20
282.160721972895
40
0.0
41
0.0
42
0.0
10
193.594735310748
20
282.399274072948
40
0.0
41
0.0
42
0.0
10
193.988823603472
20
282.604083269864
40
0.0
41
0.0
42
0.0
10
194.291143615281
20
282.770855012336
40
0.0
41
0.0
42
0.0
10
194.475349046883
20
282.895294749055
40
0.0
41
0.0
42
0.0
10
194.515093598984
20
282.973107928712
40
0.0
41
0.0
42
0.0
10
194.384030972292
20
283.0
40
0.0
41
0.0
42
0.0
10
195.134858691801
20
283.0
40
0.0
41
0.0
42
0.0
10
195.355533784272
20
283.029070016496
40
0.0
41
0.0
42
0.0
10
195.565151232146
20
283.10547809264
40
0.0
41
0.0
42
0.0
10
195.760844238676
20
283.213021268419
40
0.0
41
0.0
42
0.0
10
195.939746007115
20
283.335496583818
40
0.0
41
0.0
42
0.0
10
196.098989740717
20
283.456701078824
40
0.0
41
0.0
42
0.0
10
196.235708642733
20
283.560431793423
40
0.0
41
0.0
42
0.0
10
196.347035916416
20
283.630485767601
40
0.0
41
0.0
42
0.0
10
196.43010476502
20
283.650660041344
40
0.0
41
0.0
42
0.0
10
196.482048391797
20
283.604751654638
40
0.0
41
0.0
42
0.0
10
196.5
20
283.476557647469
40
0.0
41
0.0
42
0.0
10
196.5
20
284.059016994375
40
0.0
41
0.0
42
0.0
10
196.527524233914
20
284.213196179443
40
0.0
41
0.0
42
0.0
10
196.59986935147
20
284.331096497359
40
0.0
41
0.0
42
0.0
10
196.701693976386
20
284.419975504413
40
0.0
41
0.0
42
0.0
10
196.817656732385
20
284.487090756889
40
0.0
41
0.0
42
0.0
10
196.932416243185
20
284.539699811076
40
0.0
41
0.0
42
0.0
10
197.030631132507
20
284.585060223261
40
0.0
41
0.0
42
0.0
10
197.09696002407
20
284.63042954973
40
0.0
41
0.0
42
0.0
10
197.116061541595
20
284.683065346771
40
0.0
41
0.0
42
0.0
10
197.072594308802
20
284.75022517067
40
0.0
41
0.0
42
0.0
10
196.95121694941
20
284.839166577714
40
0.0
41
0.0
42
0.0
10
197.502704332023
20
284.498328630893
40
0.0
41
0.0
42
0.0
10
197.636185073892
20
284.313684838972
40
0.0
41
0.0
42
0.0
10
197.679566031546
20
284.019560300038
40
0.0
41
0.0
42
0.0
10
197.658557484459
20
283.658761443261
40
0.0
41
0.0
42
0.0
10
197.598869712107
20
283.274094697816
40
0.0
41
0.0
42
0.0
10
197.526212993963
20
282.908366492874
40
0.0
41
0.0
42
0.0
10
197.466297609503
20
282.604383257608
40
0.0
41
0.0
42
0.0
10
197.444833838201
20
282.404951421191
40
0.0
41
0.0
42
0.0
10
197.487531959532
20
282.352877412796
40
0.0
41
0.0
42
0.0
10
197.620102252971
20
282.490967661594
40
0.0
41
0.0
42
0.0
10
197.868254997992
20
282.862028596759
40
0.0
41
0.0
42
0.0
10
196.819874784757
20
281.189311636518
40
0.0
41
0.0
42
0.0
10
196.415691938673
20
280.277721260971
40
0.0
41
0.0
42
0.0
10
196.219186892191
20
279.261055607163
40
0.0
41
0.0
42
0.0
10
196.175171783652
20
278.196734901507
40
0.0
41
0.0
42
0.0
10
196.228458751396
20
277.142179370416
40
0.0
41
0.0
42
0.0
10
196.323859933764
20
276.154809240306
40
0.0
41
0.0
42
0.0
10
196.406187469095
20
275.29204473759
40
0.0
41
0.0
42
0.0
10
196.42025349573
20
274.611306088681
40
0.0
41
0.0
42
0.0
10
196.31087015201
20
274.170013519993
40
0.0
41
0.0
42
0.0
10
196.022849576273
20
274.025587257941
40
0.0
41
0.0
42
0.0
10
195.501003906862
20
274.235447528937
40
0.0
41
0.0
42
0.0
10
197.691517807314
20
272.881635485629
40
0.0
41
0.0
42
0.0
10
197.873678985254
20
272.649891831006
40
0.0
41
0.0
42
0.0
10
197.955276401262
20
272.289399160091
40
0.0
41
0.0
42
0.0
10
197.964295497534
20
271.853995825294
40
0.0
41
0.0
42
0.0
10
197.928721716265
20
271.397520179022
40
0.0
41
0.0
42
0.0
10
197.876540499651
20
270.973810573684
40
0.0
41
0.0
42
0.0
10
197.835737289889
20
270.636705361689
40
0.0
41
0.0
42
0.0
10
197.834297529172
20
270.440042895445
40
0.0
41
0.0
42
0.0
10
197.900206659697
20
270.43766152736
40
0.0
41
0.0
42
0.0
10
198.06145012366
20
270.683399609842
40
0.0
41
0.0
42
0.0
10
198.346013363256
20
271.231095495301
40
0.0
41
0.0
42
0.0
10
197.160841336108
20
268.842359147246
40
0.0
41
0.0
42
0.0
10
196.880443190719
20
268.143448734211
40
0.0
41
0.0
42
0.0
10
196.637567441237
20
267.30348852483
40
0.0
41
0.0
42
0.0
10
196.428808508687
20
266.391887330115
40
0.0
41
0.0
42
0.0
10
196.250760814096
20
265.478053961079
40
0.0
41
0.0
42
0.0
10
196.100018778488
20
264.631397228733
40
0.0
41
0.0
42
0.0
10
195.97317682289
20
263.921325944091
40
0.0
41
0.0
42
0.0
10
195.866829368327
20
263.417248918164
40
0.0
41
0.0
42
0.0
10
195.777570835825
20
263.188574961965
40
0.0
41
0.0
42
0.0
10
195.701995646408
20
263.304712886505
40
0.0
41
0.0
42
0.0
10
195.636698221104
20
263.835071502797
40
0.0
41
0.0
42
0.0
10
195.841010675238
20
261.29972072778
40
0.0
41
0.0
42
0.0
10
195.843110803903
20
259.902418209728
40
0.0
41
0.0
42
0.0
10
195.659356715363
20
258.653729604999
40
0.0
41
0.0
42
0.0
10
195.359383470267
20
257.566737747789
40
0.0
41
0.0
42
0.0
10
195.012826129268
20
256.654525472294
40
0.0
41
0.0
42
0.0
10
194.689319753016
20
255.930175612709
40
0.0
41
0.0
42
0.0
10
194.458499402162
20
255.40677100323
40
0.0
41
0.0
42
0.0
10
194.390000137358
20
255.097394478052
40
0.0
41
0.0
42
0.0
10
194.553457019254
20
255.015128871371
40
0.0
41
0.0
42
0.0
10
195.018505108501
20
255.173057017381
40
0.0
41
0.0
42
0.0
10
195.854779465751
20
255.58426175028
40
0.0
41
0.0
42
0.0
10
192.371115538636
20
253.776915180032
40
0.0
41
0.0
42
0.0
10
191.762401322499
20
253.341541156754
40
0.0
41
0.0
42
0.0
10
190.863363594171
20
252.560837020462
40
0.0
41
0.0
42
0.0
10
189.785961569065
20
251.559533089396
40
0.0
41
0.0
42
0.0
10
188.642154462596
20
250.462359681792
40
0.0
41
0.0
42
0.0
10
187.543901490176
20
249.394047115887
40
0.0
41
0.0
42
0.0
10
186.603161867221
20
248.479325709919
40
0.0
41
0.0
42
0.0
10
185.931894809144
20
247.842925782124
40
0.0
41
0.0
42
0.0
10
185.642059531359
20
247.609577650741
40
0.0
41
0.0
42
0.0
10
185.84561524928
20
247.904011634006
40
0.0
41
0.0
42
0.0
10
186.654521178321
20
248.850958050157
40
0.0
41
0.0
42
0.0
10
182.824851934747
20
244.468360032359
40
0.0
41
0.0
42
0.0
10
180.583884205427
20
241.825677578949
40
0.0
41
0.0
42
0.0
10
178.71866593901
20
239.487493160839
40
0.0
41
0.0
42
0.0
10
177.183377036246
20
237.447607218973
40
0.0
41
0.0
42
0.0
10
175.932197397885
20
235.699820194295
40
0.0
41
0.0
42
0.0
10
174.919306924679
20
234.237932527747
40
0.0
41
0.0
42
0.0
10
174.098885517377
20
233.055744660274
40
0.0
41
0.0
42
0.0
10
173.425113076731
20
232.14705703282
40
0.0
41
0.0
42
0.0
10
172.852169503491
20
231.505670086327
40
0.0
41
0.0
42
0.0
10
172.334234698408
20
231.125384261739
40
0.0
41
0.0
42
0.0
10
171.825488562232
20
231.0
40
0.0
41
0.0
42
0.0
10
173.556905789362
20
231.0
40
0.0
41
0.0
42
0.0
10
173.76876668665
20
230.913798005732
40
0.0
41
0.0
42
0.0
10
173.928022890162
20
230.688947115996
40
0.0
41
0.0
42
0.0
10
174.0449796979
20
230.376079970393
40
0.0
41
0.0
42
0.0
10
174.129942407868
20
230.025829208525
40
0.0
41
0.0
42
0.0
10
174.193216318069
20
229.688827469992
40
0.0
41
0.0
42
0.0
10
174.245106726506
20
229.415707394398
40
0.0
41
0.0
42
0.0
10
174.295918931183
20
229.257101621343
40
0.0
41
0.0
42
0.0
10
174.355958230103
20
229.263642790429
40
0.0
41
0.0
42
0.0
10
174.435529921269
20
229.485963541256
40
0.0
41
0.0
42
0.0
10
174.544939302686
20
229.974696513428
40
0.0
41
0.0
42
0.0
10
174.119061549767
20
227.845307748837
40
0.0
41
0.0
42
0.0
10
173.816988748882
20
226.798719171136
40
0.0
41
0.0
42
0.0
10
173.373221652522
20
225.786431894635
40
0.0
41
0.0
42
0.0
10
172.848942347996
20
224.837189243552
40
0.0
41
0.0
42
0.0
10
172.305332922615
20
223.979734542104
40
0.0
41
0.0
42
0.0
10
171.803575463687
20
223.24281111451
40
0.0
41
0.0
42
0.0
10
171.40485205852
20
222.655162284986
40
0.0
41
0.0
42
0.0
10
171.170344794425
20
222.245531377751
40
0.0
41
0.0
42
0.0
10
171.161235758709
20
222.042661717023
40
0.0
41
0.0
42
0.0
10
171.438707038683
20
222.075296627018
40
0.0
41
0.0
42
0.0
10
172.063940721655
20
222.372179431956
40
0.0
41
0.0
42
0.0
10
169.332244343075
20
220.910219897019
40
0.0
41
0.0
42
0.0
10
168.854215594102
20
221.41250212362
40
0.0
41
0.0
42
0.0
10
168.467358633334
20
223.148048654328
40
0.0
41
0.0
42
0.0
10
168.162051066416
20
225.614069358286
40
0.0
41
0.0
42
0.0
10
167.928670498993
20
228.307774104637
40
0.0
41
0.0
42
0.0
10
167.757594536712
20
230.726372762523
40
0.0
41
0.0
42
0.0
10
167.639200785216
20
232.367075201087
40
0.0
41
0.0
42
0.0
10
167.563866850152
20
232.727091289471
40
0.0
41
0.0
42
0.0
10
167.521970337164
20
231.303630896818
40
0.0
41
0.0
42
0.0
10
167.503888851899
20
227.59390389227
40
0.0
41
0.0
42
0.0
10
167.5
20
221.095120144969
40
0.0
41
0.0
42
0.0
210
0.0
220
0.0
230
1.0
0
VIEWPORT
5
26
330
22
100
AcDbEntity
67
1
8
0
62
256
6
ByLayer
370
-1
48
1.0
60
0
100
AcDbViewport
10
0.0
20
0.0
30
0.0
40
297.0
41
210.0
68
1
69
1
12
50.0
22
100.0
13
0.0
23
0.0
14
10.0
24
10.0
15
10.0
25
10.0
16
0.0
26
0.0
36
1.0
17
0.0
27
0.0
37
0.0
42
50.0
43
0.0
44
0.0
45
250.0
50
0.0
51
0.0
72
1000
90
819232
110
0.0
120
0.0
130
0.0
111
1.0
121
0.0
131
0.0
112
0.0
122
1.0
132
0.0
0
ENDSEC
0
SECTION
2
OBJECTS
0
DICTIONARY
5
29
330
0
100
AcDbDictionary
280
0
281
1
3
ACAD_GROUP
350
2A
3
ACAD_LAYOUT
350
2B
3
ACAD_MLINESTYLE
350
2C
0
DICTIONARY
5
2A
330
29
100
AcDbDictionary
280
0
281
1
0
DICTIONARY
5
2B
330
29
100
AcDbDictionary
280
0
281
1
3
Model
350
1B
3
Layout1
350
27
0
DICTIONARY
5
2C
330
29
100
AcDbDictionary
280
0
281
1
3
Standard
350
16
0
LAYOUT
5
1B
330
2B
100
AcDbPlotSettings
1

2
none_device
4
ISO_A4_(210.00_x_297.00_MM)
6

40
7.5
41
20.0
42
7.5
43
20.0
44
210.0
45
297.0
46
0.0
47
0.0
48
0.0
49
0.0
140
0.0
141
0.0
142
1.0
143
1.0
70
11952
72
1
73
1
74
5
7

75
16
147
1.0
148
0.0
149
0.0
100
AcDbLayout
1
Model
70
1
71
0
10
-20.0
20
-7.5
11
277.0
21
202.5
12
0.0
22
0.0
32
0.0
14
25.7
24
19.5
34
0.0
15
231.3
25
175.5
35
0.0
146
0.0
13
0.0
23
0.0
33
0.0
16
1.0
26
0.0
36
0.0
17
0.0
27
1.0
37
0.0
76
0
330
17
0
LAYOUT
5
27
330
2B
100
AcDbPlotSettings
1

2
none_device
4
ISO_A4_(210.00_x_297.00_MM)
6

40
7.5
41
20.0
42
7.5
43
20.0
44
210.0
45
297.0
46
0.0
47
0.0
48
0.0
49
0.0
140
0.0
141
0.0
142
1.0
143
1.0
70
688
72
1
73
1
74
5
7

75
16
147
1.0
148
0.0
149
0.0
100
AcDbLayout
1
Layout1
70
1
71
1
10
-20.0
20
-7.5
11
277.0
21
202.5
12
0.0
22
0.0
32
0.0
14
25.7
24
19.5
34
0.0
15
231.3
25
175.5
35
0.0
146
0.0
13
0.0
23
0.0
33
0.0
16
1.0
26
0.0
36
0.0
17
0.0
27
1.0
37
0.0
76
0
330
22
0
MLINESTYLE
5
16
330
2C
100
AcDbMlineStyle
2
Standard
70
0
3

62
256
51
90.0
52
90.0
71
2
49
0.5
62
256
6
ByLayer
49
-0.5
62
256
6
ByLayer
0
ENDSEC
0
EOF
